<svg xmlns="http://www.w3.org/2000/svg" xmlns:xlink="http://www.w3.org/1999/xlink" viewBox="0 0 1367 768"><defs><style>.cls-1{isolation:isolate;}.cls-2,.cls-3{fill:#666;}.cls-16,.cls-2,.cls-22,.cls-9{opacity:0.3;}.cls-4{fill:url(#linear-gradient);}.cls-5{fill:#1d1d1b;}.cls-6{fill:#dbd9d8;}.cls-7{fill:url(#linear-gradient-35);}.cls-8{fill:url(#linear-gradient-36);}.cls-9{mix-blend-mode:multiply;}.cls-10{fill:url(#linear-gradient-37);}.cls-11{fill:url(#linear-gradient-38);}.cls-12{fill:#713f29;}.cls-13{fill:url(#linear-gradient-39);}.cls-14{fill:#e5e2e1;}.cls-15{fill:#e0e0e0;}.cls-16{mix-blend-mode:soft-light;}.cls-17{fill:#fff;}.cls-18{fill:url(#linear-gradient-40);}.cls-19{fill:#006837;}.cls-20{fill:#ccc;}.cls-21{fill:#c1272d;}</style><linearGradient id="linear-gradient" x1="379.39" y1="380.03" x2="977.43" y2="380.03" gradientUnits="userSpaceOnUse"><stop offset="0" stop-color="#670fb3"/><stop offset="0.75" stop-color="#1812d6"/><stop offset="1" stop-color="#091362"/></linearGradient><linearGradient id="linear-gradient-35" x1="2093.98" y1="4041.97" x2="2099.36" y2="4041.97" gradientTransform="translate(1733.46 -4084.22) rotate(41.96)" gradientUnits="userSpaceOnUse"><stop offset="0" stop-color="#ab316d"/><stop offset="1" stop-color="#792d3d"/></linearGradient><linearGradient id="linear-gradient-36" x1="2104.53" y1="4039.92" x2="2064.21" y2="3993.87" gradientTransform="translate(1733.46 -4084.22) rotate(41.96)" gradientUnits="userSpaceOnUse"><stop offset="0" stop-color="#444b8c"/><stop offset="1" stop-color="#26264f"/></linearGradient><linearGradient id="linear-gradient-37" x1="1302.7" y1="2976" x2="1327.46" y2="2976" gradientTransform="translate(835.72 -2942.25) rotate(28.13)" xlink:href="#linear-gradient-36"/><linearGradient id="linear-gradient-38" x1="2073.54" y1="4067.45" x2="2078.97" y2="4067.45" xlink:href="#linear-gradient-35"/><linearGradient id="linear-gradient-39" x1="2090.03" y1="4052.61" x2="2049.71" y2="4006.56" xlink:href="#linear-gradient-36"/><linearGradient id="linear-gradient-40" x1="2011.84" y1="3963.61" x2="2023.03" y2="3963.61" xlink:href="#linear-gradient-36"/></defs><g class="cls-1"><g id="Illustration"><polygon class="cls-2" points="954.07 584.98 975.29 592.42 989.56 581.62 952.27 583.05 954.07 584.98"/><polyline class="cls-2" points="953.81 585.47 987.47 582.64 983.21 561.88 952.66 584.57"/><path class="cls-2" d="M955.39,585s26.4-18.65,26.4-19,3.57-9.08,3.57-9.08L971,553.15,952.27,585Z"/><polygon class="cls-2" points="957.99 584.55 973.7 549.33 956.98 549.41 954.07 584.98 957.99 584.55"/><polygon class="cls-2" points="951.12 582.8 946 549.79 959.02 544.57 954.82 583.67 951.12 582.8"/><polygon class="cls-2" points="954.07 582.53 951.12 583.99 935.65 554.18 946.37 545.96 954.07 582.53"/><polygon class="cls-2" points="952.27 585.47 927.92 564.47 936.7 554.78 952.96 582.04 952.27 585.47"/><polygon class="cls-2" points="952.27 585.47 929.33 577.41 925.21 568.36 930.48 563.15 952.27 581.71 952.27 585.47"/><polygon class="cls-3" points="943.24 565.98 945.78 560.62 948.68 561.36 950.49 576.28 954.07 582.99 957.73 587.02 957.19 587.12 956.56 592.9 958.41 593.8 958.41 594.35 955.42 593.7 952.02 595.85 949.53 594.8 950.73 593.1 954.87 592.42 955.96 587.35 955.87 587.36 954.82 585.39 953.77 585.66 951.32 591.23 952.96 592.42 950.88 591.95 947.58 594.15 945.24 593.75 945.24 591.55 950.33 591.23 951.95 586.06 945.74 581.13 945.24 571.84 947.88 564.98 943.24 566.9 943.24 565.98"/><path class="cls-4" d="M740,226.14l-17.68-60.75h16.23l9.16,39.8h.51l10.47-39.8H772l10.47,39.89h.5l9.2-39.89h16.19l-17.65,60.75H776.53l-10.95-36.85h-.47l-11,36.85Z"/><path class="cls-4" d="M820.9,226.14H805.12l20.5-60.75h19.55l20.49,60.75H849.88l-14.27-45.45h-.47Zm-2.11-23.91h33v11.15h-33Z"/><path class="cls-4" d="M863,165.39h16.41l12.84,25.42h.53l12.85-25.42h16.4l-22.22,40.46v20.29H885.24V205.85Z"/><path class="cls-4" d="M961.06,183.6a6.94,6.94,0,0,0-2.63-5.09c-1.55-1.22-3.76-1.82-6.63-1.82a13,13,0,0,0-4.74.74,6.17,6.17,0,0,0-2.85,2,5,5,0,0,0-1,2.95,4.23,4.23,0,0,0,.55,2.4,5.53,5.53,0,0,0,1.78,1.83,13.09,13.09,0,0,0,2.83,1.38,31.55,31.55,0,0,0,3.74,1l5.22,1.18a38,38,0,0,1,8,2.61,21.93,21.93,0,0,1,5.81,3.89,15.08,15.08,0,0,1,3.57,5.19,17.47,17.47,0,0,1,1.25,6.59,16.94,16.94,0,0,1-2.91,9.87,18,18,0,0,1-8.26,6.32,34.41,34.41,0,0,1-13,2.2,35.28,35.28,0,0,1-13.29-2.29,18.79,18.79,0,0,1-8.81-6.94,21.13,21.13,0,0,1-3.23-11.77h14.06a9.22,9.22,0,0,0,1.57,4.89,8.62,8.62,0,0,0,3.85,3,14.85,14.85,0,0,0,5.68,1,14,14,0,0,0,5-.8,7.25,7.25,0,0,0,3.22-2.22,5.27,5.27,0,0,0,1.16-3.26,4.61,4.61,0,0,0-1.07-3,8.22,8.22,0,0,0-3.19-2.13,35.47,35.47,0,0,0-5.47-1.68L945,200.24q-7.89-1.81-12.43-5.86t-4.51-11a16.29,16.29,0,0,1,3-9.88,20.06,20.06,0,0,1,8.45-6.61,30.37,30.37,0,0,1,12.31-2.38,29.23,29.23,0,0,1,12.27,2.39,19,19,0,0,1,8.08,6.69,17.85,17.85,0,0,1,2.94,10Z"/><path class="cls-4" d="M652.15,318.27l-17.68-60.75H650.7l9.16,39.81h.51l10.47-39.81h13.23l10.47,39.9h.5l9.2-39.9h16.19l-17.65,60.75H688.63l-10.94-36.84h-.48l-10.94,36.84Z"/><path class="cls-4" d="M726.51,318.27V257.52h42.36v11.93H741.2V281.9h25.51v12H741.2v12.49h27.67v11.92Z"/><path class="cls-4" d="M851.19,279.53H836.36a13,13,0,0,0-1.22-4.12,9.93,9.93,0,0,0-2.43-3.15,10.68,10.68,0,0,0-3.58-2,14.24,14.24,0,0,0-4.55-.7,13.25,13.25,0,0,0-7.61,2.17,13.64,13.64,0,0,0-4.89,6.26,30,30,0,0,0,0,20,13.29,13.29,0,0,0,4.89,6.14,13.43,13.43,0,0,0,7.49,2.06,14.79,14.79,0,0,0,4.44-.63,10.85,10.85,0,0,0,3.53-1.82,10.24,10.24,0,0,0,2.52-2.94,12,12,0,0,0,1.38-3.93l14.83.09a22.81,22.81,0,0,1-2.33,7.95,25.52,25.52,0,0,1-5.33,7.14,24.85,24.85,0,0,1-8.23,5.11,30.19,30.19,0,0,1-11.11,1.9,29.78,29.78,0,0,1-14.75-3.63,26,26,0,0,1-10.28-10.61q-3.76-7-3.77-17t3.83-17a26.15,26.15,0,0,1,10.35-10.59,29.68,29.68,0,0,1,14.62-3.62,32.77,32.77,0,0,1,10.21,1.53,25.25,25.25,0,0,1,8.25,4.45,22.9,22.9,0,0,1,5.78,7.16A26.31,26.31,0,0,1,851.19,279.53Z"/><path class="cls-4" d="M871.18,318.27H855.4l20.5-60.75h19.55l20.49,60.75H900.16l-14.27-45.44h-.47Zm-2.11-23.91h33v11.16h-33Z"/><path class="cls-4" d="M974.2,257.52v60.75H961.74l-24.17-35.06h-.39v35.06H922.5V257.52h12.63l23.91,35h.51v-35Z"/><path class="cls-4" d="M541.62,410.41V349.66H584v11.92H556.31V374h25.51V386H556.31v12.49H584v11.93Z"/><path class="cls-4" d="M593.18,349.66h18.18l15.43,37.61h.71l15.42-37.61h18.19v60.75h-14.3V373.09h-.51L631.71,410h-9.14L608,372.88h-.5v37.53h-14.3Z"/><path class="cls-4" d="M670.3,410.41V349.66h25.1a24.69,24.69,0,0,1,11.79,2.65,18.84,18.84,0,0,1,7.67,7.39,21.85,21.85,0,0,1,2.69,11,21.42,21.42,0,0,1-2.74,11A18.55,18.55,0,0,1,707,389a26.24,26.24,0,0,1-12,2.58H679.47V380h12.75a11.89,11.89,0,0,0,5.56-1.16,7.9,7.9,0,0,0,3.4-3.24,10,10,0,0,0,1.16-4.88,9.81,9.81,0,0,0-1.16-4.88,7.76,7.76,0,0,0-3.41-3.19,12.33,12.33,0,0,0-5.55-1.13H685v48.92Z"/><path class="cls-4" d="M782.1,380q0,10-3.85,17a26.33,26.33,0,0,1-10.43,10.59,31.68,31.68,0,0,1-29.47,0A26.44,26.44,0,0,1,728,397q-3.84-6.94-3.84-17T728,363a26.32,26.32,0,0,1,10.4-10.59,31.88,31.88,0,0,1,29.47,0A26.46,26.46,0,0,1,778.25,363Q782.11,370,782.1,380Zm-15,0a26.7,26.7,0,0,0-1.67-10,13.27,13.27,0,0,0-4.81-6.19A13.17,13.17,0,0,0,740.77,370a30.78,30.78,0,0,0,0,20.06,13.15,13.15,0,0,0,24.65,0A26.67,26.67,0,0,0,767.09,380Z"/><path class="cls-4" d="M802.18,410.41,784.5,349.66h16.23l9.17,39.8h.5l10.47-39.8H834.1l10.47,39.89h.51l9.19-39.89h16.2l-17.65,60.75H838.67l-10.95-36.85h-.47l-11,36.85Z"/><path class="cls-4" d="M876.55,410.41V349.66h42.36v11.92H891.23V374h25.51V386H891.23v12.49h27.68v11.93Z"/><path class="cls-4" d="M928.1,410.41V349.66h25.1A26.42,26.42,0,0,1,965,352.1a17.9,17.9,0,0,1,7.67,7,20.78,20.78,0,0,1,2.7,10.79,19.81,19.81,0,0,1-2.76,10.72,17.46,17.46,0,0,1-7.83,6.7,28.8,28.8,0,0,1-12,2.3H936.88V378H950a15.51,15.51,0,0,0,5.57-.87A6.82,6.82,0,0,0,959,374.5a8.38,8.38,0,0,0,1.16-4.61,8.73,8.73,0,0,0-1.16-4.68,7.08,7.08,0,0,0-3.41-2.78,14.36,14.36,0,0,0-5.55-.94h-7.23v48.92Zm34.2-27.77,15.13,27.77h-16l-14.84-27.77Z"/><path class="cls-4" d="M453.65,453.72V441.79H505v11.93H486.57v48.82H472.1V453.72Z"/><path class="cls-4" d="M512.2,502.54V441.79h14.68v24.38h23.94V441.79h14.66v60.75H550.82V478.13H526.88v24.41Z"/><path class="cls-4" d="M574.67,502.54V441.79H617v11.93H589.36v12.45h25.51v12H589.36v12.49H617v11.92Z"/><path class="cls-4" d="M699.35,463.8H684.51a12.69,12.69,0,0,0-1.21-4.12,10.23,10.23,0,0,0-2.43-3.15,10.68,10.68,0,0,0-3.58-2,14.24,14.24,0,0,0-4.55-.7,13.23,13.23,0,0,0-7.61,2.17,13.65,13.65,0,0,0-4.9,6.26,30.13,30.13,0,0,0,0,20,12.63,12.63,0,0,0,12.39,8.2,15,15,0,0,0,4.43-.62,11,11,0,0,0,3.53-1.83,9.94,9.94,0,0,0,2.52-2.94,11.6,11.6,0,0,0,1.38-3.93l14.84.09a22.81,22.81,0,0,1-2.33,8,25.52,25.52,0,0,1-5.33,7.14,25,25,0,0,1-8.23,5.11,30.23,30.23,0,0,1-11.11,1.9,29.81,29.81,0,0,1-14.76-3.63,25.89,25.89,0,0,1-10.27-10.61q-3.78-7-3.77-17t3.83-17a26.15,26.15,0,0,1,10.35-10.59A29.65,29.65,0,0,1,672.35,441a32.77,32.77,0,0,1,10.21,1.53,25.1,25.1,0,0,1,8.24,4.45,22.93,22.93,0,0,1,5.79,7.16A26.31,26.31,0,0,1,699.35,463.8Z"/><path class="cls-4" d="M765.05,472.17q0,10-3.86,17a26.24,26.24,0,0,1-10.42,10.59,31.68,31.68,0,0,1-29.47,0,26.35,26.35,0,0,1-10.4-10.6q-3.84-7-3.84-16.95t3.84-17a26.14,26.14,0,0,1,10.4-10.59,31.8,31.8,0,0,1,29.47,0,26.24,26.24,0,0,1,10.42,10.59Q765,462.15,765.05,472.17Zm-15,0a26.46,26.46,0,0,0-1.68-10,13.16,13.16,0,0,0-24.65,0,30.93,30.93,0,0,0,0,20.05A12.51,12.51,0,0,0,736,490.5a12.47,12.47,0,0,0,12.32-8.31A26.44,26.44,0,0,0,750,472.17Z"/><path class="cls-4" d="M796.05,502.54H773.59V441.79H796a33.19,33.19,0,0,1,16,3.63,25.17,25.17,0,0,1,10.37,10.45,38.22,38.22,0,0,1,0,32.58A24.91,24.91,0,0,1,812,498.91,33.2,33.2,0,0,1,796.05,502.54ZM788.27,490h7.21a19.64,19.64,0,0,0,8.65-1.73,11.43,11.43,0,0,0,5.37-5.67,25.28,25.28,0,0,0,1.82-10.48q0-6.56-1.84-10.46a11.44,11.44,0,0,0-5.41-5.64,20.15,20.15,0,0,0-8.8-1.73h-7Z"/><path class="cls-4" d="M849.26,441.79v60.75H834.58V441.79Z"/><path class="cls-4" d="M910.16,441.79v60.75H897.7l-24.18-35.06h-.38v35.06H858.46V441.79h12.63l23.91,35h.5v-35Z"/><path class="cls-4" d="M959.22,461.64a11,11,0,0,0-1.48-3.31,9.68,9.68,0,0,0-2.41-2.45,10.65,10.65,0,0,0-3.26-1.53,15.06,15.06,0,0,0-4-.52A13.51,13.51,0,0,0,940.4,456a13.7,13.7,0,0,0-5,6.21,25,25,0,0,0-1.75,9.9,26.19,26.19,0,0,0,1.69,10A12.81,12.81,0,0,0,948,490.5a15.91,15.91,0,0,0,6.83-1.32,9.55,9.55,0,0,0,4.26-3.75,11,11,0,0,0,1.45-5.73l2.73.33H948.54V469.32h26.19v8a26.9,26.9,0,0,1-3.45,14,23.33,23.33,0,0,1-9.49,8.93,32.68,32.68,0,0,1-29.15-.66,26,26,0,0,1-10.26-10.75,35.21,35.21,0,0,1-3.68-16.6A37,37,0,0,1,920.92,459a28.14,28.14,0,0,1,6.22-9.83,26.53,26.53,0,0,1,9.25-6.11A30.57,30.57,0,0,1,947.74,441a30.92,30.92,0,0,1,9.83,1.51,26.6,26.6,0,0,1,8.07,4.27,22.63,22.63,0,0,1,5.71,6.56,21.27,21.27,0,0,1,2.73,8.34Z"/><path class="cls-4" d="M435.18,555.94H420.35a12.75,12.75,0,0,0-1.22-4.13,10,10,0,0,0-2.43-3.14,10.56,10.56,0,0,0-3.57-2,14.07,14.07,0,0,0-4.56-.7,13.21,13.21,0,0,0-7.6,2.16,13.76,13.76,0,0,0-4.9,6.26,30.13,30.13,0,0,0,0,20,12.61,12.61,0,0,0,12.38,8.2,14.75,14.75,0,0,0,4.44-.62,10.85,10.85,0,0,0,3.53-1.82,9.94,9.94,0,0,0,2.52-2.94,12.21,12.21,0,0,0,1.38-3.93l14.83.09a22.6,22.6,0,0,1-2.33,8,25,25,0,0,1-13.55,12.25,30.47,30.47,0,0,1-11.11,1.9,29.69,29.69,0,0,1-14.76-3.64,25.89,25.89,0,0,1-10.28-10.6q-3.76-7-3.76-17t3.82-17a26.27,26.27,0,0,1,10.35-10.59,29.68,29.68,0,0,1,14.63-3.61,33,33,0,0,1,10.2,1.52,25,25,0,0,1,8.25,4.45,22.94,22.94,0,0,1,5.78,7.17A25.88,25.88,0,0,1,435.18,555.94Z"/><path class="cls-4" d="M500.88,564.3q0,10-3.85,17a26.27,26.27,0,0,1-10.43,10.59,31.68,31.68,0,0,1-29.47,0,26.5,26.5,0,0,1-10.4-10.61q-3.84-6.94-3.84-17t3.84-17a26.39,26.39,0,0,1,10.4-10.59,31.88,31.88,0,0,1,29.47,0A26.39,26.39,0,0,1,497,547.3Q500.89,554.28,500.88,564.3Zm-15,0a26.4,26.4,0,0,0-1.68-10,13.25,13.25,0,0,0-4.81-6.2,13.16,13.16,0,0,0-19.84,6.2,30.75,30.75,0,0,0,0,20.05,13.15,13.15,0,0,0,24.65,0A26.46,26.46,0,0,0,485.88,564.3Z"/><path class="cls-4" d="M509.43,533.93h18.18L543,571.54h.72l15.42-37.61h18.19v60.75h-14.3V557.36h-.51L548,594.29h-9.14l-14.59-37.14h-.51v37.53H509.43Z"/><path class="cls-4" d="M586.55,533.93h18.18l15.43,37.61h.71l15.43-37.61h18.18v60.75h-14.3V557.36h-.5l-14.6,36.93H616l-14.6-37.14h-.5v37.53h-14.3Z"/><path class="cls-4" d="M700.43,533.93h14.65v39.18a20.67,20.67,0,0,1-12.25,19.59,34.41,34.41,0,0,1-27,0,21,21,0,0,1-9-7.77,21.48,21.48,0,0,1-3.21-11.82V533.93h14.69v37.91a11.26,11.26,0,0,0,1.38,5.6,9.91,9.91,0,0,0,3.87,3.86,12.69,12.69,0,0,0,11.55,0,10,10,0,0,0,3.87-3.86,11.16,11.16,0,0,0,1.4-5.6Z"/><path class="cls-4" d="M776,533.93v60.75H763.52l-24.17-35.06H739v35.06H724.28V533.93h12.63l23.91,35h.51v-35Z"/><path class="cls-4" d="M799.86,533.93v60.75H785.17V533.93Z"/><path class="cls-4" d="M807.07,545.85V533.93h51.34v11.92H840v48.83H825.52V545.85Z"/><path class="cls-4" d="M862.59,533.93H879l12.84,25.42h.54l12.84-25.42h16.4l-22.21,40.46v20.29h-14.6V574.39Z"/><path class="cls-5" d="M606.72,247.85a.18.18,0,0,1-.16-.1,2.33,2.33,0,0,0-2-1,2.73,2.73,0,0,1-1.72-1.08.18.18,0,0,1,0-.25.17.17,0,0,1,.24,0,2.41,2.41,0,0,0,1.46.94,2.63,2.63,0,0,1,2.26,1.22.18.18,0,0,1-.08.23Z"/><path class="cls-6" d="M557.42,254.88s6.1,18.8,17.13,20.14l24.08,5s9.42-28.19,11.47-32.61c.84-1.84.77-4.62-.91-5.39s-4.38-1.49-5.66-.34-2.24,3.79-6.94,6.34c-7.9,4.3-15.18,5.69-21.88,5.08C572.22,252.83,557.42,254.88,557.42,254.88Z"/><path class="cls-7" d="M590.51,320.45s-1.89-.37-1.84.56,1,5.33,1.47,5.77,1.77-2,1.5-2.65S591.22,320.64,590.51,320.45Z"/><path class="cls-8" d="M601.58,286.39c1.37,1.87,6.06,8.74,4.92,17.76a19.24,19.24,0,0,1-16.16,17.48l-1.2-.64a7.36,7.36,0,0,1,.46-4.47c1.15-2.47,3.26-2.74,5.55-5.68a11.32,11.32,0,0,0,2.14-3.86c1.23-4.67-3.5-7.85-7-17.42-1.27-3.45-2.2-6.07-1.09-7.19C591.16,280.38,598.18,284.33,601.58,286.39Z"/><g class="cls-9"><path class="cls-10" d="M594.67,315.08c4.1-3.25,8.16-4,8.52-7,.3-2.46-2.21-3.36-3.22-7.79-.71-3.16.06-4.94.1-7,0-2.66-1.11-6.24-6-10.69-2.13-.79-4-1.09-4.91-.2-1.11,1.12-.18,3.74,1.09,7.19,3.51,9.57,8.24,12.75,7,17.42a11.32,11.32,0,0,1-2.14,3.86c-2.29,2.94-4.4,3.21-5.55,5.68a7.36,7.36,0,0,0-.46,4.47l.27.14A22.39,22.39,0,0,1,594.67,315.08Z"/></g><path class="cls-11" d="M559.16,325.15c0-.34-1.77-.77-2.08.35-.28.95-.57,2.6-1.13,5.21a2.81,2.81,0,0,0,.89,2.08.67.67,0,0,0,1.08-.48,9,9,0,0,1,.73-3.62C559.73,327,560.56,325.08,559.16,325.15Z"/><path class="cls-12" d="M559.26,322.57l-1,3.56a.92.92,0,0,0,1,.89l2.19-2.93Z"/><path class="cls-13" d="M598.31,286.56c-6.69,5.74-13.76,12.32-20.95,19.84-6.29,6.57-11.86,13-16.77,19.14L558.87,324a16.34,16.34,0,0,1-.2-8.18c.23-1,1-3.87,4.93-8.46,3.28-3.85,4.82-4.27,7.81-7.2,5.87-5.73,5.55-9.53,13.73-19.22,2.41-2.86,3.72-4.05,5.4-4C595,277,597.91,285.39,598.31,286.56Z"/><path class="cls-12" d="M620.15,292.43a7.11,7.11,0,0,1,1.89.36c1.43.4,1.72,1.55.87,3s-2.19,2.93-2.24,2,.52-3.54-.66-3.71S620.15,292.43,620.15,292.43Z"/><path class="cls-12" d="M581,225.69a10.37,10.37,0,0,1,.83-1.92,2.88,2.88,0,0,0,.07-3c-.51-.91-1.69-1.08-2-2.24-.18-.71-1.57,1.26-.78,2.85s.22,4.2.22,4.2Z"/><path class="cls-6" d="M609.4,257.42c.6.18,1.77,1.45,3.54,5,3.39,6.72,1.87,11.55,3.33,18.55a33.23,33.23,0,0,0,4.82,11.45l-1.26,2.87a21.15,21.15,0,0,1-9.26-7c-4.69-6.44-3.1-13.14-9.15-18-1.18-.95-2.16-1.44-2.48-2.68C597.94,263.64,605,256.13,609.4,257.42Z"/><path class="cls-14" d="M596.91,322.12c18.82-17.47,7.14-31.95,6.31-35.74-.67-3.06-1.51-7.7.61-10.76s2.53-5.43,4-10.42c.17-.57,2.14-6.84,1.56-7.78-2.2-3.55-4.83-3.29-11.4-7.59-4.13-2.7-10-6.53-13.32-12.86A25,25,0,0,1,582,225.18l-3.1-1c-3.12,5.94-3.26,10.45-2.8,13.49,1.45,9.45,9.78,11.72,10,21.47a20.52,20.52,0,0,1-2.73,10.44,14.38,14.38,0,0,1-4.19,4.67c-5.87,4-25.21,38.67-26.27,40.84-.87,1.76,2.44,6.16,7,8.53,6.73,3.49,14.93-6.15,25.41-3.92C591.57,321,595.53,323.4,596.91,322.12Z"/><path class="cls-12" d="M602.47,247.05s-.54,2.79-3.18,2.68a8.33,8.33,0,0,1-2.79-.52l7.79,5.81,2.54-.1s-1.45-.47-1.5-1.31-.22-4.18-.22-4.18Z"/><path class="cls-12" d="M602.27,247.35a5.17,5.17,0,0,0,3.34,3.82c2.57.85,5.21-4.62,4.09-6.45a3.38,3.38,0,0,0-2.34-1.32c-.57-.06-.83.08-1.76,0s-1-.29-1.36-.19-.85.65-1,2.49c-.29-.68-.78-1.1-1.27-1.07a.88.88,0,0,0-.46.19C600.88,245.28,601.13,246.33,602.27,247.35Z"/><path class="cls-15" d="M588.64,280.76c1.24-1.92-2.54-4.73-1.36-7.89,1.25-3.33,6.25-2.35,8.82-5.85,3.15-4.28-.05-11.56-.42-12.38-3.92-8.64-11.95-8-17-16.18a20.6,20.6,0,0,1-2.56-6.49,18.17,18.17,0,0,0-.06,5.69c1.45,9.45,9.78,11.72,10,21.47a20.52,20.52,0,0,1-2.73,10.44,14.38,14.38,0,0,1-4.19,4.67c-5.87,4-25.21,38.67-26.27,40.84-.74,1.51,1.57,4.94,5.1,7.38,1.18-1.13,15.2-40.12,16.88-40.74C580.94,279.49,587.11,283.13,588.64,280.76Z"/><g class="cls-16"><path class="cls-17" d="M573.14,199.72c-6.59-1.95-13.56,5.68-19.9,5.2-4-.42-3-3.41-6.8-6.5-2.3-2-5.23-3.65-8.07-5.86a17.45,17.45,0,0,1-7.53-7.09c-.59-1-1.22-1.18-1.45-.36l-5.76,21a4,4,0,0,0,.7,3c14.36,18,42.46-14,56.81,4.11C579.41,204.08,576.22,200.65,573.14,199.72Z"/></g><path class="cls-18" d="M580.39,223.24a.57.57,0,0,1-.28-.63l5.68-21.38a.57.57,0,0,1,.69-.4.58.58,0,0,1,.4.68l-5.69,21.38a.55.55,0,0,1-.68.4Z"/><path class="cls-5" d="M610.31,244.26a.26.26,0,0,1-.23-.15,3.42,3.42,0,0,0-2.91-1.51,6.19,6.19,0,0,1-2.88-1.21.27.27,0,0,1,0-.37.25.25,0,0,1,.36,0,5.77,5.77,0,0,0,2.59,1.1,3.89,3.89,0,0,1,3.35,1.8.26.26,0,0,1-.12.35A.27.27,0,0,1,610.31,244.26Z"/><path class="cls-5" d="M610.74,243.79a.29.29,0,0,1-.24-.13,3.42,3.42,0,0,0-3-1.35,6.18,6.18,0,0,1-2.94-1,.26.26,0,0,1,.29-.43,5.72,5.72,0,0,0,2.65.95A3.92,3.92,0,0,1,611,243.4a.26.26,0,0,1-.1.35Z"/><path class="cls-19" d="M544.36,199.74c9.08-2.08,18.28-6.36,27.14-5.16a14.33,14.33,0,0,1,9.42,4.88l1.41-3c-14.16-14.62-39,9.5-51.49-11-.59-1-1.22-1.18-1.45-.36l-1.2,4.37C531.23,193.69,537.74,201.25,544.36,199.74Z"/><path class="cls-20" d="M542,209.36c7-.88,21.24-10.89,26.82-10.62a11.94,11.94,0,0,1,10,5.35l2.19-4.63a14.33,14.33,0,0,0-9.42-4.88c-8.86-1.2-18.06,3.08-27.14,5.16-6.62,1.51-13.13-6.05-16.17-10.26q-1.71,6.26-3.43,12.5C528.69,204.79,536.8,210,542,209.36Z"/><path d="M568.77,198.74c-5.58-.27-19.81,9.74-26.82,10.62-5.15.64-13.26-4.57-17.19-7.38-.38,1.38-.75,2.76-1.13,4.13a4,4,0,0,0,.7,3c12.89,16.17,36.83-7.91,52,0l2.42-5.09A11.94,11.94,0,0,0,568.77,198.74Z"/><path class="cls-21" d="M585.49,200.75a21.63,21.63,0,0,0-3.16-4.26l-1.41,3a3.18,3.18,0,0,1,.21.28,3.18,3.18,0,0,0-.21-.28l-2.19,4.63a15.08,15.08,0,0,1,1.36,2.59,15.08,15.08,0,0,0-1.36-2.59l-2.42,5.09a15.67,15.67,0,0,1,5.5,5c.43.6.85.77,1,.31q1.59-5.81,3.19-11.6A3.52,3.52,0,0,0,585.49,200.75Z"/><g class="cls-22"><path class="cls-17" d="M573.14,199.72c-6.59-1.95-13.56,5.68-19.9,5.2-4-.42-3-3.41-6.8-6.5-2.3-2-5.23-3.65-8.07-5.86a17.45,17.45,0,0,1-7.53-7.09c-.59-1-1.22-1.18-1.45-.36l-5.76,21a4,4,0,0,0,.7,3c14.36,18,42.46-14,56.81,4.11C579.41,204.08,576.22,200.65,573.14,199.72Z"/></g></g></g></svg>