<svg xmlns="http://www.w3.org/2000/svg" xmlns:xlink="http://www.w3.org/1999/xlink" viewBox="0 0 1367 768"><defs><style>.cls-1{isolation:isolate;}.cls-2{fill:#079ed5;}.cls-3{fill:none;stroke-miterlimit:10;stroke-width:0.5px;stroke:url(#linear-gradient);}.cls-4{fill:url(#New_Gradient_Swatch);}.cls-5{fill:url(#New_Gradient_Swatch-2);}.cls-11,.cls-15,.cls-21,.cls-40,.cls-6{fill:#fff;}.cls-7{fill:#83ceea;}.cls-25,.cls-8{fill:#666;}.cls-9{fill:#b3b3b3;}.cls-10,.cls-48{fill:#4d4d4d;}.cls-11{opacity:0.5;}.cls-11,.cls-15{mix-blend-mode:soft-light;}.cls-12{fill:#e6e6e6;}.cls-13{fill:#4641de;}.cls-14{fill:#33434b;}.cls-15{opacity:0.4;}.cls-16{fill:#1a1a1a;}.cls-17{fill:#662d91;}.cls-18{fill:url(#linear-gradient-2);}.cls-19{fill:url(#linear-gradient-3);}.cls-20{fill:#e6b299;}.cls-21{opacity:0.2;}.cls-22{fill:#192b34;}.cls-23{fill:gray;}.cls-24{fill:#ffac10;}.cls-25{opacity:0.3;}.cls-26{fill:#cc957a;}.cls-27{fill:url(#linear-gradient-4);}.cls-28{fill:url(#linear-gradient-5);}.cls-29{fill:#9cd8ee;}.cls-30{fill:#f2f2f2;}.cls-31{fill:url(#linear-gradient-6);}.cls-32{fill:#fbb03b;}.cls-33{fill:#754c24;}.cls-34{fill:#42210b;}.cls-35{fill:url(#linear-gradient-7);}.cls-36{fill:#999;}.cls-37{fill:#6dc6e6;}.cls-38{fill:url(#linear-gradient-8);}.cls-39{fill:url(#linear-gradient-9);}.cls-40{opacity:0.39;}.cls-41{fill:url(#linear-gradient-10);}.cls-42{fill:url(#linear-gradient-11);}.cls-43{fill:url(#linear-gradient-12);}.cls-44{fill:url(#linear-gradient-13);}.cls-45{fill:url(#linear-gradient-14);}.cls-46{fill:url(#linear-gradient-15);}.cls-47{fill:url(#linear-gradient-16);}.cls-48{font-size:24px;font-family:Inter-Bold, Inter;font-weight:700;}.cls-49{fill:#1812d6;}</style><linearGradient id="linear-gradient" x1="1001.36" y1="695.87" x2="1301.86" y2="695.87" gradientUnits="userSpaceOnUse"><stop offset="0.03" stop-color="#670fb3"/><stop offset="0.25" stop-color="#079ed5"/><stop offset="0.48" stop-color="#1812d6"/><stop offset="1" stop-color="#00141e"/></linearGradient><linearGradient id="New_Gradient_Swatch" x1="54.16" y1="170.23" x2="7241.5" y2="170.23" gradientUnits="userSpaceOnUse"><stop offset="0" stop-color="#079ed5"/><stop offset="0.18" stop-color="#670fb3"/><stop offset="0.59" stop-color="#1812d6"/><stop offset="1" stop-color="#00141e"/></linearGradient><linearGradient id="New_Gradient_Swatch-2" x1="54.16" y1="169.94" x2="7241.5" y2="169.94" xlink:href="#New_Gradient_Swatch"/><linearGradient id="linear-gradient-2" x1="2320.34" y1="662.13" x2="2280.36" y2="538.86" gradientTransform="matrix(-1, 0, 0, 1, 2833.48, 0)" gradientUnits="userSpaceOnUse"><stop offset="0" stop-color="#ff6256"/><stop offset="1" stop-color="#ffb00c"/></linearGradient><linearGradient id="linear-gradient-3" x1="2293.1" y1="561.61" x2="2302.65" y2="532.2" xlink:href="#linear-gradient-2"/><linearGradient id="linear-gradient-4" x1="-840.5" y1="545.76" x2="-846.17" y2="552.14" gradientTransform="translate(1723.62)" xlink:href="#linear-gradient-2"/><linearGradient id="linear-gradient-5" x1="-909.53" y1="566.15" x2="-926.54" y2="660.79" gradientTransform="translate(1723.62)" xlink:href="#linear-gradient-2"/><linearGradient id="linear-gradient-6" x1="857.47" y1="607.33" x2="858.94" y2="555.19" gradientTransform="matrix(1, 0, 0, 1, 0, 0)" xlink:href="#linear-gradient-2"/><linearGradient id="linear-gradient-7" x1="3174.99" y1="542.46" x2="3177.07" y2="654.28" gradientTransform="matrix(-1, 0, 0, 1, 3383.55, 0)" gradientUnits="userSpaceOnUse"><stop offset="0" stop-color="#09425d"/><stop offset="1" stop-color="#1a5191"/></linearGradient><linearGradient id="linear-gradient-8" x1="3217.23" y1="520.22" x2="3206.82" y2="375.06" xlink:href="#linear-gradient-7"/><linearGradient id="linear-gradient-9" x1="3194.38" y1="370.77" x2="3201.32" y2="424.25" xlink:href="#linear-gradient-7"/><linearGradient id="linear-gradient-10" x1="3226.16" y1="435.42" x2="3237.27" y2="341.65" xlink:href="#linear-gradient-7"/><linearGradient id="linear-gradient-11" x1="3291.3" y1="285.21" x2="3259.35" y2="362.3" xlink:href="#linear-gradient-7"/><linearGradient id="linear-gradient-12" x1="1856.43" y1="1776.73" x2="1919.41" y2="1571.13" gradientTransform="matrix(0.85, 0.52, -0.52, 0.85, -250.77, -2166.14)" xlink:href="#linear-gradient-7"/><linearGradient id="linear-gradient-13" x1="1715.83" y1="1967.98" x2="1774.57" y2="1967.98" gradientTransform="matrix(0.85, 0.52, -0.52, 0.85, -250.77, -2166.14)" xlink:href="#linear-gradient-7"/><linearGradient id="linear-gradient-14" x1="1861.32" y1="1778.23" x2="1924.3" y2="1572.63" gradientTransform="matrix(0.85, 0.52, -0.52, 0.85, -250.77, -2166.14)" xlink:href="#linear-gradient-7"/><linearGradient id="linear-gradient-15" x1="1783.39" y1="1967.98" x2="1793.04" y2="1967.98" gradientTransform="matrix(0.85, 0.52, -0.52, 0.85, -250.77, -2166.14)" xlink:href="#linear-gradient-7"/><linearGradient id="linear-gradient-16" x1="165.24" y1="175.8" x2="2088.9" y2="175.8" gradientUnits="userSpaceOnUse"><stop offset="0" stop-color="#079ed5"/><stop offset="0.99" stop-color="#670fb3"/></linearGradient></defs><g class="cls-1"><g id="BG"><path d="M1267.38,690.2a2.59,2.59,0,1,1,2.59-2.59,2.58,2.58,0,0,1-2.59,2.59"/><path d="M1267.38,706.91a2.59,2.59,0,1,1,2.59-2.58,2.57,2.57,0,0,1-2.59,2.58"/><path class="cls-2" d="M1282.18,698.37a2.59,2.59,0,1,1,2.58-2.58,2.59,2.59,0,0,1-2.58,2.58"/><path d="M1274.78,694.28a2.59,2.59,0,1,1,2.59-2.58,2.58,2.58,0,0,1-2.59,2.58"/><path d="M1274.78,702.64a2.59,2.59,0,1,1,2.59-2.58,2.58,2.58,0,0,1-2.59,2.58"/><path d="M1021.43,699.69h-3v5.46H1014V686.79h8.62c4.46,0,6.87,2.73,6.87,6.48A6,6,0,0,1,1026,699l3.75,6.19h-5.24Zm.63-9.28h-3.59v5.72h3.59a2.61,2.61,0,0,0,2.88-2.81A2.65,2.65,0,0,0,1022.06,690.41Z"/><path d="M1035.17,686.79h13.29v3.75h-8.78V694h8v3.75h-8v3.67h8.81v3.75h-13.32Z"/><path d="M1065.24,693.14a3.2,3.2,0,0,0-3.48-3c-2.52,0-3.8,1.39-3.8,4.3v2.88c0,2.65,1,4.57,3.8,4.57,2.12,0,3.46-1.21,3.54-2.92h-3.57v-3.64h8v2.6c0,4.58-3.36,7.57-8.08,7.57-5.45,0-8.2-3.67-8.2-8.28v-2.57c0-5.11,3.19-8.23,8.18-8.23s7.81,2.8,7.91,6.71Z"/><path d="M1080.08,705.15h-4.51V686.79h4.51Z"/><path d="M1093.3,705.51c-4.41,0-7.37-2.09-7.37-5.79v-.5h4.33v.37c0,1.54,1,2.49,3.07,2.49,1.86,0,3.09-.76,3.09-2.18a1.5,1.5,0,0,0-1.26-1.62l-4.59-1.16c-2.86-.7-4.32-2-4.32-5,0-3.65,2.59-5.74,6.94-5.74,4.12,0,6.74,2.22,6.74,5.58v.45h-4.17v-.32c0-1.23-.68-2.25-2.57-2.25-1.57,0-2.57.55-2.57,1.86a1.4,1.4,0,0,0,1.18,1.49l4.88,1.31c2.94.79,4.12,2.42,4.12,5C1100.8,703.18,1097.55,705.51,1093.3,705.51Z"/><path d="M1118.84,686.79v3.81h-5v14.55h-4.51V690.6h-4.95v-3.81Z"/><path d="M1124,686.79h13.29v3.75h-8.78V694h8v3.75h-8v3.67h8.81v3.75H1124Z"/><path d="M1150.46,699.69h-3v5.46H1143V686.79h8.62c4.46,0,6.87,2.73,6.87,6.48a6,6,0,0,1-3.41,5.69l3.75,6.19h-5.24Zm.63-9.28h-3.59v5.72h3.59a2.62,2.62,0,0,0,2.88-2.81A2.65,2.65,0,0,0,1151.09,690.41Z"/><path d="M1184.39,705.15l-6.87-10.73v10.73h-4.41V686.79h4.28l6.89,10.73V686.79h4.41v18.36Z"/><path d="M1202.82,705.51c-5.56,0-8.42-3.56-8.42-8.36v-2.36c0-4.8,2.86-8.36,8.42-8.36s8.41,3.56,8.41,8.36v2.36C1211.23,702,1208.38,705.51,1202.82,705.51Zm0-15.33c-2.62,0-3.91,1.75-3.91,4.37v2.84c0,2.62,1.29,4.37,3.91,4.37s3.91-1.75,3.91-4.37v-2.84C1206.73,691.93,1205.44,690.18,1202.82,690.18Z"/><path d="M1233,698.83l2.28-12h4.43l-4.4,18.36h-4.22l-3.62-12.82-3.62,12.82h-4.22l-4.4-18.36h4.43l2.28,12,3.43-12h4.2Z"/><rect class="cls-3" x="1001.61" y="672.01" width="300" height="47.73"/></g><g id="Layer_1" data-name="Layer 1"><path class="cls-4" d="M190.15,272.49q-22.07,0-39.21-8t-27-22a56.39,56.39,0,0,1-10.29-32.11h47.28A23.42,23.42,0,0,0,170,228.3a31.32,31.32,0,0,0,20.19,6.75,32.21,32.21,0,0,0,16.26-4,28.75,28.75,0,0,0,11.13-11.38,33.79,33.79,0,0,0,3.94-16.89,33.66,33.66,0,0,0-4-17,29.52,29.52,0,0,0-11.23-11.38,32.38,32.38,0,0,0-16.4-4.09,35.54,35.54,0,0,0-16.6,3.84,28.14,28.14,0,0,0-11.88,10.74l-43-8.08L127.1,68H256.55v39.3H167.2l-4.63,47.58h1.18q5-8.37,16.21-13.84a57.28,57.28,0,0,1,25.46-5.47q18.12,0,32.36,8.43a60.53,60.53,0,0,1,22.46,23.29q8.22,14.88,8.23,34.09,0,20.79-9.8,36.84a67.93,67.93,0,0,1-27.39,25.17Q213.7,272.49,190.15,272.49Z"/><path class="cls-5" d="M378.51,274.65q-26.4,0-45.52-12.56t-29.45-36.15q-10.35-23.59-10.25-56.79t10.4-56.4Q314,89.55,333,77.38t45.47-12.16q26.4,0,45.56,12.16t29.5,35.42q10.35,23.25,10.25,56.35,0,33.3-10.34,56.94t-29.41,36.1Q405,274.65,378.51,274.65Zm0-39.89q15.75,0,25.51-16.11t9.66-49.5q0-21.87-4.44-36.11t-12.31-21.23a26.91,26.91,0,0,0-18.42-7q-15.66,0-25.32,15.81t-9.75,48.52q-.1,22.17,4.28,36.74t12.37,21.73A26.8,26.8,0,0,0,378.51,234.76Z"/><path class="cls-5" d="M575.14,274.65q-26.4,0-45.52-12.56t-29.45-36.15q-10.35-23.59-10.25-56.79t10.4-56.4q10.29-23.2,29.35-35.37t45.47-12.16q26.4,0,45.56,12.16t29.5,35.42q10.35,23.25,10.25,56.35,0,33.3-10.35,56.94t-29.4,36.1Q601.64,274.65,575.14,274.65Zm0-39.89q15.75,0,25.51-16.11t9.66-49.5q0-21.87-4.44-36.11t-12.31-21.23a26.91,26.91,0,0,0-18.42-7q-15.66,0-25.32,15.81t-9.75,48.52q-.11,22.17,4.28,36.74t12.37,21.73A26.8,26.8,0,0,0,575.14,234.76Z"/></g><g id="Illustration"><path class="cls-6" d="M594.32,346c2.69-4,9.24-8.07,12.83-10.28,15.78-9.75,32.67-7.25,36.37-6.62,13.06,2.24,12,7.08,25.72,8.82,11,1.39,15.78-1.21,25,2.21a46.64,46.64,0,0,1,11,5.87Z"/><path class="cls-7" d="M754.73,449.46V693.69a13.09,13.09,0,0,1-.38,3.45c0,.11,0,.22-.05.33a13.17,13.17,0,0,1-5.7,7.43,13,13,0,0,1-6.79,2h-362a11.11,11.11,0,0,1-1.16-.1,11.89,11.89,0,0,1-2.86-.65,11.57,11.57,0,0,1-7.63-10.79V447.84a11.49,11.49,0,0,1,7.29-10.61,11.89,11.89,0,0,1,4.36-.79h362A12.89,12.89,0,0,1,754.73,449.46Z"/><rect class="cls-2" x="396.28" y="446.37" width="350.01" height="229.28" rx="16.21"/><rect class="cls-8" x="368.18" y="436.96" width="18.62" height="269.82" rx="9.3"/><rect class="cls-8" x="557.83" y="697.47" width="394.24" height="18.62" rx="9.3"/><path class="cls-8" d="M375.72,706.78h0a9.31,9.31,0,0,1,9.32-9.31H566.11a9.3,9.3,0,0,1,9.3,9.3h0a9.3,9.3,0,0,1-9.3,9.3H385A9.3,9.3,0,0,1,375.72,706.78Z"/><rect class="cls-9" x="391.93" y="703.22" width="22.29" height="6.63" rx="2.28"/><rect class="cls-9" x="424.36" y="703.22" width="22.29" height="6.63" rx="2.28"/><path class="cls-9" d="M459.87,706.13h1.2a1.31,1.31,0,0,1,1.31,1.31v8.64a0,0,0,0,1,0,0h-3.83a0,0,0,0,1,0,0v-8.64A1.31,1.31,0,0,1,459.87,706.13Z"/><path class="cls-9" d="M466.4,706.13h1.2a1.31,1.31,0,0,1,1.31,1.31v8.64a0,0,0,0,1,0,0h-3.83a0,0,0,0,1,0,0v-8.64A1.31,1.31,0,0,1,466.4,706.13Z"/><path class="cls-9" d="M473.1,706.13h1.2a1.31,1.31,0,0,1,1.31,1.31v8.64a0,0,0,0,1,0,0h-3.83a0,0,0,0,1,0,0v-8.64A1.31,1.31,0,0,1,473.1,706.13Z"/><path class="cls-9" d="M479.64,706.13h1.2a1.31,1.31,0,0,1,1.31,1.31v8.64a0,0,0,0,1,0,0h-3.83a0,0,0,0,1,0,0v-8.64A1.31,1.31,0,0,1,479.64,706.13Z"/><path class="cls-9" d="M486.17,706.13h1.2a1.31,1.31,0,0,1,1.31,1.31v8.64a0,0,0,0,1,0,0h-3.83a0,0,0,0,1,0,0v-8.64A1.31,1.31,0,0,1,486.17,706.13Z"/><path class="cls-9" d="M492.71,706.13h1.2a1.31,1.31,0,0,1,1.31,1.31v8.64a0,0,0,0,1,0,0H491.4a0,0,0,0,1,0,0v-8.64A1.31,1.31,0,0,1,492.71,706.13Z"/><path class="cls-9" d="M499.41,706.13h1.2a1.31,1.31,0,0,1,1.31,1.31v8.64a0,0,0,0,1,0,0H498.1a0,0,0,0,1,0,0v-8.64A1.31,1.31,0,0,1,499.41,706.13Z"/><path class="cls-9" d="M505.95,706.13h1.2a1.31,1.31,0,0,1,1.31,1.31v8.64a0,0,0,0,1,0,0h-3.83a0,0,0,0,1,0,0v-8.64A1.31,1.31,0,0,1,505.95,706.13Z"/><path class="cls-10" d="M729.67,697.47h50.45a0,0,0,0,1,0,0v2.32a5.07,5.07,0,0,1-5.07,5.07h-40.3a5.07,5.07,0,0,1-5.07-5.07v-2.32a0,0,0,0,1,0,0Z"/><path class="cls-11" d="M754.73,449.46V693.69a14.49,14.49,0,0,1-.3,3.63H595.68c-4.33-7.69-6.22-14.76-6.25-21.59-.13-30,35.93-53.33,59.69-68.5,9.38-6,19.51-10.35,27.86-17.92,30.38-27.53,5.11-73-1.05-105.61-3.31-17.55,1.84-29.41,8.91-37.29a47.21,47.21,0,0,1,12.95-10h44A12.89,12.89,0,0,1,754.73,449.46Z"/><circle class="cls-8" cx="880.6" cy="448.48" r="40.91" transform="translate(301.69 1249.39) rotate(-81.13)"/><path class="cls-6" d="M869.75,459.45l-20.63-9.1v-3l20.63-10.3v5l-14.21,6.59,14.21,5.83Z"/><path class="cls-6" d="M888.94,433.3l-11.32,30.37h-5.75l11.32-30.37Z"/><path class="cls-6" d="M891,454.48l14.21-5.83L891,442.06v-5l20.63,10.3v3L891,459.45Z"/><rect class="cls-8" x="407.82" y="391.23" width="372.99" height="269.48" rx="19.41"/><path class="cls-12" d="M771.24,420.69H417.4a5,5,0,0,0-5,5V641.12A14.85,14.85,0,0,0,427.24,656H761.4a14.85,14.85,0,0,0,14.86-14.85V425.7A5,5,0,0,0,771.24,420.69Z"/><circle class="cls-13" cx="437.08" cy="406.4" r="7.9" transform="translate(-159.35 428.09) rotate(-45)"/><circle class="cls-14" cx="457.14" cy="406.4" r="7.9" transform="translate(-17.24 792.54) rotate(-80.78)"/><circle class="cls-14" cx="477.21" cy="406.4" r="7.9" transform="translate(-27.96 777.47) rotate(-76.72)"/><path class="cls-15" d="M780.82,420.69V641.28a19.57,19.57,0,0,1-19.39,19.59H673.09s52.13-66.66,27.69-132.93,51.35-107.05,51.35-107.05Z"/><path class="cls-12" d="M757.43,406.73c0,2.35-1.78,4-4.51,4H502.09c-2.72,0-4.74-1.7-4.74-4v-3.89a4.44,4.44,0,0,1,4.74-4.24H752.92a4.23,4.23,0,0,1,4.51,4.24Z"/><rect class="cls-7" x="429.18" y="436.12" width="118.61" height="201.45" rx="4.25"/><path class="cls-7" d="M750.71,518.1H566.62a5.07,5.07,0,0,1-5.07-5.07V440.54a5.07,5.07,0,0,1,5.07-5.07H750.71a5.08,5.08,0,0,1,5.08,5.07V513A5.08,5.08,0,0,1,750.71,518.1Zm-184.09-81a3.43,3.43,0,0,0-3.43,3.42V513a3.44,3.44,0,0,0,3.43,3.43H750.71a3.44,3.44,0,0,0,3.43-3.43V440.54a3.43,3.43,0,0,0-3.43-3.42Z"/><path class="cls-7" d="M750.84,638.6H566.73c-2.81,0-5.18-3-5.18-6.51V538.43c0-3.4,2.32-6.17,5.18-6.17H750.84c2.82,0,4.95,2.65,4.95,6.17v93.66C755.79,635.68,753.57,638.6,750.84,638.6ZM566.73,533.91c-2,0-3.54,2-3.54,4.52v93.66c0,2.54,1.69,4.86,3.54,4.86H750.84c1.79,0,3.3-2.23,3.3-4.86V538.43c0-2.58-1.42-4.52-3.3-4.52Z"/><rect class="cls-6" x="442.04" y="451.93" width="39.84" height="5.27" rx="2.6"/><rect class="cls-6" x="487.8" y="451.93" width="39.84" height="5.27" rx="2.6"/><rect class="cls-6" x="442.04" y="474.98" width="39.84" height="5.27" rx="2.6"/><rect class="cls-6" x="487.8" y="474.98" width="39.84" height="5.27" rx="2.6"/><rect class="cls-6" x="464.76" y="463.78" width="39.84" height="5.27" rx="2.6"/><path class="cls-6" d="M461.46,466.42a2.63,2.63,0,0,1-2.63,2.63H444.67a2.63,2.63,0,0,1-2.63-2.63h0a2.64,2.64,0,0,1,2.63-2.64h14.16a2.63,2.63,0,0,1,2.63,2.64Z"/><path class="cls-6" d="M529,466.42a2.63,2.63,0,0,1-2.63,2.63H512.16a2.63,2.63,0,0,1-2.63-2.63h0a2.64,2.64,0,0,1,2.63-2.64h14.16a2.63,2.63,0,0,1,2.63,2.64Z"/><rect class="cls-6" x="442.04" y="589.54" width="39.84" height="5.27" rx="2.6"/><rect class="cls-6" x="487.8" y="589.54" width="39.84" height="5.27" rx="2.6"/><rect class="cls-6" x="442.04" y="613.25" width="39.84" height="5.27" rx="2.6"/><rect class="cls-6" x="487.8" y="613.25" width="39.84" height="5.27" rx="2.6"/><rect class="cls-6" x="464.76" y="602.05" width="39.84" height="5.27" rx="2.6"/><path class="cls-6" d="M461.46,604.69a2.63,2.63,0,0,1-2.63,2.63H444.67a2.63,2.63,0,0,1-2.63-2.63h0a2.64,2.64,0,0,1,2.63-2.64h14.16a2.63,2.63,0,0,1,2.63,2.64Z"/><path class="cls-6" d="M529,604.69a2.63,2.63,0,0,1-2.63,2.63H512.16a2.63,2.63,0,0,1-2.63-2.63h0a2.64,2.64,0,0,1,2.63-2.64h14.16a2.63,2.63,0,0,1,2.63,2.64Z"/><rect class="cls-7" x="569.74" y="540.91" width="86.03" height="22.31" rx="4.25"/><rect class="cls-7" x="569.74" y="572.43" width="86.03" height="22.31" rx="4.25"/><rect class="cls-7" x="569.74" y="603.94" width="86.03" height="22.31" rx="4.25"/><rect class="cls-7" x="662.15" y="540.91" width="86.03" height="22.31" rx="4.25"/><rect class="cls-7" x="662.15" y="572.43" width="86.03" height="22.31" rx="4.25"/><rect class="cls-7" x="662.15" y="603.94" width="86.03" height="22.31" rx="4.25"/><rect class="cls-8" x="436.44" y="496.05" width="101.07" height="74.07" rx="4.25"/><circle class="cls-7" cx="584.08" cy="453.11" r="6.2"/><path class="cls-7" d="M741.63,453.58a2.63,2.63,0,0,1-2.63,2.63H605a2.63,2.63,0,0,1-2.63-2.63h0a2.64,2.64,0,0,1,2.63-2.64H739a2.64,2.64,0,0,1,2.63,2.64Z"/><circle class="cls-7" cx="584.08" cy="476.83" r="6.2" transform="translate(-166.1 552.67) rotate(-45)"/><path class="cls-7" d="M741.63,477.28a2.63,2.63,0,0,1-2.63,2.63H605a2.63,2.63,0,0,1-2.63-2.63h0a2.63,2.63,0,0,1,2.63-2.63H739a2.63,2.63,0,0,1,2.63,2.63Z"/><circle class="cls-7" cx="584.08" cy="500.55" r="6.2" transform="translate(-37.28 954) rotate(-76.72)"/><path class="cls-7" d="M741.63,501a2.64,2.64,0,0,1-2.63,2.64H605a2.64,2.64,0,0,1-2.63-2.64h0a2.63,2.63,0,0,1,2.63-2.63H739a2.63,2.63,0,0,1,2.63,2.63Z"/><path class="cls-6" d="M481.38,548.92l17.37-10a4.41,4.41,0,0,0,0-7.63l-17.37-10a4.76,4.76,0,0,0-4.6,0,4.6,4.6,0,0,0-2.39,3.81v20.06a4.58,4.58,0,0,0,2.39,3.81A4.76,4.76,0,0,0,481.38,548.92Z"/><path class="cls-8" d="M824.23,511.56c0,6.37-6,11.54-13.32,11.54H581.72c-7.35,0-13.31-5.17-13.31-11.54V374.45c0-6.38,6-11.54,13.31-11.54H810.91c7.36,0,13.32,5.16,13.32,11.54Z"/><path class="cls-12" d="M817.66,380.42H575a3.23,3.23,0,0,0-3.44,3V511.45c0,4.88,4.57,8.83,10.19,8.83H810.91c5.63,0,10.19-3.95,10.19-8.83v-128A3.23,3.23,0,0,0,817.66,380.42Z"/><circle class="cls-14" cx="783.43" cy="371.57" r="4.97"/><circle class="cls-14" cx="796.04" cy="371.57" r="4.97"/><circle class="cls-14" cx="808.65" cy="371.57" r="4.97"/><rect class="cls-7" x="585.83" y="398.44" width="119.59" height="4.98" rx="2.44"/><path class="cls-7" d="M739.68,400.93a2.5,2.5,0,0,1-2.49,2.5H713.93a2.5,2.5,0,0,1-2.49-2.5h0a2.5,2.5,0,0,1,2.49-2.49h23.26a2.5,2.5,0,0,1,2.49,2.49Z"/><path class="cls-7" d="M772.51,400.93a2.49,2.49,0,0,1-2.49,2.5H746.77a2.49,2.49,0,0,1-2.49-2.5h0a2.49,2.49,0,0,1,2.49-2.49H770a2.49,2.49,0,0,1,2.49,2.49Z"/><path class="cls-7" d="M614.07,412.35a2.5,2.5,0,0,1-2.5,2.5H588.32a2.49,2.49,0,0,1-2.49-2.5h0a2.49,2.49,0,0,1,2.49-2.49h23.25a2.5,2.5,0,0,1,2.5,2.49Z"/><path class="cls-7" d="M648.53,412.35a2.49,2.49,0,0,1-2.49,2.5H622.79a2.5,2.5,0,0,1-2.5-2.5h0a2.5,2.5,0,0,1,2.5-2.49H646a2.49,2.49,0,0,1,2.49,2.49Z"/><path class="cls-7" d="M688.81,425.43a2.49,2.49,0,0,1-2.49,2.5H663.07a2.5,2.5,0,0,1-2.5-2.5h0a2.5,2.5,0,0,1,2.5-2.49h23.25a2.49,2.49,0,0,1,2.49,2.49Z"/><path class="cls-7" d="M731.58,412.35a2.49,2.49,0,0,1-2.49,2.5H665.76a2.5,2.5,0,0,1-2.49-2.5h0a2.5,2.5,0,0,1,2.49-2.49h63.33a2.49,2.49,0,0,1,2.49,2.49Z"/><path class="cls-7" d="M654.34,425.43a2.49,2.49,0,0,1-2.49,2.5H588.53a2.49,2.49,0,0,1-2.49-2.5h0a2.49,2.49,0,0,1,2.49-2.49h63.32a2.49,2.49,0,0,1,2.49,2.49Z"/><rect class="cls-7" x="585.83" y="472.77" width="119.59" height="4.98" rx="2.44"/><path class="cls-7" d="M739.68,475.27a2.5,2.5,0,0,1-2.49,2.49H713.93a2.5,2.5,0,0,1-2.49-2.49h0a2.5,2.5,0,0,1,2.49-2.5h23.26a2.5,2.5,0,0,1,2.49,2.5Z"/><path class="cls-7" d="M614.07,486.68a2.5,2.5,0,0,1-2.5,2.5H588.32a2.49,2.49,0,0,1-2.49-2.5h0a2.49,2.49,0,0,1,2.49-2.49h23.25a2.5,2.5,0,0,1,2.5,2.49Z"/><path class="cls-7" d="M648.53,486.68a2.49,2.49,0,0,1-2.49,2.5H622.79a2.5,2.5,0,0,1-2.5-2.5h0a2.5,2.5,0,0,1,2.5-2.49H646a2.49,2.49,0,0,1,2.49,2.49Z"/><path class="cls-7" d="M688.81,499.77a2.49,2.49,0,0,1-2.49,2.49H663.07a2.5,2.5,0,0,1-2.5-2.49h0a2.5,2.5,0,0,1,2.5-2.5h23.25a2.49,2.49,0,0,1,2.49,2.5Z"/><path class="cls-7" d="M725.56,499.77a2.49,2.49,0,0,1-2.49,2.49H699.82a2.5,2.5,0,0,1-2.5-2.49h0a2.5,2.5,0,0,1,2.5-2.5h23.25a2.49,2.49,0,0,1,2.49,2.5Z"/><path class="cls-7" d="M731.58,486.68a2.49,2.49,0,0,1-2.49,2.5H665.76a2.5,2.5,0,0,1-2.49-2.5h0a2.5,2.5,0,0,1,2.49-2.49h63.33a2.49,2.49,0,0,1,2.49,2.49Z"/><path class="cls-7" d="M654.34,499.77a2.49,2.49,0,0,1-2.49,2.49H588.53a2.49,2.49,0,0,1-2.49-2.49h0a2.49,2.49,0,0,1,2.49-2.5h63.32a2.49,2.49,0,0,1,2.49,2.5Z"/><path class="cls-7" d="M765.74,499.77a2.5,2.5,0,0,1-2.49,2.49H699.92a2.49,2.49,0,0,1-2.49-2.49h0a2.49,2.49,0,0,1,2.49-2.5h63.33a2.5,2.5,0,0,1,2.49,2.5Z"/><rect class="cls-7" x="585.83" y="443.5" width="119.59" height="4.98" rx="2.44"/><path class="cls-7" d="M614.27,458.86a2.48,2.48,0,0,1-2.49,2.49H588.53a2.48,2.48,0,0,1-2.49-2.49h0a2.49,2.49,0,0,1,2.49-2.49h23.25a2.49,2.49,0,0,1,2.49,2.49Z"/><path class="cls-7" d="M794.36,458.86a2.49,2.49,0,0,1-2.49,2.49H768.61a2.49,2.49,0,0,1-2.49-2.49h0a2.5,2.5,0,0,1,2.49-2.49h23.26a2.5,2.5,0,0,1,2.49,2.49Z"/><path class="cls-7" d="M689.64,458.86a2.48,2.48,0,0,1-2.49,2.49H623.82a2.49,2.49,0,0,1-2.49-2.49h0a2.5,2.5,0,0,1,2.49-2.49h63.33a2.49,2.49,0,0,1,2.49,2.49Z"/><path class="cls-7" d="M761.69,458.86a2.49,2.49,0,0,1-2.49,2.49H695.87a2.48,2.48,0,0,1-2.49-2.49h0a2.49,2.49,0,0,1,2.49-2.49H759.2a2.5,2.5,0,0,1,2.49,2.49Z"/><path class="cls-15" d="M824.23,380.42V511.55c0,6.36-6,11.64-13.29,11.64H750.35s35.74-39.62,19-79,35.22-63.63,35.22-63.63Z"/><path class="cls-16" d="M540.57,536.84s1.16-16.9-11.87-14.22c-4.37.9-7.75,3.54-10.79,6.89-3.71,4.07-3.06,9.33-2.52,14.51,1,9,8.71,32.81,4.07,40.37-6.28,10.22-4.26,24-1.63,26.43,10.56,9.65,2.17-12.55,8.92-19.41S542.56,549.39,540.57,536.84Z"/><path d="M546.8,554.67c-2.34-4.95-4.56-2.31-5.75-.38-2.08,3.33,3.11,23.64,7.12,26.68s16.31-7.81,16.31-7.81l3-6.29s-13.9,8.4-16.62,7.2S549.14,559.61,546.8,554.67Z"/><path d="M545.8,552.84c-.87-2.73-8.7-5.84-10.31-5.87s-8.32,2.73-11.52,4.36c-7,3.54-1.51,15.77-1.51,22.71,0,7.47-2.08,23.8-3,32-.12,1.1,19-13.48,23.4-14.83,3-.93-.5-4.48,4.93-14,3-5.31.18-17.09-1-20.81C545.85,553.36,546.67,555.56,545.8,552.84Z"/><path class="cls-17" d="M547.28,606s2.35,20,.66,39c-.79,9-8.36,33.71-8.8,48.67-1.23-.31-.68-.46-1.9-.77,1.53-15.63-1.56-21.19.22-32a86.86,86.86,0,0,1,4.83-16.54c-1-10.63-5.6-13.56-6.18-29.89C538.14,613.17,547.28,606,547.28,606Z"/><path class="cls-18" d="M531.3,587.87c-3-1.27-6.68,4.65-9.43,11.35-1.15,2.8-2.55,12.34-1,23.48l2.4,17c-3.2,1.58-4,1.84-7.51,7s-3.86,25.42-11.34,35.77c-1.09,1.5-2.06,2.65-2.68,3.35l2.3,1.46c9-11.85,18.42-33.62,27.38-45.47,2.71-20.17,1.82-28.11,2.38-40.53C534.07,595.74,533.68,588.89,531.3,587.87Z"/><path class="cls-17" d="M504.43,686.88a11,11,0,0,0-1-2.75c-.42-.37-2.9.29-3.42,1.52-.62,1.46,4.07,8.39,7.44,8.9C507.85,694.37,504.43,686.88,504.43,686.88Z"/><path d="M519.47,604.31c.2-6.69.89-12,8.45-19.88.41-.25,14.41.88,16.17,1.53.08,0,4-5,4.08-5,1.67,9.46-.39,25.48,1.14,47.13a68.14,68.14,0,0,0-12,1.85,55.66,55.66,0,0,1-16.16,1.35S519.26,611.76,519.47,604.31Z"/><path class="cls-17" d="M539.5,693.17a11,11,0,0,0-2.59-1.36c-.56,0-1.95,2.16-1.52,3.42s10,2.61,11.49,1.6C547.06,696.43,539.5,693.17,539.5,693.17Z"/><path class="cls-19" d="M531.28,537.19l5.43.87,3.95,11.32s1.46,3.23-2.28,3.15-6.72-4.66-6.72-4.66S531.6,543,531.28,537.19Z"/><path class="cls-20" d="M540.7,530.08c2.23,3.87,3.38,9.61.45,10.84-4.95,2.09-9.53-1.61-9.53-1.61s-3.49.75-4.66-1.86,2.84-2.21,2.84-2.21c.39-1.53-.3-3.36-.55-5.62a5.14,5.14,0,0,1,4.47-5.4C536.33,524,538.47,526.2,540.7,530.08Z"/><circle class="cls-21" cx="659.72" cy="487.16" r="58.63" transform="translate(159.42 1136.97) rotate(-88.85)"/><rect class="cls-22" x="586.35" y="516.25" width="11.07" height="68.07" transform="translate(592.22 1358.45) rotate(-132.94)"/><rect class="cls-22" x="522.56" y="561.31" width="97.6" height="16.14" rx="5.26" transform="translate(-234.79 541.76) rotate(-42.94)"/><path class="cls-22" d="M614.64,529.1a61.59,61.59,0,1,1,42.87,19.59A61.18,61.18,0,0,1,614.64,529.1Zm7.15-82.71a55.68,55.68,0,1,0,39.94-14.88A55.35,55.35,0,0,0,621.79,446.39Z"/><path class="cls-20" d="M561.62,574.84s2-3,4.22-3.38,1.36.29,1,1,5.46-3.4,6.24-2-1.81,6.14-4.13,7.28-7.31,1.61-7.31,1.61Z"/><path d="M528.4,554.75c-2.73-4.24-4.55-3.49-6.57-1.92s-.89,7.62,1.33,12.21,7.77,18.91,9.56,20.89,16-3,29.91-6.15l-1-5.84c-13.42,1.91-20.73,6.76-24.35,4.28S531.12,559,528.4,554.75Z"/><path d="M519.47,604.31s-3.37,27.12-6.93,41.12c-1.59,6.26-4.74,33.22-21.14,41,0,0,15.64,8.63,26.43,7.29s24.5-1.86,24.5-1.86-.46-14.75,2.63-25.29,4.69-22.9,4.35-38.42C549,616.23,519.47,604.31,519.47,604.31Z"/><path class="cls-16" d="M529,530.12s2.39,9.7,9.48,10.5c2.66.3,3.82-.7,3.82-.7s-1.83,5.65-1.37,8.35a55.79,55.79,0,0,0,1.37,5.65s-.9,3.07-5.43.09a21.45,21.45,0,0,1-6.61-6.79s-7.51-10.13-6-11.8S529,530.12,529,530.12Z"/><path class="cls-2" d="M383,372.23,382,389.49a5,5,0,0,0,4.69,5.25l4.66.25A38.42,38.42,0,0,0,397,406.17l-2.55,3.91A5,5,0,0,0,396,417l14.49,9.41a5,5,0,0,0,6.88-1.46l2.55-3.91a37.87,37.87,0,0,0,6.08.82,39,39,0,0,0,5.83-.11l2.06,4.18a5,5,0,0,0,6.67,2.26l15.5-7.64a5,5,0,0,0,2.26-6.66l-2.06-4.19a38.69,38.69,0,0,0,7.08-10.7l4.65.26a5,5,0,0,0,5.25-4.7l.95-17.26a5,5,0,0,0-4.69-5.24l-4.66-.26a38.49,38.49,0,0,0-5.68-11.17l2.54-3.92a5,5,0,0,0-1.46-6.88l-14.49-9.42a5,5,0,0,0-6.89,1.47l-2.54,3.91a38.33,38.33,0,0,0-11.91-.71l-2.06-4.18a5,5,0,0,0-6.67-2.26l-15.5,7.64a5,5,0,0,0-2.26,6.66l2.06,4.19a38.69,38.69,0,0,0-7.08,10.7l-4.65-.26A5,5,0,0,0,383,372.23Zm45.72.26a10.91,10.91,0,1,1-11.49,10.29A10.9,10.9,0,0,1,428.67,372.49Z"/><path class="cls-12" d="M436.1,355a29.3,29.3,0,0,1,17.84,42.15.81.81,0,0,1-1.07.32.79.79,0,0,1-.32-1.08A27.72,27.72,0,1,0,415,407.64a.78.78,0,0,1,.32,1.07.79.79,0,0,1-1.07.32,29.31,29.31,0,0,1,21.88-54Z"/><path class="cls-12" d="M420.2,355.15a.78.78,0,0,1,.54.53.79.79,0,0,1-.53,1,27.73,27.73,0,1,0,34.51,18.63.78.78,0,0,1,.53-1,.79.79,0,0,1,1,.53,29.32,29.32,0,1,1-36.48-19.7A.82.82,0,0,1,420.2,355.15Z"/><path class="cls-12" d="M434.84,359.49a24.67,24.67,0,0,1,15,35.47.8.8,0,0,1-1.08.32.79.79,0,0,1-.32-1.07,23.08,23.08,0,1,0-31.28,9.34.79.79,0,0,1-.75,1.4,24.67,24.67,0,0,1,18.41-45.46Z"/><path class="cls-2" d="M368.4,404.62l-1.64,2.52a24.41,24.41,0,0,0-3.86-.55,25.4,25.4,0,0,0-3.71.1L357.86,404a3.18,3.18,0,0,0-4.26-1.45l-9.89,4.88a3.18,3.18,0,0,0-1.45,4.25l1.32,2.68a24.51,24.51,0,0,0-4.49,6.83l-3-.17a3.19,3.19,0,0,0-3.35,3l-.61,11a3.18,3.18,0,0,0,3,3.34l3,.17a24.18,24.18,0,0,0,3.6,7.13l-1.63,2.5a3.18,3.18,0,0,0,.94,4.39l9.25,6a3.17,3.17,0,0,0,4.39-.93l1.64-2.52a24.54,24.54,0,0,0,3.87.55,25.4,25.4,0,0,0,3.71-.1l1.33,2.7a3.17,3.17,0,0,0,4.25,1.44l9.9-4.88a3.17,3.17,0,0,0,1.44-4.25l-1.32-2.68a24.4,24.4,0,0,0,4.5-6.83l3,.17a3.17,3.17,0,0,0,3.34-3l.61-11a3.17,3.17,0,0,0-3-3.34l-3-.17a24.67,24.67,0,0,0-3.6-7.13l1.62-2.5a3.17,3.17,0,0,0-.93-4.39l-9.25-6A3.18,3.18,0,0,0,368.4,404.62Zm.1,26.9a7,7,0,1,1-6.57-7.34A7,7,0,0,1,368.5,431.52Z"/><path class="cls-12" d="M366.48,414a18.12,18.12,0,0,1,3.67,1.49,17.86,17.86,0,0,1,7.22,24.17.79.79,0,0,1-1.4-.75,16.25,16.25,0,1,0-22,6.58.78.78,0,0,1,.32,1.07.8.8,0,0,1-1.07.32A17.84,17.84,0,0,1,366.48,414Z"/><path class="cls-23" d="M358.1,417.77a.8.8,0,0,1,0,1.53,12.43,12.43,0,0,0-8.36,15.46,12.43,12.43,0,1,0,23.82-7.11.79.79,0,1,1,1.52-.45,14,14,0,1,1-17.44-9.42A.82.82,0,0,1,358.1,417.77Z"/><rect class="cls-24" x="931.81" y="690.96" width="0.39" height="2.9"/><rect class="cls-24" x="930.82" y="690.96" width="0.39" height="2.9"/><path class="cls-24" d="M930.28,693.86a1.38,1.38,0,0,1,2.38,0Z"/><path class="cls-8" d="M939.73,686.05a7,7,0,0,1,3.34-.85c.38,0,3,0,3.31,1.2a1.44,1.44,0,0,1-.8,1.62c-.71.23-1.26-.67-2.54-1.2a5.54,5.54,0,0,0-3.14-.22Z"/><path class="cls-8" d="M939.39,684.45c1.88.08,1.71.09,2.92-.63.31-.18,2.4-1.42,3.25-.63a1.36,1.36,0,0,1,.14,1.7c-.46.53-1.34.06-2.63.26a5.11,5.11,0,0,0-2.63,1.34Z"/><path class="cls-8" d="M940,685.89a6,6,0,0,1,2.83.83c.28.17,2.18,1.31,1.91,2.34a1.24,1.24,0,0,1-1.3.84c-.62-.14-.63-1-1.35-2s-1.19-1.46-2.15-.9Z"/><path class="cls-8" d="M942.11,684.45s-5.35.16-8.05-2.06-4.5-5.51-7.13-7.12c-2.2-1.35-4.62-1.57-5.81.12a1.79,1.79,0,0,0,0,1.91,6.74,6.74,0,0,1,3.3,5c.44,3.3,2.2,8.94,8,9.14,4.08.14,6.65-4.22,8-4.59S942.11,684.45,942.11,684.45Z"/><path class="cls-24" d="M921.35,675.08a2.6,2.6,0,0,1-.21,2.22,6.14,6.14,0,0,1-2.56-1.07A5.49,5.49,0,0,1,921.35,675.08Z"/><path class="cls-8" d="M922.8,675a.35.35,0,1,0,.42-.25A.34.34,0,0,0,922.8,675Z"/><path class="cls-8" d="M928.38,679.45s-4.54,8.74,4,10.11c2.2.36,2.22-.91,1.92-1.34a3.11,3.11,0,0,0-1.23-.78s1.94.4,2.26-.44-2.06-1.34-2.06-1.34,2.28.27,2-.71-2.89-.85-4.06-1.66S928.27,680.69,928.38,679.45Z"/><polygon class="cls-25" points="647.54 353.4 680.57 364.98 702.78 348.17 644.74 350.4 647.54 353.4"/><polyline class="cls-25" points="647.14 354.17 699.52 349.76 692.89 317.44 645.34 352.77"/><path class="cls-25" d="M649.59,353.47s41.1-29,41.1-29.64,5.55-14.13,5.55-14.13l-22.33-5.84-29.17,49.61Z"/><polygon class="cls-25" points="653.64 352.74 678.1 297.92 652.07 298.04 647.54 353.4 653.64 352.74"/><polygon class="cls-25" points="642.95 350 634.99 298.63 655.25 290.51 648.7 351.36 642.95 350"/><polygon class="cls-25" points="647.55 349.58 642.95 351.87 618.87 305.47 635.55 292.67 647.55 349.58"/><polygon class="cls-25" points="644.74 354.17 606.84 321.48 620.5 306.4 645.81 348.82 644.74 354.17"/><polygon class="cls-25" points="644.74 354.17 609.03 341.61 602.63 327.53 610.84 319.43 644.74 348.32 644.74 354.17"/><polygon class="cls-8" points="630.69 323.83 634.65 315.48 639.15 316.65 641.96 339.87 647.55 350.3 653.24 356.58 652.4 356.73 651.42 365.73 654.3 367.13 654.3 367.98 649.64 366.97 644.36 370.31 640.47 368.68 642.34 366.04 648.78 364.98 650.48 357.08 650.34 357.11 648.71 354.04 647.08 354.46 643.27 363.13 645.81 364.98 642.57 364.25 637.44 367.67 633.79 367.05 633.79 363.63 641.72 363.13 644.24 355.07 634.57 347.4 633.79 332.96 637.91 322.27 630.69 325.27 630.69 323.83"/><path class="cls-22" d="M770.44,613.6l-45.22-.6a2.55,2.55,0,0,1-2.51-2.5l-.57-28.06a2.54,2.54,0,0,1,2.51-2.6l47.49-.6a2.55,2.55,0,0,1,2.58,2.69L773,611.2A2.54,2.54,0,0,1,770.44,613.6Z"/><path class="cls-22" d="M750.73,600.43h-8.24c-1.32,0-1.5,1.36-2,2.48-2.68,6.67-6,12.53-5.11,14.86.44,1.11,2,1.62,4.59,1.62s12.51-.16,14.11-.16,2.6.08,3.15-.39c1.34-1.54-1.62-1.92-4-1.92s-5.15-.06-5.53-.7S752.88,600.43,750.73,600.43Z"/><polygon class="cls-26" points="734.43 686.52 728.65 693.9 732.88 692.39 737.15 688.41 734.43 686.52"/><path class="cls-8" d="M730.08,693.37a11.13,11.13,0,0,1,2.8-1c.56.08,1.64,2.45,1,3.65s-10.38,1.15-11.75-.09C722,695.52,730.08,693.37,730.08,693.37Z"/><rect class="cls-8" x="805.01" y="659.07" width="3.13" height="33.48"/><path class="cls-8" d="M785.47,696.85a8.65,8.65,0,0,1,2.58-4.42c3.29-2.84,7.78-1.39,14.38-1.29,9.28.14,8.46-2.6,15.3-2,10.33.86,19.72,7.74,19.72,7.74h-52Z"/><polygon class="cls-26" points="764.12 688 765.94 691.72 767.92 690.37 765.93 686.76 764.12 688"/><path class="cls-27" d="M812.69,575.42s23.06-2.06,32.19,19c17.94,41.28-22.61,87.73-68.07,54.92-9.56-6.9,23.84-36.74,23.84-36.74Z"/><path class="cls-28" d="M808.51,577.24s13,2.78,19.35,25.35c11.37,40.69-17.87,63-54.37,41.44,25.32-8.18,31.83-35.64,31.83-35.64Z"/><path class="cls-26" d="M796.69,594.06l-6.81,19.07-15.33,3.65-6.25-.38a6.1,6.1,0,0,0-4.07,1.24L762.44,619a.37.37,0,0,0-.13.41.38.38,0,0,0,.35.25l12.37-.1,20.7-1.16s1.92-4.88,8-23.48A15.47,15.47,0,0,1,796.69,594.06Z"/><path class="cls-8" d="M765.43,692a11.15,11.15,0,0,1,2.49-1.62c.56,0,2.16,2,1.84,3.31s-9.82,3.56-11.44,2.68C758.1,696,765.43,692,765.43,692Z"/><path class="cls-8" d="M831.44,598.33s11.62,14.36,11.81,16.42c-6.29-.78-29,1.28-29,1.28s-8.16-1.57-9,3.64c4.33.1,10.33-.2,10.33-.2,1.14.07,3,.19,5.26.37,0,0,28.65,4.37,31,2.34s-1.34-8.68-10-24.1Z"/><path class="cls-29" d="M841.62,595.84h0c-2.07-4.32-6.41-12.74-10.1-15.65a3.17,3.17,0,0,0-.35-.45c-6-5.73-9.8-6.51-9.8-6.51l-8.61-2.57s-.55.39-1.43,1.16c-3.15.45-11.24,3.45-15.32,22.28,0,0-6.56,15.85-6.74,18l-13.65,4.42,1.38,2.87,9.5-.5c.3,1,2,8-8.74,9.16-11.55,1.22-29.5,2.05-31.89,8.55-.85,2.31.48,10.54,2.55,20.17-7.24,13.61-16,30.25-16,30.25s.13,9,21.29,9.38l16.09-9.88s-2.8-9.54-5.25-19.84c2.18-9.49,4.4-17.91,5.67-19.27,3.09-3.34,28.86,3.87,38.63-4.57,8.57-7.4,8.68-15.73,9.26-20.78l1.36-2.72c7.24-.23,22.13-.53,24.34.61,2.94,1.51,2.79,3.72,2.79,3.72s5.1,1.42,7.39-2C855.32,619.63,841.62,595.84,841.62,595.84Zm-49,22.74c-.06.19-.11.38-.16.55l-4.88-.29Zm28.79-3.29c2.34-5,5.12-11.21,7.29-17.13a46.15,46.15,0,0,0,3.13,4.89l8,10.25Z"/><path class="cls-26" d="M804.09,550.85s-1.33,11.26,3.27,15.54a5.49,5.49,0,0,0,2.78,1.34l-.63,4.3s-3.43,1.87-1.13,4c4.83,4.53,12-3,12-3s-2.52-1.26-3.16-8.91c0,0,4.94-7.65,4.94-10.39s-4.21-5.05-10-5.48C808.82,548.16,804.09,550.85,804.09,550.85Z"/><path class="cls-22" d="M814.77,542.12c-3,0-3.67,1.46-7.27,2.76-5.53,2-.53,1.4-1.1,2.93s-3.13,2.49-1.56,4c2.78,2.69,4.94-.32,6.65,1.72,1.15,1.38,1.22,3.66,1.87,3.58.23,0,.43-.26.57-.63.47-1.23.86-1.77,2.3-.68s.16,4.57.16,4.57-.51,5.63,1.21,5.19c2.4-.61,7.79-10.07,6.39-15.13C822.75,546,821.5,542.06,814.77,542.12Z"/><path class="cls-14" d="M709.34,696.77h0a1.59,1.59,0,0,1-1.16-1.93l17.33-69.6a1.59,1.59,0,0,1,1.93-1.16h0A1.59,1.59,0,0,1,728.6,626l-17.33,69.6A1.6,1.6,0,0,1,709.34,696.77Z"/><path class="cls-14" d="M724.17,619.2H839.46c6.54,0,7.61,3.45,6.81,5.66s-7.54,2.7-11.72,2.95c-22.48,1.34-46.65-1.77-62.14-2.58-33.15-1.72-56.24,5.6-59.42.55-.9-1.42-1.07-3.06,1.18-4.54C717.29,619.19,721.08,619.2,724.17,619.2Z"/><path class="cls-14" d="M844.76,696.77h0a1.6,1.6,0,0,0,1.16-1.93l-17.34-69.6a1.59,1.59,0,0,0-1.93-1.16h0a1.6,1.6,0,0,0-1.16,1.93l17.33,69.6A1.61,1.61,0,0,0,844.76,696.77Z"/><path class="cls-30" d="M802.34,552.1s4.74,3.14,13.91,2c0,0-.56,19,3.59,20.87s9.64,3.87,11.12,5.13c0,0-7.87-12-6.5-18a26.18,26.18,0,0,0-1.2-15.51C820.48,539,803.23,537.83,802.34,552.1Z"/><path d="M824.46,547.23a1,1,0,0,0-.66-.23,1.11,1.11,0,0,0-.34-.59,1.09,1.09,0,0,0-1.53.14c-3.84,4.55-10.84,3.13-14.13,2.51a4.33,4.33,0,0,1-3-2.56,1.09,1.09,0,0,0-1.41-.62,1.07,1.07,0,0,0-.62,1.4l.1.24a1.11,1.11,0,0,0-.86,0,1.09,1.09,0,0,0-.62,1.41,6.65,6.65,0,0,0,4.3,3.84l.31.07c.13,0,13.15,2.42,18.58-4A1.09,1.09,0,0,0,824.46,547.23Z"/><path class="cls-31" d="M858.76,551.83l-6.39,14s-.53,9.53,2.77,6.83,10.05-16.31,10.05-16.31Z"/><path class="cls-32" d="M838.7,553.28s12.17,29.36,17.69,17.45c0,0,.44-3.65-6.39-10.2s-9.57-11.63-9.57-11.63S836.64,548.82,838.7,553.28Z"/><path class="cls-32" d="M840.94,549.75s-.28-5.16-3.42-5.49-4.08-3.14-4-1.4a3.53,3.53,0,0,0,1.13,2.26,22.41,22.41,0,0,1-5.25-.74c-2.71-.73-4.29,2,.57,4.18s6.8,1.57,7.8,2.68S840.94,549.75,840.94,549.75Z"/><path class="cls-32" d="M896.72,581.94c-5.57-22.73-15.18,3.39-15.18,3.39s8.43,45.39,9.76,54.19c1.57,10.44,2.26,12.88,6.22,27.41,1.38,5.06,4.57,26.35,4.57,26.35l2.58.34c-1.52-19.06,4.67-42.35-3.21-51.66C900,631.81,902.28,604.67,896.72,581.94Z"/><path class="cls-32" d="M889.08,579.83c-3.35-.14-15.83.14-19.19,0-1.2,4.45-6.68,42-7.14,50.9a298.2,298.2,0,0,0,.64,35.9c.35,5.22-.77,26.72-.77,26.72l2.46.85c0-12.38,12.52-41.31,6.66-52C872.28,632,888.55,590.08,889.08,579.83Z"/><path class="cls-32" d="M877.39,524.64l6.75-3.39c.07.38.15.85.26,1.42.42,2.25,1.83,6.73,2.58,7.61,1,1.2-6.27,6.3-8.9,5.25S877.28,525.13,877.39,524.64Z"/><path class="cls-33" d="M862.17,693.67a12.58,12.58,0,0,1,3.16-1.11c.64.09,1.85,2.77,1.15,4.12s-11.72,1.3-13.27-.1C853.07,696.1,862.17,693.67,862.17,693.67Z"/><path class="cls-33" d="M901.69,693.4s2.39-1.45,3-1.42,2.12,2.57,1.55,4-11.52,2.46-13.21,1.22C892.87,696.73,901.69,693.4,901.69,693.4Z"/><path class="cls-32" d="M869.84,510.37c2-3.15,7.5-.89,11.24,1.46,2.85,1.79,4.85,5.46,4.1,8.68a5.72,5.72,0,0,1-.53,1.4l-5,4.52c-1.33,1.07-3.14,2.54-4.46,2.38-2.53-.3-5-5.73-5.6-8S868.18,513,869.84,510.37Z"/><path class="cls-32" d="M910,544.18c-.59,2.34-4,5-4.56,7.3,9.08,4.45,11.58,5.43,11.58,5.43s-2.55,9.34-20.55,21.23h0c-.61.27-1.69.88-1.69,1.85a46.19,46.19,0,0,1-.63,5.66c-.21.71.9,1.86.94.46,0-1.17,1,6.21,2.76,6.39s2.32-.25,2-2.13-1.23-8.52-.15-9.08c9.91-5.28,27.18-21,27.67-24.9C927.89,552.19,921.37,549.23,910,544.18Z"/><path class="cls-34" d="M878.18,513.62a53.1,53.1,0,0,0-7.47,2.38c-.78.34-1.86.68-2.37-1.48-1.2-5.12-2.09-5.07-.06-6.53,3.57-2.56,6.05-3.25,8.39-4.64s4.53,1.91,5.2,4.34c0,0,4.9-1,4.58,4s.08,12.2-2.05,10.94c0,0-1.62-2.6-.83-4.13s.17-3.72-.67-3.33-1.47,2.31-1.47,3.61-.56,2-.9.74S879.38,512.93,878.18,513.62Z"/><path d="M841.54,550l-2.84,3.27S847,574,852.43,574c4.36,0,12-14.16,12-14.16l3.27-6.53s1,20.6-2.49,40-4.57,97.41-4.57,97.41a31.75,31.75,0,0,0,26.19,4.45c15.17-4.07,20.65-5.33,20.65-5.33a61.53,61.53,0,0,0,1-32.5c-4.35-17.43-9.8-77.32-9.8-88.21A107.28,107.28,0,0,1,900.35,550s14.78,5.27,15.72,7.63c0,5.44-10.28,13.06-14.64,16.33,0,0-2.29,5.83,1.09,6.53,0,0,16.79-13.48,20.06-16.75s8.43-7.86,2.72-13c-4.92-4.43-33.79-20.63-38.32-20.48-1,2.72-7.17,5.69-8.9,5.25s-1.35-6-1.35-6-9.21,2.06-12.72,7.92c-3.27,5.44-6.14,14.79-6.14,14.79l-4.35,10.89Z"/><path class="cls-32" d="M896.47,578.14h0c-.61.27-1.69.88-1.69,1.85a46.19,46.19,0,0,1-.63,5.66c-.21.71.9,1.86.94.46,0-1.17,1,6.21,2.76,6.39s2.32-.25,2-2.13-1.23-8.52-.15-9.08c.74-.4,1.53-.85,2.35-1.36l.21-.13c-.92-1.22-2-2.27-2.34-4C898.84,576.54,897.69,577.33,896.47,578.14Z"/><path class="cls-30" d="M866.62,515.87s5.35,1.92,14-1.39c0,0,4,18.53,8.48,19.4s10.29,1.44,12,2.32c0,0-10.52-9.8-10.61-15.9a26.13,26.13,0,0,0-4.88-14.77C881.09,498.78,864.07,501.8,866.62,515.87Z"/><path class="cls-14" d="M886.93,505.85a1.07,1.07,0,0,0-.7-.07,1,1,0,0,0-.47-.48,1.09,1.09,0,0,0-1.46.49c-2.63,5.34-9.77,5.64-13.12,5.82a4.29,4.29,0,0,1-3.51-1.77,1.09,1.09,0,0,0-1.78,1.25l.16.21a1.08,1.08,0,0,0-1.11,1.68,6.63,6.63,0,0,0,5.09,2.7h.32c.13,0,13.35-.81,17.07-8.37A1.09,1.09,0,0,0,886.93,505.85Z"/><path class="cls-35" d="M270.21,700H140c-2.1,1.84-.82,4.18,1,4.18H271.22C273.32,702.34,272,700,270.21,700Z"/><path class="cls-2" d="M251.91,613.9H159.28a5.05,5.05,0,0,0-5.06,5.06v81H257V619A5.05,5.05,0,0,0,251.91,613.9Z"/><path class="cls-36" d="M245.05,604.87H166.13a5.06,5.06,0,0,0-5.06,5v4h89v-4A5.05,5.05,0,0,0,245.05,604.87Z"/><path class="cls-36" d="M194.48,578.22h22.23a12.66,12.66,0,0,1,12.66,12.66v14a0,0,0,0,1,0,0H181.82a0,0,0,0,1,0,0v-14A12.66,12.66,0,0,1,194.48,578.22Z"/><rect class="cls-37" x="167.21" y="618.32" width="8.3" height="81.68"/><rect class="cls-37" x="178.48" y="618.32" width="3.34" height="81.68"/><rect class="cls-37" x="183.18" y="618.32" width="3.34" height="81.68"/><rect class="cls-37" x="187.88" y="618.32" width="3.34" height="81.68"/><path class="cls-38" d="M128.05,502a2.91,2.91,0,0,0-.23,4l65.07,76a2.91,2.91,0,0,0,4.17.24l5.54-5.1-71.66-77.83Z"/><path class="cls-39" d="M137,477.56a5.88,5.88,0,0,0-8.22-.26l-5.84,5.38a5.87,5.87,0,0,0-.42,8.21l77.64,88.54,16.27-15a3.19,3.19,0,0,0,.13-4.57Z"/><rect class="cls-36" x="160.79" y="487.17" width="10.13" height="69.79" rx="4.65" transform="translate(-309.78 250.36) rotate(-42.64)"/><rect class="cls-40" x="164.69" y="487.17" width="2.34" height="69.79" transform="translate(-309.77 250.34) rotate(-42.64)"/><circle class="cls-36" cx="206.13" cy="572.48" r="20.74" transform="translate(-340.23 304.68) rotate(-44.09)"/><circle class="cls-23" cx="206.13" cy="572.48" r="15.84" transform="translate(-391.92 460.42) rotate(-59.58)"/><path class="cls-41" d="M127.16,482.5l4.09,4.45a2.34,2.34,0,0,0,3.36.08l57.1-56.5a2.35,2.35,0,0,0,.09-3.26L189.66,425Z"/><path class="cls-42" d="M192.88,407.49l4.31,4.69a4.72,4.72,0,0,1-.2,6.6L129,484.5l-12-13.07a2.58,2.58,0,0,1,.2-3.67l69.12-60.61A4.72,4.72,0,0,1,192.88,407.49Z"/><path class="cls-36" d="M173.19,423.37l-37.36,34.4a4.07,4.07,0,1,0,5.51,6l37.36-34.4a4.07,4.07,0,1,0-5.51-6Z"/><rect class="cls-40" x="156.32" y="414.1" width="1.88" height="58.92" transform="translate(-62.53 859.7) rotate(-132.64)"/><circle class="cls-36" cx="124.64" cy="478.54" r="16.66" transform="translate(-360.43 382.41) rotate(-64.19)"/><path class="cls-8" d="M116,469.18a12.72,12.72,0,1,0,18,.74A12.73,12.73,0,0,0,116,469.18Z"/><polygon class="cls-43" points="256.33 438 267.26 430.11 282.39 448.52 280.1 451.23 266.41 436.55 257.96 442.74 256.33 438"/><path class="cls-44" d="M244,435.39l-2.6,4.28c-1,1.72-2.95,2.49-4.27,1.74l-48.78-27.57,7.25-11.91A1.8,1.8,0,0,1,198,401l45.6,29.79C244.84,431.63,245,433.67,244,435.39Z"/><circle class="cls-36" cx="194.89" cy="408.49" r="13.07" transform="translate(-161.39 129.36) rotate(-26.42)"/><circle class="cls-8" cx="194.89" cy="408.49" r="9.99" transform="translate(-256.18 445.7) rotate(-69.21)"/><path class="cls-2" d="M298,397.29l-50.86,92.64c-1.75,3.17-1.76,6.84,0,8.2s4.54-.12,6.28-3.3a1.39,1.39,0,0,0,.11-.21l49-94c1.19-2.29,1.13-4.86-.14-5.74S299.23,395.11,298,397.29Z"/><rect class="cls-23" x="240.21" y="429.51" width="6" height="17.16" rx="2.18" transform="translate(261.17 -62.66) rotate(31.09)"/><polygon class="cls-45" points="249.38 449.64 247.69 463.01 271.11 467.46 272.38 464.15 252.94 459.18 254.32 448.8 249.38 449.64"/><path class="cls-46" d="M245.85,449.29A8.46,8.46,0,1,0,254.68,435Z"/><path class="cls-23" d="M241,446.33l-1.38,2.29a.91.91,0,0,0,.35,1.23l4.25,2.56a.9.9,0,0,0,1.25-.26l11-18.28a.91.91,0,0,0-.35-1.23l-4.25-2.56a.9.9,0,0,0-1.25.27l-1.27,2.1Z"/></g><g id="Contents"><path d="M788.06,98H776a10.45,10.45,0,0,0-1-3.36,8.19,8.19,0,0,0-2-2.56,8.61,8.61,0,0,0-2.91-1.63,11.46,11.46,0,0,0-3.71-.56,10.71,10.71,0,0,0-6.19,1.76,11.14,11.14,0,0,0-4,5.09,21.07,21.07,0,0,0-1.38,8.07,21.21,21.21,0,0,0,1.41,8.25,10.77,10.77,0,0,0,4,5,10.92,10.92,0,0,0,6.1,1.68,12.07,12.07,0,0,0,3.61-.51,8.59,8.59,0,0,0,2.87-1.48,8.19,8.19,0,0,0,2.06-2.39,9.79,9.79,0,0,0,1.12-3.2l12.07.07a18.48,18.48,0,0,1-1.89,6.47,20.72,20.72,0,0,1-4.34,5.81,20.26,20.26,0,0,1-6.7,4.17,24.65,24.65,0,0,1-9,1.54,24.11,24.11,0,0,1-12-3,21,21,0,0,1-8.37-8.63,28.64,28.64,0,0,1-3.07-13.81A28.4,28.4,0,0,1,745.76,91a21.26,21.26,0,0,1,8.42-8.62,24.2,24.2,0,0,1,11.91-3,26.71,26.71,0,0,1,8.31,1.25,20.57,20.57,0,0,1,6.71,3.62,18.79,18.79,0,0,1,4.71,5.83A21.28,21.28,0,0,1,788.06,98Z"/><path d="M841.55,104.83a28.29,28.29,0,0,1-3.14,13.84,21.42,21.42,0,0,1-8.49,8.62,25.82,25.82,0,0,1-24,0,21.5,21.5,0,0,1-8.46-8.63,28.15,28.15,0,0,1-3.13-13.8A28.29,28.29,0,0,1,797.47,91a21.29,21.29,0,0,1,8.46-8.62,25.86,25.86,0,0,1,24,0A21.36,21.36,0,0,1,838.41,91,28.29,28.29,0,0,1,841.55,104.83Zm-12.22,0A21.56,21.56,0,0,0,828,96.67a10.81,10.81,0,0,0-3.92-5,11.79,11.79,0,0,0-12.23,0,10.81,10.81,0,0,0-3.92,5,21.56,21.56,0,0,0-1.36,8.16A21.56,21.56,0,0,0,807.9,113a10.16,10.16,0,0,0,10,6.76,10.69,10.69,0,0,0,6.12-1.71A10.86,10.86,0,0,0,828,113,21.56,21.56,0,0,0,829.33,104.83Z"/><path d="M866.78,129.56H848.5V80.1h18.26a27,27,0,0,1,13,3,20.4,20.4,0,0,1,8.44,8.5,27.66,27.66,0,0,1,3,13.24,28,28,0,0,1-3,13.29,20.31,20.31,0,0,1-8.44,8.51A27.06,27.06,0,0,1,866.78,129.56Zm-6.32-10.19h5.86a15.91,15.91,0,0,0,7-1.42,9.24,9.24,0,0,0,4.37-4.61,20.51,20.51,0,0,0,1.49-8.54,20.19,20.19,0,0,0-1.5-8.51,9.41,9.41,0,0,0-4.4-4.59,16.35,16.35,0,0,0-7.16-1.41h-5.7Z"/><path d="M898.15,129.56V80.1h34.48v9.71H910.1V100h20.77v9.73H910.1v10.17h22.53v9.71Z"/><path d="M940.12,129.56V80.1h20.43a21.64,21.64,0,0,1,9.6,2,14.61,14.61,0,0,1,6.24,5.7,17,17,0,0,1,2.2,8.78,16.1,16.1,0,0,1-2.25,8.73,14.28,14.28,0,0,1-6.37,5.46,23.7,23.7,0,0,1-9.78,1.87H947.27v-9.42H958a12.59,12.59,0,0,0,4.53-.71,5.64,5.64,0,0,0,2.77-2.17,6.92,6.92,0,0,0,.94-3.76,7.11,7.11,0,0,0-.94-3.8,5.73,5.73,0,0,0-2.78-2.27,11.76,11.76,0,0,0-4.52-.76h-5.89v39.82ZM968,107l12.32,22.61h-13L955.16,107Z"/><path d="M1011.86,94.93a5.66,5.66,0,0,0-2.13-4.14,8.61,8.61,0,0,0-5.4-1.49,10.54,10.54,0,0,0-3.87.61,5,5,0,0,0-2.31,1.65,4.07,4.07,0,0,0-.8,2.4,3.54,3.54,0,0,0,.45,2,4.53,4.53,0,0,0,1.45,1.48,10.49,10.49,0,0,0,2.3,1.13,24.41,24.41,0,0,0,3,.84l4.25,1a30.51,30.51,0,0,1,6.49,2.12,18,18,0,0,1,4.73,3.16,12.43,12.43,0,0,1,2.91,4.23,14.1,14.1,0,0,1,1,5.36,13.77,13.77,0,0,1-2.36,8,14.71,14.71,0,0,1-6.73,5.15,28,28,0,0,1-10.56,1.78,28.8,28.8,0,0,1-10.82-1.86,15.22,15.22,0,0,1-7.17-5.65,17,17,0,0,1-2.63-9.58h11.44a7.5,7.5,0,0,0,1.28,4,7.07,7.07,0,0,0,3.13,2.42,12.21,12.21,0,0,0,4.62.82,11.64,11.64,0,0,0,4.12-.65,5.92,5.92,0,0,0,2.62-1.82,4.22,4.22,0,0,0,.94-2.65,3.61,3.61,0,0,0-.87-2.4,6.74,6.74,0,0,0-2.59-1.74,28.6,28.6,0,0,0-4.46-1.37l-5.17-1.21a22.48,22.48,0,0,1-10.11-4.76A11.27,11.27,0,0,1,985,94.78a13.22,13.22,0,0,1,2.46-8,16.32,16.32,0,0,1,6.88-5.38,24.64,24.64,0,0,1,10-1.94,23.74,23.74,0,0,1,10,2,15.51,15.51,0,0,1,6.58,5.44,14.55,14.55,0,0,1,2.39,8.12Z"/><path d="M741.56,160.81V151.1h41.79v9.71h-15v39.75H756.58V160.81Z"/><path d="M833.63,175.83a28.29,28.29,0,0,1-3.14,13.84,21.42,21.42,0,0,1-8.49,8.62,25.82,25.82,0,0,1-24,0,21.57,21.57,0,0,1-8.46-8.63,32.07,32.07,0,0,1,0-27.64,21.35,21.35,0,0,1,8.46-8.62,25.86,25.86,0,0,1,24,0,21.36,21.36,0,0,1,8.49,8.62A28.29,28.29,0,0,1,833.63,175.83Zm-12.22,0a21.56,21.56,0,0,0-1.36-8.16,10.86,10.86,0,0,0-3.91-5,10.73,10.73,0,0,0-16.16,5A25.16,25.16,0,0,0,800,184a10.71,10.71,0,0,0,20.07,0A21.56,21.56,0,0,0,821.41,175.83Z"/><path d="M855.22,200.56V151.1h20.62a24.14,24.14,0,0,1,9.31,1.57,12.24,12.24,0,0,1,5.65,4.4,11.48,11.48,0,0,1,1.9,6.54,10.47,10.47,0,0,1-1.19,5,10.24,10.24,0,0,1-3.26,3.66,12.79,12.79,0,0,1-4.8,2v.48a12.17,12.17,0,0,1,5.54,1.62,11.17,11.17,0,0,1,4.09,4.1,12,12,0,0,1,1.55,6.19,12.77,12.77,0,0,1-2,7.11,13.68,13.68,0,0,1-5.87,4.93,21.85,21.85,0,0,1-9.32,1.8Zm11.95-29.13h6.62a8.63,8.63,0,0,0,3.47-.65,5.35,5.35,0,0,0,2.38-1.88,5.08,5.08,0,0,0,.86-3,4.76,4.76,0,0,0-1.76-3.91,7.36,7.36,0,0,0-4.76-1.43h-6.81Zm0,19.49h7.39q3.88,0,5.74-1.47a5,5,0,0,0,1.84-4.11,6,6,0,0,0-.89-3.29,5.79,5.79,0,0,0-2.54-2.15,9.22,9.22,0,0,0-3.93-.76h-7.61Z"/><path d="M900.37,200.56V151.1h34.49v9.71H912.33V171h20.76v9.73H912.33v10.17h22.53v9.71Z"/><path d="M773.09,222.1H785V254a16.85,16.85,0,0,1-10,15.95,28.12,28.12,0,0,1-21.95,0,17.18,17.18,0,0,1-7.32-6.33,17.5,17.5,0,0,1-2.61-9.62V222.1h12V253a9.18,9.18,0,0,0,1.12,4.57,8.13,8.13,0,0,0,3.15,3.14,10.36,10.36,0,0,0,9.41,0,8.26,8.26,0,0,0,3.15-3.14,9.19,9.19,0,0,0,1.13-4.57Z"/><path d="M792.51,271.56V222.1h20.43a20.06,20.06,0,0,1,9.59,2.16,15.37,15.37,0,0,1,6.25,6,17.76,17.76,0,0,1,2.19,8.94,17.43,17.43,0,0,1-2.23,8.95,15.14,15.14,0,0,1-6.36,5.93,21.41,21.41,0,0,1-9.81,2.1H800v-9.42h10.38a9.8,9.8,0,0,0,4.53-.94,6.43,6.43,0,0,0,2.76-2.65,8.77,8.77,0,0,0,0-7.94,6.35,6.35,0,0,0-2.77-2.6,10.09,10.09,0,0,0-4.52-.91h-5.89v39.82Z"/><path d="M863.57,236.93a5.66,5.66,0,0,0-2.13-4.14,8.61,8.61,0,0,0-5.4-1.49,10.58,10.58,0,0,0-3.87.61,5,5,0,0,0-2.31,1.65,4.07,4.07,0,0,0-.8,2.4,3.54,3.54,0,0,0,.45,2A4.53,4.53,0,0,0,851,239.4a10.49,10.49,0,0,0,2.3,1.13,24.41,24.41,0,0,0,3,.84l4.25,1a30.51,30.51,0,0,1,6.49,2.12,18,18,0,0,1,4.73,3.16,12.43,12.43,0,0,1,2.91,4.23,14.1,14.1,0,0,1,1,5.36,13.77,13.77,0,0,1-2.36,8,14.71,14.71,0,0,1-6.73,5.15A28,28,0,0,1,856,272.18a28.8,28.8,0,0,1-10.82-1.86,15.27,15.27,0,0,1-7.17-5.65,17,17,0,0,1-2.63-9.58h11.44a7.58,7.58,0,0,0,1.28,4,7.07,7.07,0,0,0,3.13,2.42,12.21,12.21,0,0,0,4.62.82,11.64,11.64,0,0,0,4.12-.65,5.92,5.92,0,0,0,2.62-1.82,4.22,4.22,0,0,0,.94-2.65,3.61,3.61,0,0,0-.87-2.4,6.74,6.74,0,0,0-2.59-1.74,28.26,28.26,0,0,0-4.46-1.37l-5.17-1.21a22.48,22.48,0,0,1-10.11-4.76,11.27,11.27,0,0,1-3.67-8.93,13.22,13.22,0,0,1,2.46-8,16.32,16.32,0,0,1,6.88-5.38,24.64,24.64,0,0,1,10-1.94,23.74,23.74,0,0,1,10,2,15.51,15.51,0,0,1,6.58,5.44,14.55,14.55,0,0,1,2.39,8.12Z"/><path d="M881.76,271.56V222.1h12V243h.65l16.35-20.91h14.08l-17.53,22.07,17.84,27.39H910.81l-12.32-19.44-4.78,6v13.41Z"/><path d="M941.45,222.1v49.46h-12V222.1Z"/><path d="M948.93,271.56V222.1h12v39.75h20.57v9.71Z"/><path d="M987.64,271.56V222.1h12v39.75h20.57v9.71Z"/><path d="M1026.35,271.56V222.1h34.48v9.71H1038.3V242h20.77v9.73H1038.3v10.17h22.53v9.71Z"/><path d="M1086.6,271.56h-18.28V222.1h18.26a27,27,0,0,1,13,3,20.35,20.35,0,0,1,8.44,8.5,31.16,31.16,0,0,1,0,26.53,20.29,20.29,0,0,1-8.43,8.51A27.09,27.09,0,0,1,1086.6,271.56Zm-6.33-10.19h5.87a15.91,15.91,0,0,0,7-1.42,9.28,9.28,0,0,0,4.37-4.61,20.51,20.51,0,0,0,1.49-8.54,20.19,20.19,0,0,0-1.5-8.51,9.39,9.39,0,0,0-4.41-4.59,16.35,16.35,0,0,0-7.16-1.41h-5.7Z"/><path class="cls-47" d="M788.06,98H776a10.45,10.45,0,0,0-1-3.36,8.19,8.19,0,0,0-2-2.56,8.61,8.61,0,0,0-2.91-1.63,11.46,11.46,0,0,0-3.71-.56,10.71,10.71,0,0,0-6.19,1.76,11.14,11.14,0,0,0-4,5.09,21.07,21.07,0,0,0-1.38,8.07,21.21,21.21,0,0,0,1.41,8.25,10.77,10.77,0,0,0,4,5,10.92,10.92,0,0,0,6.1,1.68,12.07,12.07,0,0,0,3.61-.51,8.59,8.59,0,0,0,2.87-1.48,8.19,8.19,0,0,0,2.06-2.39,9.79,9.79,0,0,0,1.12-3.2l12.07.07a18.48,18.48,0,0,1-1.89,6.47,20.72,20.72,0,0,1-4.34,5.81,20.26,20.26,0,0,1-6.7,4.17,24.65,24.65,0,0,1-9,1.54,24.11,24.11,0,0,1-12-3,21,21,0,0,1-8.37-8.63,28.64,28.64,0,0,1-3.07-13.81A28.4,28.4,0,0,1,745.76,91a21.26,21.26,0,0,1,8.42-8.62,24.2,24.2,0,0,1,11.91-3,26.71,26.71,0,0,1,8.31,1.25,20.57,20.57,0,0,1,6.71,3.62,18.79,18.79,0,0,1,4.71,5.83A21.28,21.28,0,0,1,788.06,98Z"/><path class="cls-47" d="M841.55,104.83a28.29,28.29,0,0,1-3.14,13.84,21.42,21.42,0,0,1-8.49,8.62,25.82,25.82,0,0,1-24,0,21.5,21.5,0,0,1-8.46-8.63,28.15,28.15,0,0,1-3.13-13.8A28.29,28.29,0,0,1,797.47,91a21.29,21.29,0,0,1,8.46-8.62,25.86,25.86,0,0,1,24,0A21.36,21.36,0,0,1,838.41,91,28.29,28.29,0,0,1,841.55,104.83Zm-12.22,0A21.56,21.56,0,0,0,828,96.67a10.81,10.81,0,0,0-3.92-5,11.79,11.79,0,0,0-12.23,0,10.81,10.81,0,0,0-3.92,5,21.56,21.56,0,0,0-1.36,8.16A21.56,21.56,0,0,0,807.9,113a10.16,10.16,0,0,0,10,6.76,10.69,10.69,0,0,0,6.12-1.71A10.86,10.86,0,0,0,828,113,21.56,21.56,0,0,0,829.33,104.83Z"/><path class="cls-47" d="M866.78,129.56H848.5V80.1h18.26a27,27,0,0,1,13,3,20.4,20.4,0,0,1,8.44,8.5,27.66,27.66,0,0,1,3,13.24,28,28,0,0,1-3,13.29,20.31,20.31,0,0,1-8.44,8.51A27.06,27.06,0,0,1,866.78,129.56Zm-6.32-10.19h5.86a15.91,15.91,0,0,0,7-1.42,9.24,9.24,0,0,0,4.37-4.61,20.51,20.51,0,0,0,1.49-8.54,20.19,20.19,0,0,0-1.5-8.51,9.41,9.41,0,0,0-4.4-4.59,16.35,16.35,0,0,0-7.16-1.41h-5.7Z"/><path class="cls-47" d="M898.15,129.56V80.1h34.48v9.71H910.1V100h20.77v9.73H910.1v10.17h22.53v9.71Z"/><path class="cls-47" d="M940.12,129.56V80.1h20.43a21.64,21.64,0,0,1,9.6,2,14.61,14.61,0,0,1,6.24,5.7,17,17,0,0,1,2.2,8.78,16.1,16.1,0,0,1-2.25,8.73,14.28,14.28,0,0,1-6.37,5.46,23.7,23.7,0,0,1-9.78,1.87H947.27v-9.42H958a12.59,12.59,0,0,0,4.53-.71,5.64,5.64,0,0,0,2.77-2.17,6.92,6.92,0,0,0,.94-3.76,7.11,7.11,0,0,0-.94-3.8,5.73,5.73,0,0,0-2.78-2.27,11.76,11.76,0,0,0-4.52-.76h-5.89v39.82ZM968,107l12.32,22.61h-13L955.16,107Z"/><path class="cls-47" d="M1011.86,94.93a5.66,5.66,0,0,0-2.13-4.14,8.61,8.61,0,0,0-5.4-1.49,10.54,10.54,0,0,0-3.87.61,5,5,0,0,0-2.31,1.65,4.07,4.07,0,0,0-.8,2.4,3.54,3.54,0,0,0,.45,2,4.53,4.53,0,0,0,1.45,1.48,10.49,10.49,0,0,0,2.3,1.13,24.41,24.41,0,0,0,3,.84l4.25,1a30.51,30.51,0,0,1,6.49,2.12,18,18,0,0,1,4.73,3.16,12.43,12.43,0,0,1,2.91,4.23,14.1,14.1,0,0,1,1,5.36,13.77,13.77,0,0,1-2.36,8,14.71,14.71,0,0,1-6.73,5.15,28,28,0,0,1-10.56,1.78,28.8,28.8,0,0,1-10.82-1.86,15.22,15.22,0,0,1-7.17-5.65,17,17,0,0,1-2.63-9.58h11.44a7.5,7.5,0,0,0,1.28,4,7.07,7.07,0,0,0,3.13,2.42,12.21,12.21,0,0,0,4.62.82,11.64,11.64,0,0,0,4.12-.65,5.92,5.92,0,0,0,2.62-1.82,4.22,4.22,0,0,0,.94-2.65,3.61,3.61,0,0,0-.87-2.4,6.74,6.74,0,0,0-2.59-1.74,28.6,28.6,0,0,0-4.46-1.37l-5.17-1.21a22.48,22.48,0,0,1-10.11-4.76A11.27,11.27,0,0,1,985,94.78a13.22,13.22,0,0,1,2.46-8,16.32,16.32,0,0,1,6.88-5.38,24.64,24.64,0,0,1,10-1.94,23.74,23.74,0,0,1,10,2,15.51,15.51,0,0,1,6.58,5.44,14.55,14.55,0,0,1,2.39,8.12Z"/><path class="cls-47" d="M741.56,160.81V151.1h41.79v9.71h-15v39.75H756.58V160.81Z"/><path class="cls-47" d="M833.63,175.83a28.29,28.29,0,0,1-3.14,13.84,21.42,21.42,0,0,1-8.49,8.62,25.82,25.82,0,0,1-24,0,21.57,21.57,0,0,1-8.46-8.63,32.07,32.07,0,0,1,0-27.64,21.35,21.35,0,0,1,8.46-8.62,25.86,25.86,0,0,1,24,0,21.36,21.36,0,0,1,8.49,8.62A28.29,28.29,0,0,1,833.63,175.83Zm-12.22,0a21.56,21.56,0,0,0-1.36-8.16,10.86,10.86,0,0,0-3.91-5,10.73,10.73,0,0,0-16.16,5A25.16,25.16,0,0,0,800,184a10.71,10.71,0,0,0,20.07,0A21.56,21.56,0,0,0,821.41,175.83Z"/><path class="cls-47" d="M855.22,200.56V151.1h20.62a24.14,24.14,0,0,1,9.31,1.57,12.24,12.24,0,0,1,5.65,4.4,11.48,11.48,0,0,1,1.9,6.54,10.47,10.47,0,0,1-1.19,5,10.24,10.24,0,0,1-3.26,3.66,12.79,12.79,0,0,1-4.8,2v.48a12.17,12.17,0,0,1,5.54,1.62,11.17,11.17,0,0,1,4.09,4.1,12,12,0,0,1,1.55,6.19,12.77,12.77,0,0,1-2,7.11,13.68,13.68,0,0,1-5.87,4.93,21.85,21.85,0,0,1-9.32,1.8Zm11.95-29.13h6.62a8.63,8.63,0,0,0,3.47-.65,5.35,5.35,0,0,0,2.38-1.88,5.08,5.08,0,0,0,.86-3,4.76,4.76,0,0,0-1.76-3.91,7.36,7.36,0,0,0-4.76-1.43h-6.81Zm0,19.49h7.39q3.88,0,5.74-1.47a5,5,0,0,0,1.84-4.11,6,6,0,0,0-.89-3.29,5.79,5.79,0,0,0-2.54-2.15,9.22,9.22,0,0,0-3.93-.76h-7.61Z"/><path class="cls-47" d="M900.37,200.56V151.1h34.49v9.71H912.33V171h20.76v9.73H912.33v10.17h22.53v9.71Z"/><path class="cls-47" d="M773.09,222.1H785V254a16.85,16.85,0,0,1-10,15.95,28.12,28.12,0,0,1-21.95,0,17.18,17.18,0,0,1-7.32-6.33,17.5,17.5,0,0,1-2.61-9.62V222.1h12V253a9.18,9.18,0,0,0,1.12,4.57,8.13,8.13,0,0,0,3.15,3.14,10.36,10.36,0,0,0,9.41,0,8.26,8.26,0,0,0,3.15-3.14,9.19,9.19,0,0,0,1.13-4.57Z"/><path class="cls-47" d="M792.51,271.56V222.1h20.43a20.06,20.06,0,0,1,9.59,2.16,15.37,15.37,0,0,1,6.25,6,17.76,17.76,0,0,1,2.19,8.94,17.43,17.43,0,0,1-2.23,8.95,15.14,15.14,0,0,1-6.36,5.93,21.41,21.41,0,0,1-9.81,2.1H800v-9.42h10.38a9.8,9.8,0,0,0,4.53-.94,6.43,6.43,0,0,0,2.76-2.65,8.77,8.77,0,0,0,0-7.94,6.35,6.35,0,0,0-2.77-2.6,10.09,10.09,0,0,0-4.52-.91h-5.89v39.82Z"/><path class="cls-47" d="M863.57,236.93a5.66,5.66,0,0,0-2.13-4.14,8.61,8.61,0,0,0-5.4-1.49,10.58,10.58,0,0,0-3.87.61,5,5,0,0,0-2.31,1.65,4.07,4.07,0,0,0-.8,2.4,3.54,3.54,0,0,0,.45,2A4.53,4.53,0,0,0,851,239.4a10.49,10.49,0,0,0,2.3,1.13,24.41,24.41,0,0,0,3,.84l4.25,1a30.51,30.51,0,0,1,6.49,2.12,18,18,0,0,1,4.73,3.16,12.43,12.43,0,0,1,2.91,4.23,14.1,14.1,0,0,1,1,5.36,13.77,13.77,0,0,1-2.36,8,14.71,14.71,0,0,1-6.73,5.15A28,28,0,0,1,856,272.18a28.8,28.8,0,0,1-10.82-1.86,15.27,15.27,0,0,1-7.17-5.65,17,17,0,0,1-2.63-9.58h11.44a7.58,7.58,0,0,0,1.28,4,7.07,7.07,0,0,0,3.13,2.42,12.21,12.21,0,0,0,4.62.82,11.64,11.64,0,0,0,4.12-.65,5.92,5.92,0,0,0,2.62-1.82,4.22,4.22,0,0,0,.94-2.65,3.61,3.61,0,0,0-.87-2.4,6.74,6.74,0,0,0-2.59-1.74,28.26,28.26,0,0,0-4.46-1.37l-5.17-1.21a22.48,22.48,0,0,1-10.11-4.76,11.27,11.27,0,0,1-3.67-8.93,13.22,13.22,0,0,1,2.46-8,16.32,16.32,0,0,1,6.88-5.38,24.64,24.64,0,0,1,10-1.94,23.74,23.74,0,0,1,10,2,15.51,15.51,0,0,1,6.58,5.44,14.55,14.55,0,0,1,2.39,8.12Z"/><path class="cls-47" d="M881.76,271.56V222.1h12V243h.65l16.35-20.91h14.08l-17.53,22.07,17.84,27.39H910.81l-12.32-19.44-4.78,6v13.41Z"/><path class="cls-47" d="M941.45,222.1v49.46h-12V222.1Z"/><path class="cls-47" d="M948.93,271.56V222.1h12v39.75h20.57v9.71Z"/><path class="cls-47" d="M987.64,271.56V222.1h12v39.75h20.57v9.71Z"/><path class="cls-47" d="M1026.35,271.56V222.1h34.48v9.71H1038.3V242h20.77v9.73H1038.3v10.17h22.53v9.71Z"/><path class="cls-47" d="M1086.6,271.56h-18.28V222.1h18.26a27,27,0,0,1,13,3,20.35,20.35,0,0,1,8.44,8.5,31.16,31.16,0,0,1,0,26.53,20.29,20.29,0,0,1-8.43,8.51A27.09,27.09,0,0,1,1086.6,271.56Zm-6.33-10.19h5.87a15.91,15.91,0,0,0,7-1.42,9.28,9.28,0,0,0,4.37-4.61,20.51,20.51,0,0,0,1.49-8.54,20.19,20.19,0,0,0-1.5-8.51,9.39,9.39,0,0,0-4.41-4.59,16.35,16.35,0,0,0-7.16-1.41h-5.7Z"/><text class="cls-48" transform="translate(739.57 311.95)">LEARN HOW WE WILL DO IT</text><circle class="cls-49" cx="1087.7" cy="302.43" r="10.51"/><path class="cls-6" d="M1084.84,299a1.53,1.53,0,1,1,1.54-1.53,1.53,1.53,0,0,1-1.54,1.53"/><path class="cls-6" d="M1084.84,308.92a1.54,1.54,0,1,1,1.54-1.54,1.54,1.54,0,0,1-1.54,1.54"/><path class="cls-6" d="M1093.62,303.85a1.54,1.54,0,1,1,1.53-1.53,1.53,1.53,0,0,1-1.53,1.53"/><path class="cls-6" d="M1089.23,301.43a1.54,1.54,0,1,1,1.53-1.54,1.53,1.53,0,0,1-1.53,1.54"/><path class="cls-6" d="M1089.23,306.39a1.54,1.54,0,1,1,1.53-1.54,1.53,1.53,0,0,1-1.53,1.54"/></g></g></svg>