<svg xmlns="http://www.w3.org/2000/svg" xmlns:xlink="http://www.w3.org/1999/xlink" viewBox="0 0 1367 768"><defs><style>.cls-1{fill:none;}.cls-2{isolation:isolate;}.cls-3{fill:#f4f7fa;}.cls-4{clip-path:url(#clip-path);}.cls-5{fill:url(#linear-gradient);}.cls-54,.cls-6,.cls-64{mix-blend-mode:soft-light;}.cls-49,.cls-54,.cls-64,.cls-7{fill:#fff;}.cls-8{fill:#dcb299;}.cls-9{fill:url(#linear-gradient-2);}.cls-10{fill:url(#linear-gradient-3);}.cls-11{fill:url(#linear-gradient-4);}.cls-12{fill:url(#linear-gradient-5);}.cls-13,.cls-26{opacity:0.5;}.cls-13,.cls-17,.cls-19,.cls-26,.cls-32,.cls-37,.cls-46,.cls-47,.cls-50{mix-blend-mode:multiply;}.cls-13{fill:url(#linear-gradient-6);}.cls-14{fill:url(#linear-gradient-7);}.cls-15{fill:url(#linear-gradient-8);}.cls-16{fill:url(#linear-gradient-9);}.cls-17,.cls-19,.cls-37,.cls-47,.cls-65{opacity:0.3;}.cls-17{fill:url(#linear-gradient-10);}.cls-18{fill:url(#linear-gradient-11);}.cls-19{fill:url(#linear-gradient-12);}.cls-20{fill:url(#linear-gradient-13);}.cls-21{fill:url(#linear-gradient-14);}.cls-22{fill:url(#linear-gradient-15);}.cls-23{fill:url(#linear-gradient-16);}.cls-24{fill:#26264f;}.cls-25{fill:url(#linear-gradient-17);}.cls-26{fill:url(#linear-gradient-18);}.cls-27{fill:url(#linear-gradient-19);}.cls-28{fill:url(#linear-gradient-20);}.cls-29{fill:url(#linear-gradient-21);}.cls-30{fill:url(#linear-gradient-22);}.cls-31{fill:url(#linear-gradient-23);}.cls-32{opacity:0.25;fill:url(#linear-gradient-24);}.cls-33{fill:#ffe9c6;}.cls-34{fill:url(#linear-gradient-25);}.cls-35{fill:url(#linear-gradient-26);}.cls-36{fill:url(#linear-gradient-27);}.cls-37{fill:url(#linear-gradient-28);}.cls-38{fill:url(#linear-gradient-29);}.cls-39{fill:url(#linear-gradient-30);}.cls-40{fill:url(#linear-gradient-31);}.cls-41{fill:url(#linear-gradient-32);}.cls-42{fill:#670fb3;}.cls-43{fill:#b3b3b3;}.cls-44,.cls-47,.cls-69{fill:#4d4d4d;}.cls-45{fill:#a67c52;opacity:0.7;mix-blend-mode:screen;}.cls-46,.cls-62{fill:#f7931e;}.cls-46,.cls-64{opacity:0.4;}.cls-48{fill:#333;}.cls-49{opacity:0.15;}.cls-51,.cls-65{fill:#666;}.cls-52{fill:url(#linear-gradient-33);}.cls-53{fill:#00141e;}.cls-54{opacity:0.48;}.cls-55{fill:url(#linear-gradient-34);}.cls-56{fill:url(#linear-gradient-35);}.cls-57{fill:url(#linear-gradient-36);}.cls-58{fill:url(#linear-gradient-37);}.cls-59{fill:url(#linear-gradient-38);}.cls-60{fill:#a4a4a4;}.cls-61{fill:#0071bc;}.cls-63{fill:#009245;}.cls-66{fill:url(#New_Gradient_Swatch);}.cls-67{fill:url(#New_Gradient_Swatch-2);}.cls-68{fill:url(#linear-gradient-39);}.cls-69{font-size:24px;font-family:Inter-Bold, Inter;font-weight:700;}.cls-70{fill:#1812d6;}</style><clipPath id="clip-path"><circle class="cls-1" cx="937.44" cy="320.62" r="196.04"/></clipPath><linearGradient id="linear-gradient" x1="917.8" y1="342.63" x2="1047.83" y2="197" gradientUnits="userSpaceOnUse"><stop offset="0" stop-color="#6165d7"/><stop offset="1" stop-color="#aa80f9"/></linearGradient><linearGradient id="linear-gradient-2" x1="937.39" y1="155.07" x2="959.82" y2="244.78" gradientUnits="userSpaceOnUse"><stop offset="0" stop-color="#fff"/><stop offset="1" stop-color="#d8dee8"/></linearGradient><linearGradient id="linear-gradient-3" x1="930.2" y1="296.67" x2="969.21" y2="158.2" xlink:href="#linear-gradient-2"/><linearGradient id="linear-gradient-4" x1="1033.95" y1="205.41" x2="1020.56" y2="234.6" gradientUnits="userSpaceOnUse"><stop offset="0" stop-color="#311944"/><stop offset="1" stop-color="#6b3976"/></linearGradient><linearGradient id="linear-gradient-5" x1="873.79" y1="349.09" x2="797.32" y2="404.86" gradientUnits="userSpaceOnUse"><stop offset="0" stop-color="#311944"/><stop offset="1" stop-color="#893976"/></linearGradient><linearGradient id="linear-gradient-6" x1="827.25" y1="364.39" x2="783.59" y2="396.23" xlink:href="#linear-gradient-5"/><linearGradient id="linear-gradient-7" x1="1920.18" y1="579.88" x2="1939.24" y2="579.88" gradientTransform="matrix(-1, 0.05, 0.05, 1, 2756.19, -74.9)" gradientUnits="userSpaceOnUse"><stop offset="0" stop-color="#444b8c"/><stop offset="1" stop-color="#26264f"/></linearGradient><linearGradient id="linear-gradient-8" x1="1899.27" y1="577.48" x2="1932.98" y2="430.47" gradientTransform="matrix(-1, 0.05, 0.05, 1, 2756.19, -74.9)" xlink:href="#linear-gradient-4"/><linearGradient id="linear-gradient-9" x1="1961.79" y1="601.14" x2="1988.01" y2="601.14" gradientTransform="matrix(-1, 0, 0, 1, 2807.01, 0)" xlink:href="#linear-gradient-7"/><linearGradient id="linear-gradient-10" x1="1917.05" y1="551.25" x2="1950.11" y2="407.06" gradientTransform="matrix(-1, 0.06, 0.06, 1, 2770.18, -72.06)" gradientUnits="userSpaceOnUse"><stop offset="0" stop-color="#aa80f9"/><stop offset="1" stop-color="#6165d7"/></linearGradient><linearGradient id="linear-gradient-11" x1="1960.59" y1="526.59" x2="2020.13" y2="432.72" gradientTransform="matrix(-1, 0, 0, 1, 2807.01, 0)" xlink:href="#linear-gradient-4"/><linearGradient id="linear-gradient-12" x1="1986.23" y1="506.52" x2="2044.64" y2="414.44" gradientTransform="matrix(-1, 0.01, 0.01, 1, 2821.12, 2.96)" xlink:href="#linear-gradient-10"/><linearGradient id="linear-gradient-13" x1="2487.09" y1="1368.29" x2="2464.51" y2="1310.94" gradientTransform="matrix(-0.99, -0.15, -0.15, 0.99, 3501.19, -635.85)" xlink:href="#linear-gradient-4"/><linearGradient id="linear-gradient-14" x1="2480.42" y1="1370.32" x2="2458.27" y2="1314.05" gradientTransform="matrix(-0.99, -0.15, -0.15, 0.99, 3501.19, -635.85)" xlink:href="#linear-gradient-4"/><linearGradient id="linear-gradient-15" x1="840.62" y1="346.57" x2="802.47" y2="374.39" gradientTransform="matrix(1, 0, 0, 1, 0, 0)" xlink:href="#linear-gradient-7"/><linearGradient id="linear-gradient-16" x1="887.42" y1="351.35" x2="867.7" y2="365.73" gradientTransform="matrix(1, 0, 0, 1, 0, 0)" xlink:href="#linear-gradient-7"/><linearGradient id="linear-gradient-17" x1="788.84" y1="352.2" x2="721.77" y2="401.12" xlink:href="#linear-gradient-5"/><linearGradient id="linear-gradient-18" x1="749.09" y1="365.32" x2="710.06" y2="393.78" xlink:href="#linear-gradient-5"/><linearGradient id="linear-gradient-19" x1="1458.85" y1="362.91" x2="1494.52" y2="396.82" gradientTransform="matrix(-1, 0, 0, 1, 2298.35, 0)" gradientUnits="userSpaceOnUse"><stop offset="0" stop-color="#ff9085"/><stop offset="1" stop-color="#fb6fbb"/></linearGradient><linearGradient id="linear-gradient-20" x1="1385.79" y1="565.02" x2="1310.34" y2="446.45" gradientTransform="matrix(-0.99, -0.16, -0.16, 0.99, 2161.75, 224.1)" gradientUnits="userSpaceOnUse"><stop offset="0" stop-color="#40447e"/><stop offset="1" stop-color="#1c2c5a"/></linearGradient><linearGradient id="linear-gradient-21" x1="1078.12" y1="491.55" x2="1097.27" y2="556.46" gradientTransform="matrix(-0.98, -0.18, -0.18, 0.98, 1941.64, 176.92)" gradientUnits="userSpaceOnUse"><stop offset="0" stop-color="#40447e"/><stop offset="1" stop-color="#3c3b6b"/></linearGradient><linearGradient id="linear-gradient-22" x1="1063.93" y1="595.53" x2="1062.66" y2="658" gradientTransform="matrix(-0.98, -0.18, -0.18, 0.98, 1941.64, 176.92)" gradientUnits="userSpaceOnUse"><stop offset="0" stop-color="#ab316d"/><stop offset="1" stop-color="#792d3d"/></linearGradient><linearGradient id="linear-gradient-23" x1="1070.53" y1="595.57" x2="1069.25" y2="658.44" xlink:href="#linear-gradient-22"/><linearGradient id="linear-gradient-24" x1="1520.27" y1="452.49" x2="1539.88" y2="518.95" gradientTransform="matrix(-1, 0, 0, 1, 2298.35, 0)" xlink:href="#linear-gradient-21"/><linearGradient id="linear-gradient-25" x1="1653.6" y1="321.03" x2="1767.53" y2="393.23" gradientTransform="matrix(-1, -0.03, -0.03, 1, 2464.32, 126.77)" xlink:href="#linear-gradient-19"/><linearGradient id="linear-gradient-26" x1="1330.02" y1="511.3" x2="1377.55" y2="556.18" gradientTransform="matrix(-0.99, -0.16, -0.16, 0.99, 2161.75, 224.1)" xlink:href="#linear-gradient-22"/><linearGradient id="linear-gradient-27" x1="1332.25" y1="508.94" x2="1379.78" y2="553.82" gradientTransform="matrix(-0.99, -0.16, -0.16, 0.99, 2161.75, 224.1)" xlink:href="#linear-gradient-22"/><linearGradient id="linear-gradient-28" x1="1662.08" y1="306.05" x2="1777.04" y2="378.9" gradientTransform="matrix(-1, -0.03, -0.03, 1, 2464.32, 126.77)" xlink:href="#linear-gradient-19"/><linearGradient id="linear-gradient-29" x1="1483.36" y1="396.79" x2="1468.36" y2="429.11" xlink:href="#linear-gradient-19"/><linearGradient id="linear-gradient-30" x1="784.26" y1="354.71" x2="748.26" y2="380.97" xlink:href="#linear-gradient-5"/><linearGradient id="linear-gradient-31" x1="1527.04" y1="377.22" x2="1584.18" y2="413.42" xlink:href="#linear-gradient-19"/><linearGradient id="linear-gradient-32" x1="799.93" y1="371.78" x2="824.78" y2="387.53" xlink:href="#linear-gradient-5"/><linearGradient id="linear-gradient-33" x1="4170.38" y1="423.44" x2="4212.83" y2="423.44" gradientTransform="matrix(-0.81, -0.31, -0.36, 0.93, 4524.76, 1319.27)" xlink:href="#linear-gradient-7"/><linearGradient id="linear-gradient-34" x1="4170.38" y1="439.76" x2="4234.33" y2="439.76" gradientTransform="matrix(-0.81, -0.31, -0.36, 0.93, 4524.76, 1319.27)" xlink:href="#linear-gradient-7"/><linearGradient id="linear-gradient-35" x1="1063.78" y1="955.8" x2="1091.13" y2="955.8" gradientTransform="matrix(0.93, 0.37, -0.37, 0.93, 323.23, -886.54)" gradientUnits="userSpaceOnUse"><stop offset="0" stop-color="#5b5b5b"/><stop offset="1" stop-color="#494949"/></linearGradient><linearGradient id="linear-gradient-36" x1="1088.12" y1="950.83" x2="1082.57" y2="940.41" gradientTransform="matrix(0.93, 0.37, -0.37, 0.93, 323.23, -886.54)" gradientUnits="userSpaceOnUse"><stop offset="0" stop-color="#a4a4a4"/><stop offset="1" stop-color="#4d4d4d"/></linearGradient><linearGradient id="linear-gradient-37" x1="1089.23" y1="950.26" x2="1083.65" y2="939.79" xlink:href="#linear-gradient-36"/><linearGradient id="linear-gradient-38" x1="1090.35" y1="949.68" x2="1084.74" y2="939.16" xlink:href="#linear-gradient-36"/><linearGradient id="New_Gradient_Swatch" x1="-376.76" y1="155.49" x2="7078.77" y2="155.49" gradientUnits="userSpaceOnUse"><stop offset="0" stop-color="#079ed5"/><stop offset="0.18" stop-color="#670fb3"/><stop offset="0.59" stop-color="#1812d6"/><stop offset="1" stop-color="#00141e"/></linearGradient><linearGradient id="New_Gradient_Swatch-2" x1="-376.76" y1="155.2" x2="7078.77" y2="155.2" xlink:href="#New_Gradient_Swatch"/><linearGradient id="linear-gradient-39" x1="-338.62" y1="457.11" x2="885.22" y2="457.11" gradientUnits="userSpaceOnUse"><stop offset="0" stop-color="#079ed5"/><stop offset="0.99" stop-color="#670fb3"/></linearGradient></defs><g class="cls-2"><g id="Illustration"><path class="cls-3" d="M1077.34,124.35c18.14,25.38-2.37,67.07,24.34,86,26,18.45,57.38-12.58,81.87,3.29,36.33,23.53,30.89,133-21.14,201.53-15.65,20.61-28.82,28.7-34.45,51.88-12.08,49.78,32.53,78.84,24.36,103.49-18.4,55.48-309.84,104.94-428.73-60-55.52-77-64.88-189-16.9-274.61C793.4,81.28,1036.65,67.38,1077.34,124.35Z"/><g class="cls-4"><path class="cls-5" d="M1135.88,320.78a197.05,197.05,0,0,1-35.57,113.06c-.09.13-.4.26-.4.39h0C1064.81,485.66,1004.66,519,937.2,519A116.44,116.44,0,0,1,921,518h0s0,.33-.05.33c-2.66-.22-5.3-.32-7.93-.65-.93-.11-1.87-.15-2.79-.28s-1.65-.18-2.47-.31-1.42-.19-2.12-.31l-.48-.06c-1.73-.29-3.46-.59-5.18-.92h0c-91.73-17.52-161-98.16-161-195A198.29,198.29,0,0,1,747.63,262c.9-2.91,2-5.79,2.77-8.64h0c2.24-4.75,3.74-9.42,5.8-14,.83-1.83,1.75-3.65,2.62-5.45a199.14,199.14,0,0,1,16.85-28.25c.57-.81,1.17-1.61,1.76-2.41,2.35-3.2,4.81-6.32,7.35-9.37q5.72-6.85,12-13.19a199.11,199.11,0,0,1,36.38-28.85q6.15-3.81,12.58-7.16a198.72,198.72,0,0,1,216.44,21.69,200.07,200.07,0,0,1,58.29,76.61c2.87,6.71,4.81,13.62,7.8,20.69h0s-.34.06-.33.09A198.18,198.18,0,0,1,1135.88,320.78Z"/><g class="cls-6"><path class="cls-7" d="M921,518.65h0Z"/><path class="cls-7" d="M980.69,387.72c-4.26,6-17.44,13.71-8.5,28.84s-.61,17.93-6.71,16.52-25.18-2.18-22,6.48,8.62,11.92,1.64,15.26-9.93,12-17.07,24-23.94,1.62-18.95,13.65,8.87,10.87,8.4,19.25c-.11,2.3,1.42,4.66,3.48,6.91-2.66-.22-5.33-.49-8-.81-.93-.11-1.87-.23-2.79-.36s-1.65-.23-2.47-.36-1.42-.21-2.12-.33c-.16,0-.12,0-.28-.07-1.71-.29-2.59-.6-4.83-.92h0c-1.49-1.41-.56-2.95-.33-4.61,2.22-15.48-19.13-26.12-22.71-37s0-17.27-.86-26.24,2.09-20.81-3.06-28.35-25.91-10-29.86-25.2,5.28-37.79,8.87-41.65-17.19-21.41-27.06-22-6-20.57-22.71-17.53-47-6.43-40.74-16.51c5.14-8.3,13.78-26.62-14.42-34.79.91-2.91,2-5.79,2.77-8.64h0c2.24-4.75,3.74-9.42,5.8-14,.83-1.83,1.75-3.65,2.62-5.45a199.14,199.14,0,0,1,16.85-28.25c.57-.81,1.17-1.61,1.76-2.41q3.54-4.8,7.35-9.37,5.72-6.85,12-13.19a199.11,199.11,0,0,1,36.38-28.85c5.59,3.91,12,6.32,17.47,3.35,13.51-7.56,4.6-8.72-.93-9a7.08,7.08,0,0,1-4-1.51,196.21,196.21,0,0,1,32.66-13.47c-.85,7.62-11.21,19.87-3.58,18.37,8.87-1.68,12.49-25.65,19-17.69s-7.22,18.48,5.77,12.41,14.75-19.44,29.25-12.91,13.24,14.44,17.3,13.66,17.16,8.05,9.23,15.29-15.33-2-27.31-4.78-11.71,7-17.22,9.29-32.69-10.91-39.33.91-9.58,19.91.39,19.61,10.61-2.86,9.83,4.51,1,12.89,10,5.95,7-13.66,14-10.37,7.87.32,15.36-5.12,17.33-6,19.9,6.2-1.83,14.93-15,15.55-14.65-3.51-18.84,7.49-21.59,25.15-36.87,31-21.24,14.46-20.89,26.1-5.37,23.95-9.2,14.35-14.64-25.86-25.64-15-30.21,30.08-9,33.59,10.12-16.25,20.82-12.29-6.77,12.73.37,15.89,10.15,1.69,10.09,11.44,2.37,19.2,11.05,15.06,19.81-23.21,32.36-11.91,11.68,9.85,18.27,6.55,10.77,6.58,13.47,11.07,13.29-.09,21.87,13.29,11.94,15.76,21.71,10.95,13.77-1.24,16.32,5.51,8.56.16,11.46,9.08S984.92,381.71,980.69,387.72Z"/><path class="cls-7" d="M1014.18,225.63c-6.94-14.87,27.41-13.2,33.47-12s20.43-10.18,22.25-15.39,4.94-2.75,15.81-2.9,1.26-2.57-10.7-6.51-1.73-4.33-12.72-13c-4.74-3.81-3.25-7-.09-9.44a199.1,199.1,0,0,1,57.93,76.61,3.92,3.92,0,0,0-1-.18c-7.6,0-9.28-16.86-13.2-20.14s.11,9.24,1.06,14.38-2.09.82-5.88,5.54-10.69,4.82-11.31-2.27-5.61-14-15.73-17.26-18.88-.57-27.1,2.6S1021.16,240.39,1014.18,225.63Z"/><path class="cls-7" d="M1100.39,434.23c.69-5.11,1.81-10.38-.32-12.31-5.19-4.81-6.32-17.92-4.52-24.56s15.76-6.27,6.28-17.33-18.06-24.24-14.07-31.77,2.78-8.06-4.7-8-10.78.37-18.24-6.29-17.73,15.93-45.82-2.26c-28.09-18.37-12.09-49.33-1.57-49.41s23-5.52,14.29-18.44,4.87-14.8,11.48-11.85,18.35-4.91,30.31-8.44,11.46,16,18.11,19.92,19.24.81,25.76-5.44c4.66-4.47,5.67.74,10.27,5.68a198.93,198.93,0,0,1-27.26,170.51Z"/><path class="cls-7" d="M1050.15,200.88s8.76-4,5.58-10.33-8.13-25.88-11.77-19.73,1.74,18.17.56,23.34S1043.3,202.07,1050.15,200.88Z"/><path class="cls-7" d="M1041.41,194.92c-.13-2,1.17-10.38-5.39-10.12,0,0-9.48,3.95-3.93,10.68S1041.55,197,1041.41,194.92Z"/></g><path class="cls-8" d="M1135.35,320.44a196.83,196.83,0,0,1-35.3,113.05.69.69,0,0,0-.14.39h0a197.89,197.89,0,0,1-163,84.59,120.25,120.25,0,0,1-16.47-1.17h0s0,.49-.06.49c-2.66-.22-5.3-.24-7.92-.57-.94-.11-1.87-.1-2.8-.24s-1.65-.16-2.46-.29-1.43-.18-2.13-.29l-.48-.06c-1.73-.29-3.46-.59-5.18-.92h0A198.68,198.68,0,0,1,739.53,342C759.42,399,808.6,441.88,869.08,453.83h0c1.48.75,3,.6,4.47.85.13,0,.28.06.41.08l1.84.29c.7.11,1.41.2,2.13.29s1.6.19,2.41.28c2.27.28,4.55.8,6.84,1,0,0,0,.21,0,.21h0c4.66,0,9.31.38,14.08.38a171.21,171.21,0,0,0,140.6-73.6c0-.11.18-.27.26-.38a171.43,171.43,0,0,0,23.42-146.94s-.06-.06-.06-.09h0a117.41,117.41,0,0,0-6.38-17.87,171.74,171.74,0,0,0-103.8-95.57A197.54,197.54,0,0,1,1061.67,166a199.83,199.83,0,0,1,58.19,76.61c2.86,6.72,4.69,13.62,7.68,20.69h0s-.23.06-.22.09A198.24,198.24,0,0,1,1135.35,320.44Z"/></g><path class="cls-9" d="M938.69,161.81a37.7,37.7,0,0,0-27.57-12h-6.06a5,5,0,0,0-4.54,7.26l29.36,60.16h60.56Z"/><path class="cls-7" d="M1055.16,230.55h0A44.94,44.94,0,0,0,1015,205.73H901.45a20.51,20.51,0,0,1-18.09-10.85l-12.18-22.79a8.91,8.91,0,0,0-7.86-4.71h-12a1.44,1.44,0,0,0-1.3,2.08l28.13,57.07a23.48,23.48,0,0,0,21.05,13.09h150.36A6.27,6.27,0,0,0,1055.16,230.55Z"/><path class="cls-10" d="M977.67,221H933.35a5.55,5.55,0,0,0-5,3.11L902.09,278a7.28,7.28,0,0,0,6.54,10.48h2.49a37.7,37.7,0,0,0,27.57-12l43-46.11A5.54,5.54,0,0,0,977.67,221Z"/><path class="cls-11" d="M1024.39,224.47h27.09A44.92,44.92,0,0,0,1015,205.73h-7.44l7.52,13.3A10.74,10.74,0,0,0,1024.39,224.47Z"/><path class="cls-12" d="M862.29,429.69c-10,9.43-35.66,5.73-53.59,1.95-3.23-.66-6.21-1.35-8.8-1.95-17-4-3.9-86.59-3.15-94.81.29-3.17,2.75-4.37,7.18-4.75,7.09-.61,19.19.88,35.48-.27,26.49-1.85,30.66,8.43,30.66,8.43C871.59,342.21,874.1,418.57,862.29,429.69Z"/><path class="cls-13" d="M812.41,353.69c-.45,15.05.62,65.22-3.71,77.95-3.23-.66-6.21-1.35-8.8-1.95-17-4-3.9-86.59-3.15-94.81.29-3.17,2.75-4.37,7.18-4.75a19.51,19.51,0,0,1,1.6,2C814.79,345.23,812.94,336,812.41,353.69Z"/><path class="cls-8" d="M935.06,414.73a13.38,13.38,0,0,1,5.64-5.43c4.1-2.17,9.38,5.07,9.55,6.91s-2.1.84-3.54.7-4.93,4.88-8.65,4.45S935.06,414.73,935.06,414.73Z"/><path class="cls-8" d="M791.75,442.17a15.06,15.06,0,0,1,6.74,5.75c2.9,4.39-4.69,11.14-6.74,11.53s-1.18-2.27-1.18-3.92-6-5-6-9.25S791.75,442.17,791.75,442.17Z"/><path class="cls-8" d="M893.45,362.59a31.64,31.64,0,0,0-18.86-25.52c-4.8-2.07-9.76-3-13.84-1.1,0,0-5.38,41.66,18.53,62.85s58,20.71,58,20.71l0-13S898.44,405.73,893.45,362.59Z"/><path class="cls-14" d="M849.27,584.32c-3.39,2.74-3.59,4.69-3.48,5.64.18,1.53,1.33,2.12,4.09,5,3.74,3.91,3.17,4.43,5.07,5.84,4.19,3.12,10.13,2.92,10.48,1.86.26-.75-2.43-1.36-5.48-4.89a19.35,19.35,0,0,1-4-7.45,18.58,18.58,0,0,1-.61-4.25Z"/><path class="cls-8" d="M860.62,576,854,587.61c-1.61.71-3.15.35-4.57-1.72l2.6-14.15Z"/><path class="cls-15" d="M868.72,426.73a140.18,140.18,0,0,1,19.19,60.84,138.08,138.08,0,0,1-8,57.89c-5.6,15.06-15.34,30.88-21,38.42-3.82-1.6-6.07-4.1-9.88-5.7.57-2.07,2.34-8.93,3.45-13,.87-3.17,2.46-9,2.78-10.27,2.74-10.48.58-18.34,1.34-31.3.87-15.11,4.34-13.35,3.82-22.43-.78-13.54-8.46-16.71-17.27-36.32-6-13.42-12.37-27.51-6.54-35.22C843.92,419.93,866.23,426,868.72,426.73Z"/><path class="cls-16" d="M821.65,595c-2,1.29-3.27,4.36-2.34,6.3s3.23,1.3,8.87,3c6,1.85,7.24,3.73,11.69,3.72,1.8,0,5.06-.31,5.34-1.52.19-.85-1.2-1.69-5.76-4.76-6.47-4.35-6.4-4.47-7.85-5.13C828,594.94,824.33,593.26,821.65,595Z"/><path class="cls-8" d="M831.31,585.75l-2.48,11.33c-.35.5-3.88,1.71-6.35,0l.91-11.33Z"/><path class="cls-17" d="M836.85,427.81c7.3-9.58,29.83-3.81,32.35-3.14a138.26,138.26,0,0,1,9.44,18.09c-8-1.45-11.43,0-13,1.82-6.19,7.19,13.53,22.76,9.72,46.69-1.49,9.35-5.56,13.6-4.7,25,.64,8.49,3.39,12.77,5.32,19a48.77,48.77,0,0,1,2.16,13.84,172.83,172.83,0,0,1-17.42,29.69c-3.86-1.53-6.14-4-10-5.49.56-2,2.28-8.78,3.36-12.79.85-3.11,2.4-8.86,2.71-10.09,2.67-10.29.42-18,1.07-30.68.75-14.82,4.25-13.13,3.65-22-.91-13.27-8.67-16.29-17.73-35.43C837.56,449.17,831.05,435.41,836.85,427.81Z"/><path class="cls-18" d="M851.3,432.69A568.41,568.41,0,0,1,833.09,590.3a10.13,10.13,0,0,1-6.75,1.14,9.84,9.84,0,0,1-4.69-2.31,92.07,92.07,0,0,0,.7-18.45c-.85-13.35-4-16.07-5.34-29.89a113.88,113.88,0,0,1,.67-26.61c1.86-14.13,4.38-14.42,4.43-22.89.08-13-5.88-17.69-9.15-30.11-2.19-8.28-3.35-20.64,2.15-37.6Z"/><path class="cls-19" d="M815.14,422.08l10.7,2.51a54.13,54.13,0,0,0-1.26,26.24c3.1,14.64,10.8,17.79,12,31,1.12,11.89-4.63,14.37-7.25,30.27-2.69,16.3,1.67,23.91,2.69,37.51.7,9.31-.19,21.5-5.88,36.38a10.38,10.38,0,0,1-3-1.74,87.79,87.79,0,0,0,.54-18.09c-1-13.08-4.16-15.71-5.65-29.24a109.19,109.19,0,0,1,.44-26.09c1.75-13.86,4.29-14.17,4.27-22.47,0-12.77-6.09-17.29-9.5-29.42C811,450.85,809.75,438.74,815.14,422.08Z"/><path class="cls-8" d="M871.34,338.1a41.84,41.84,0,0,1,15.79,34.45c-.22,7.54-2.28,8-4.44,18-4,18.27-3,44,2.19,55.63a2.63,2.63,0,0,1,.25,1.44c-1.36,10.71-77,9-76-5.31.64-9.31,6.68-13.49,7.87-36,.62-11.69-2-15.37-4.1-34.23a241.51,241.51,0,0,1-1.37-33.75,88.28,88.28,0,0,1,49.07-6.5A33.23,33.23,0,0,1,871.34,338.1Z"/><path class="cls-8" d="M829.85,379.51c8.28,2.74,19.31,10.56,20.13,20.7,1.27,15.58-22.52,24.35-19.24,35.24.9,3,3.66,5.63,21.59,11.74,7.25,2.47,14,4.48,20.1,6.14-21.83,3.33-66.77-.84-63.34-11,10.37-30.8,11.73-45.23,9.33-64.28A31.37,31.37,0,0,1,829.85,379.51Z"/><path class="cls-8" d="M855.8,301.64c-1.15,15.57-5.87,24.22-10,26.12-3.87,1.8-6.27,0-14.45,3.39a3.5,3.5,0,0,0-2.35,3.7c.78,6.91,35.83,3.16,41.84,1.58.33-.09,1.15-.32,1.26-.84.4-1.88-9.39-3.27-11.65-8.64-.92-2.17-.85-5.58,2.87-11.16Q859.57,308.71,855.8,301.64Z"/><path class="cls-20" d="M875.34,305.49c3.48-3.25,4.8-9.54,2.28-14-2.18-3.8-6.49-4.87-9.07-5.51-7.49-1.86-17.69,0-22.27,6.29-2.72,3.76.06,12.68.46,14.27.45,1.79,1.73,2.56,2.77,4,1.45,2,3.71,5.21,7.37,10.54a32,32,0,0,1,2.65-4.77,28.64,28.64,0,0,1,4.69-5.4C869.06,306.8,872,308.56,875.34,305.49Z"/><path class="cls-8" d="M851.15,316.3a16.33,16.33,0,0,0,13.69,9.3c9,.62,13.89-18.58,8.92-23.44-1.66-1.62-5.38-2.7-8.64-2.27-1.92.26-2.68.91-5.83,1.27-2.91.33-3.64-.07-4.6.5-1.21.71-2.36,2.7-1.63,8.59-1.41-1.89-3.34-2.8-4.91-2.33a3.29,3.29,0,0,0-1.4,1C845.1,310.93,846.68,314,851.15,316.3Z"/><path class="cls-21" d="M854.49,300.44c.38.37-1.22,1.75-1.72,3.94-1,4.24,2.58,10,7.07,11,2.65.61,3.68-.86,8.23-.73a21.12,21.12,0,0,1,6.45,1.22c.55,4.87-1.62,9.36-5.26,11.1-3.91,1.87-8.12-.13-9.88-1-1.17-.56-4.94-2.34-6.39-6.16s1-5.91-1-8.73c-1-1.43-2.58-2.19-3.75-4.84a11.33,11.33,0,0,1-.61-1.76C850.36,302.45,854,299.91,854.49,300.44Z"/><path class="cls-22" d="M815.82,330.74s18.63-6.53,20.08,10.41-9.9,56.65-23.48,58.73c-3.94-7.26-1.92-11.08,2.43-15.55s18.88-44.37,1-47.65l-2.3,1.22S810.5,334,815.82,330.74Z"/><path class="cls-7" d="M836.79,351.66a1,1,0,0,1-1.22.62,20.35,20.35,0,0,0-10.73,0,1,1,0,0,1-1.22-.62h0a1,1,0,0,1,.72-1.2,22.23,22.23,0,0,1,11.73,0,1,1,0,0,1,.72,1.2Z"/><path class="cls-23" d="M862.63,332.58S894.07,352.2,882.42,392c0,0,11.88-21.88,3.57-42.39C880.11,335.15,865.84,328.09,862.63,332.58Z"/><path class="cls-7" d="M888.51,354.83c-.11.5-.45.77-.78.63a8.44,8.44,0,0,0-6.82,0c-.32.13-.67-.13-.77-.63h0a1.1,1.1,0,0,1,.45-1.2,9.23,9.23,0,0,1,7.46,0,1.1,1.1,0,0,1,.46,1.2Z"/><path class="cls-8" d="M811.49,338.32s-38.37,19.25-42.84,50.41S783.84,447,783.84,447l11-7.32S769.56,402,818,372C818,372,823.16,344.89,811.49,338.32Z"/><path class="cls-24" d="M814.72,320.41c2.63-2.6,6.28-.89,8-3.64,2.15-3.45-.61-10.84-5.63-13.64-3.63-2-6.23-.42-17,.12-3.73.19-8.81.44-12,0-13.88-2-15.17-20.64-27.2-26.85-13.86-7.16-41.15,2.71-51,23.59-11.25,23.9,5.34,51.71,24.19,61,11.88,5.85,25,2.81,51.16-3.28s29-12.85,29.76-15.19C817.45,334.41,810.07,325,814.72,320.41Z"/><path class="cls-24" d="M720.5,351.59a.72.72,0,0,0,.66-.44.71.71,0,0,0-.39-.92c-15.36-6.13-18.56-32.67-18.59-32.93a.7.7,0,0,0-.78-.63.72.72,0,0,0-.62.79A72.11,72.11,0,0,0,704.36,332c3.69,10.11,9.18,16.87,15.88,19.55A.85.85,0,0,0,720.5,351.59Z"/><path class="cls-25" d="M778,424.17c-8.55,8.52-30.41,5.18-45.71,1.76-2.75-.6-5.29-1.22-7.5-1.76-14.51-3.59-3.34-78.3-2.69-85.74.24-2.87,2.34-3.95,6.12-4.3,6-.55,16.37.8,30.27-.24,22.58-1.67,26.14,7.63,26.14,7.63C786,345.06,788.1,414.11,778,424.17Z"/><path class="cls-26" d="M735.48,355.44c-.38,13.61.54,59-3.16,70.49-2.75-.6-5.29-1.22-7.5-1.76-14.51-3.59-3.34-78.3-2.69-85.74.24-2.87,2.34-3.95,6.12-4.3a16.54,16.54,0,0,1,1.36,1.8C737.51,347.79,735.94,339.4,735.48,355.44Z"/><path class="cls-27" d="M831.3,411.82c3.62-4.89,4.31-11.62,2.83-16.95-2.51-9-9.68-8.43-13.42-18.72-2.42-6.65-.4-9.6-3.88-14.47-2.57-3.59-7.84-7.84-11.58-6.84-11.17,3-16.21,54.85,1.69,63.69C814.1,422.07,825.87,419.18,831.3,411.82Z"/><path class="cls-28" d="M789.39,425.37c11.42,3.44,13.21,25.57,14.31,39.18,1.24,15.33,2.62,32.41-7.19,47.71-12.33,19.24-37.87,28.66-65,26l.84-5.25c27.85-10.63,35.45-22.58,37.37-31.36,4.08-18.69-15.9-30.68-10.74-50.95C762.87,435.39,779.29,422.32,789.39,425.37Z"/><path class="cls-29" d="M749.69,440.08c6.19-9.13,12.23-18.37,18.28-27.6a15.11,15.11,0,0,0,2.21-6.12,42.22,42.22,0,0,1,6.83,6.86,342.18,342.18,0,0,1,11.75,83.29c.37,21.06-4.39,84.73-6.69,100.73-.84.17-1.15-2-2-1.86-1,.21-1.31,2.11-2.34,2.29-3.06-32.31-6.56-61.48-8.33-76.47-.6-5.09-2.37-20.34-10.54-32.63-.13-.2-12.22-16.73-16.39-23.33-1.39-2.2-3.13-5.05-5.1-8.87C742,451.45,745.79,445.82,749.69,440.08Z"/><path class="cls-30" d="M777.5,580.15c.47-1.09,3.08,1.66,5.51,4.56q-.46,6.27-.94,12.53a10.23,10.23,0,0,1,3.18-1.43c1.48-.34,4,.19,4.22.89,1.21,4.36-9.64,5.31-10.83,3.94a3.89,3.89,0,0,1-.92-3c1.1-6.27,1-10.52.43-13.45C777.79,582.16,777.24,580.76,777.5,580.15Z"/><path class="cls-31" d="M782.07,597.24c-.84.17-1.15-2-2-1.86-1,.21-1.31,2.11-2.34,2.29-1.12-11.81-2.3-23.2-3.43-33.63a104.54,104.54,0,0,1,11-.58C784.16,578.29,782.94,591.18,782.07,597.24Z"/><path class="cls-32" d="M749.69,440.08c6.19-9.13,12.23-18.37,18.28-27.6a15.11,15.11,0,0,0,2.21-6.12,42.22,42.22,0,0,1,6.83,6.86,341.22,341.22,0,0,1,10.34,57.67c-6.32-.36-12.35,3.36-14.13,7.8-3.68,9.19,7.92,16.39,7.8,35.66-.07,10.55-3.84,13.2-2.12,22.89A56.2,56.2,0,0,1,780,552.79c-.24,3.31-.51,2.59-.71,5.58-.58,8.54,1.46,16.38.57,21.71a12.22,12.22,0,0,1-1.22,3.74,12,12,0,0,1-2,2.82c-2.77-27.82-5.7-52.18-7.26-65.44-.6-5.09-2.37-20.34-10.54-32.63-.13-.2-12.22-16.73-16.39-23.33-1.39-2.2-3.13-5.05-5.1-8.87C742,451.45,745.79,445.82,749.69,440.08Z"/><path class="cls-33" d="M820.3,397.1l-.83-1.72a31.39,31.39,0,0,1-2.83-4.52c-.82-1.82-.64-3.3,1-4.45s3.29.76,4.69,2.4c.86,1,1,3.09.88,4.79a13.29,13.29,0,0,0,.79,3.56Z"/><path class="cls-34" d="M813.78,360.23a28.61,28.61,0,0,1,3,17.36c-1.33,9.68-7.16,16.21-8.59,18-6.76,8.24-10.6,27.22,1.53,73.94-2.78,1.23-14.5,12.85-16.25,5.16-2.39-10.49-6.71-80.7-6.58,1.07,0,1.07-2.17.23-3.29.32a74.05,74.05,0,0,1-27.17-2.88,75.62,75.62,0,0,1-31-18.48,148.1,148.1,0,0,0,21.92-36.43,150.89,150.89,0,0,0,10.78-72c5.74-1.93,23.66-7.15,40.71,1.1C803.08,349.4,809.68,352.71,813.78,360.23Z"/><path class="cls-33" d="M787.44,399.77l1.73-.82a32,32,0,0,1,4.55-2.79c1.83-.8,3.31-.61,4.44,1.08s-.79,3.28-2.44,4.67c-1,.85-3.1.93-4.79.84a13.43,13.43,0,0,0-3.58.76Z"/><path class="cls-35" d="M732.35,533a115,115,0,0,0,17-8,40.84,40.84,0,0,1,1.83,13,89.44,89.44,0,0,1-19.65.18Z"/><path class="cls-36" d="M733,534l-.61-1.06a1.07,1.07,0,0,0-1.61.7c-.52,1.35-3.45,8.43-3.61,11.64.77,1.91,3,.29,3.4-1s2-6.14,2-6.14Z"/><path class="cls-37" d="M747.35,418.25a149.4,149.4,0,0,0,11.42-60c5.31,2.6,12.06,7,13.38,13.76,1.74,8.94-7.41,14.76-4.76,21.08,3.27,7.79,19.33,3.88,22.69,11.8,1.86,4.38-1.37,9.53-6.8,18.21-4.81,7.68-8.86,14.57-16.95,18.72-11.66,6-18.32,2.55-25.08,8.47-3.67,3.23-5.59,7.66-6.55,12.14a78.33,78.33,0,0,1-9.27-7.77A148.1,148.1,0,0,0,747.35,418.25Z"/><path class="cls-33" d="M790.71,331.94c0,1.51-.05,9.58-3.64,10.91-.78.29-1.41.1-4.89.2-2,.05-3.6.15-4.64.23a25.44,25.44,0,0,0,1.26,5.3c4.47,12.57,18.92,21.3,23.82,18.15,2.55-1.63,2.75-6.55,2.83-8.58a17.36,17.36,0,0,0-1.15-6.88c-1.8-1.3-3.63-2.61-5.51-3.92q-1.83-1.28-3.65-2.5l.24-4.64Q793.06,336.07,790.71,331.94Z"/><path class="cls-33" d="M784,328.43s0,11.48,9.13,15.21c8.21,3.35,19-15.92,15.73-22.18a11.7,11.7,0,0,0-7.46-5.1c-2.2-.4-11.36-.45-14,6.74-.77-2.27-2.31-3.75-3.9-3.76a3,3,0,0,0-1.56.51C779.93,321.35,780.53,324.86,784,328.43Z"/><path class="cls-38" d="M824.77,395.58l-5.65.88c-.7.48-9.09,6.37-8.3,14.83.11,1.1.5,5.26,3.36,6.89,4.41,2.5,13.37-1.79,15.36-8.83C830.87,404.63,828.91,399.29,824.77,395.58Z"/><path class="cls-24" d="M819.38,307.52a.91.91,0,0,0,.23,0,.71.71,0,0,0,.45-.89c-.06-.18-1.55-4.57-7.5-6.06-.86-.21-1.78-.42-2.72-.63-5-1.11-10.6-2.36-10.71-6a.74.74,0,0,0-.72-.69.71.71,0,0,0-.69.73c.14,4.74,6.34,6.12,11.81,7.34.93.21,1.84.41,2.69.62,5.15,1.29,6.44,5,6.49,5.13A.7.7,0,0,0,819.38,307.52Z"/><path class="cls-39" d="M766.82,344s23.23,19.24-14.49,51.63l1.38,4s45.92-23.16,23.49-57.34A63.48,63.48,0,0,0,766.82,344Z"/><path class="cls-40" d="M769.51,346.84c-4.86-1.21-4.88-2.78-11.38-.6-18.64,6.28-38.38,34.41-28.18,54.28,5.68,11.05,19.27,21,34.26,18.72,12.2-1.87,19.36-11,21.19-13.42.7-2.83,1.41-5.65,2.12-8.48-8,4.51-13.56,4.51-17.31,3.53-6.39-1.65-7.81-6.23-18.36-10.24-4.11-1.56-6.59-1.88-6.71-3.17-.26-2.68,10.08-3.57,16.6-9.19C766.49,374.18,771.23,365.84,769.51,346.84Z"/><path class="cls-41" d="M805.46,351.08s13.34,9.85.18,48.53c0,0,18-16,8.14-41.29Z"/><polygon class="cls-42" points="1007.99 336.35 987.63 296.01 997.66 277.73 996.1 265.8 997.09 264.91 1012.45 337.11 1007.99 336.35"/><polygon class="cls-42" points="1013.94 338.04 1004.07 278.34 1005.91 278.34 1007.99 286.85 1023.81 295.34 1018.5 336.07 1013.94 338.04"/><path class="cls-43" d="M995,321.86c-10.76-.21-20,3.61-20.15,9.71-.13,6.67,10.35,10.29,19.79,10.47,10.76.21,19.57-4,19.67-9.46S1004.31,322,995,321.86Zm4.53,15.93c-6.28-.12-11.32-2.55-11.26-5.43s5.18-5.11,11.46-5,11.32,2.55,11.26,5.43S1005.81,337.91,999.53,337.79Z"/><path class="cls-44" d="M1098,248.56l126,78.8a18.15,18.15,0,0,1,5.08,26.28l-142.54,199a17.64,17.64,0,0,1-26.24,3.26l-113-96.87c-6.83-5.85-7.69-17-2-25l128.71-179.7C1079.61,246.43,1090.34,243.8,1098,248.56Z"/><path class="cls-43" d="M1094.5,246.09l126,78.8a18.16,18.16,0,0,1,5.08,26.28L1083,550.18a17.63,17.63,0,0,1-26.23,3.27l-113-96.87c-6.83-5.85-7.69-17-2-25l128.71-179.7C1076.16,244,1086.89,241.33,1094.5,246.09Z"/><path class="cls-45" d="M1057.59,335.19c-16.68,23.29-12.83,55.18,9.2,71.69,22.72,17,56,11.26,73.63-13.38s12.18-57.67-11.53-73.33C1105.91,305,1074.27,311.9,1057.59,335.19Z"/><path class="cls-46" d="M1064.72,340.21c-13.72,19.16-10.46,45.35,7.7,58.81,18.62,13.8,45.73,9,60.1-11.08s10-47-9.26-59.91C1104.46,315.47,1078.45,321.05,1064.72,340.21Z"/><polygon class="cls-46" points="992.09 426.64 1071.13 490.25 1083.65 472.76 1003.93 410.11 992.09 426.64"/><polygon class="cls-46" points="981.19 441.86 1059.6 506.34 1065.86 497.6 987.11 433.59 981.19 441.86"/><path class="cls-47" d="M1056.5,463c27.81-45,16.15-81.29,45-117.35,13.78-17.26,37.12-35,80-45.16l39,24.4a18.15,18.15,0,0,1,5.07,26.28L1083,550.18a17.63,17.63,0,0,1-26.23,3.27l-49.06-42.05C1026.17,499.79,1043.44,484.13,1056.5,463Z"/><path class="cls-48" d="M1243.25,337.43l48.37,5.72c3.22.38.61,8-5.83,17l-142.53,199c-6.19,8.65-14.5,16.66-17.56,16.16,0,0-36.33-4.46-45.18-8.94s-.52-7.82,5.57-16.38l140-197.09C1232.4,344,1240.09,337.05,1243.25,337.43Z"/><path class="cls-44" d="M1241.93,337l48.56,5.76c3.23.38.62,8-5.82,17l-142.8,199.41c-6.21,8.66-13.72,15.27-16.8,14.77,0,0-41-6.32-45.29-10.22-4.14-2.26-1.44-5.15,4.65-13.73l140.28-197.52C1231,343.57,1238.75,336.63,1241.93,337Z"/><path class="cls-49" d="M1150.15,514.27c30.44-44.37,34.22-64.69,63.32-104.3,14-19,33.91-42.68,62.74-68.89l14.28,1.69c3.23.38.62,8-5.82,17l-142.8,199.41c-6.21,8.66-13.72,15.27-16.8,14.77l-19.21-3.13A599.35,599.35,0,0,0,1150.15,514.27Z"/><g class="cls-50"><path class="cls-51" d="M874.87,364c0,7.94-5.57,15.5-13.06,17-8.3,1.67-15.69-4.58-15.69-14.11s7.39-17.27,15.69-17.27C869.3,349.65,874.87,356.09,874.87,364Z"/><path class="cls-7" d="M857.93,370,850,367.3v-1.23l7.92-4.82v2l-5.37,3.13,5.37,1.75Z"/><path class="cls-7" d="M864.66,359.34l-3.9,12-2.06.29,4-12.14Z"/><path class="cls-7" d="M865.34,367.24l4.59-2.65-4.59-2v-1.87l6.58,3.22V365l-6.58,4.1Z"/></g><path class="cls-24" d="M930.63,405.91l52.1,19.48-.58,1.5a.85.85,0,0,1-.85.62l-15.81-2.69a1.72,1.72,0,0,1-.54-.18l-34.3-17.09a.79.79,0,0,1-.26-1Z"/><path class="cls-24" d="M950.4,410.75,981.87,426a1.13,1.13,0,0,0,1.5-.76l10.73-27.86a1.25,1.25,0,0,0-.57-1.66L961,383.22a1.1,1.1,0,0,0-1.31.8L950,409.21A1.21,1.21,0,0,0,950.4,410.75Z"/><path class="cls-52" d="M949.88,410.55l31.47,15.28a1.14,1.14,0,0,0,1.51-.76l10.72-27.86a1.25,1.25,0,0,0-.57-1.66L960.48,383a1.11,1.11,0,0,0-1.3.8L949.48,409A1.22,1.22,0,0,0,949.88,410.55Z"/><path class="cls-53" d="M951.58,409.17,981,423.23a.94.94,0,0,0,1.23-.63l9.39-24.39a1,1,0,0,0-.46-1.36L960.87,385a.9.9,0,0,0-1.07.65l-8.56,22.22A1,1,0,0,0,951.58,409.17Z"/><path class="cls-7" d="M975.3,389.6a.48.48,0,0,0,.2.62.46.46,0,0,0,.55-.33.45.45,0,0,0-.19-.61A.46.46,0,0,0,975.3,389.6Z"/><path class="cls-54" d="M981.35,425.83,950,410.63l-.16-.08a.9.9,0,0,1-.45-.55,7.28,7.28,0,0,0,5.51-.27c2.64-1.25,3.06-3.32,5.58-3.84,3.15-.64,4.34,2.17,7,.88,1.63-.78,1.41-1.91,3.55-3.19,2.36-1.42,3.12-.34,5.42-1.56,2.89-1.53,2.58-3.72,5-4.71,2.87-1.2,4.42,1.53,7.16.37a6.61,6.61,0,0,0,2.86-2.72l1.52.59a1.25,1.25,0,0,1,.57,1.66l-10.72,27.86A1.14,1.14,0,0,1,981.35,425.83Z"/><path class="cls-55" d="M948.64,409.9l33.77,16.33L966,423.45a2.45,2.45,0,0,1-.54-.18l-34.85-17.36,17.45,3.8A2.31,2.31,0,0,1,948.64,409.9Z"/><polygon class="cls-24" points="977.31 424.3 949.21 410.66 939.69 408.58 967.48 422.29 977.31 424.3"/><path class="cls-56" d="M980.1,412.63a1.35,1.35,0,0,1-1.88.6L955.9,403a1.37,1.37,0,0,1-.75-1.7l5.41-13.57a1.27,1.27,0,0,1,1.68-.65l22.67,9a1.45,1.45,0,0,1,.94,1.79Z"/><path class="cls-44" d="M984.9,398.31l-24-9.71a.34.34,0,0,0-.44.17l-5,12.69a1,1,0,0,0,.57,1.3l22.33,10.17a1,1,0,0,0,1.43-.46l5.37-13.7A.37.37,0,0,0,984.9,398.31Z"/><path class="cls-57" d="M982.19,396.13a.56.56,0,0,1-.73.31.57.57,0,0,1-.31-.73.55.55,0,0,1,.72-.31A.57.57,0,0,1,982.19,396.13Z"/><path class="cls-58" d="M983.51,396.66a.56.56,0,1,1-.32-.74A.58.58,0,0,1,983.51,396.66Z"/><path class="cls-59" d="M984.84,397.19a.56.56,0,0,1-.73.32.57.57,0,0,1-.32-.74.57.57,0,0,1,.73-.32A.58.58,0,0,1,984.84,397.19Z"/><path class="cls-60" d="M972.55,395.76a.26.26,0,0,1-.34.15l-11-4.52a.27.27,0,0,1-.13-.34h0a.25.25,0,0,1,.32-.15l11,4.51a.27.27,0,0,1,.14.35Z"/><path class="cls-61" d="M976,397.17a.26.26,0,0,1-.35.15l-2.33-1a.27.27,0,0,1-.14-.36h0a.25.25,0,0,1,.34-.15l2.33,1a.27.27,0,0,1,.15.36Z"/><path class="cls-62" d="M979.32,398.55a.26.26,0,0,1-.35.15l-2.38-1a.27.27,0,0,1-.15-.36h0a.28.28,0,0,1,.35-.16l2.38,1a.28.28,0,0,1,.15.37Z"/><path class="cls-53" d="M963.29,393.27a.24.24,0,0,1-.33.15l-2.16-.9a.25.25,0,0,1-.13-.34h0A.24.24,0,0,1,961,392l2.17.9a.27.27,0,0,1,.13.34Z"/><path class="cls-63" d="M966.55,394.63a.25.25,0,0,1-.34.15l-2.2-.92a.27.27,0,0,1-.14-.34h0a.27.27,0,0,1,.34-.16l2.2.92a.26.26,0,0,1,.14.35Z"/><path class="cls-60" d="M969.92,397.59a.26.26,0,0,1-.34.15l-2.26-.95a.27.27,0,0,1-.14-.35h0a.26.26,0,0,1,.34-.15l2.26.94a.28.28,0,0,1,.14.36Z"/><path class="cls-60" d="M974.69,398a.26.26,0,0,1-.35.15l-6.23-2.6a.26.26,0,0,1-.14-.35h0a.25.25,0,0,1,.34-.15l6.23,2.58a.28.28,0,0,1,.15.37Z"/><path class="cls-63" d="M966.58,396.19a.25.25,0,0,1-.34.15l-5.94-2.51a.25.25,0,0,1-.13-.34h0a.24.24,0,0,1,.33-.15l6,2.5a.26.26,0,0,1,.13.35Z"/><path class="cls-53" d="M969.52,403.42a.26.26,0,0,1-.34.15l-10.88-4.79a.27.27,0,0,1-.13-.34h0a.24.24,0,0,1,.32-.14l10.88,4.77a.26.26,0,0,1,.14.35Z"/><path class="cls-62" d="M972.92,404.91a.25.25,0,0,1-.35.15l-2.31-1a.3.3,0,0,1-.15-.37h0a.27.27,0,0,1,.35-.15l2.31,1a.29.29,0,0,1,.15.37Z"/><path class="cls-63" d="M960.33,400.73a.26.26,0,0,1-.33.15l-2.15-.95a.28.28,0,0,1-.13-.35h0a.25.25,0,0,1,.33-.15l2.14.95a.27.27,0,0,1,.14.35Z"/><path class="cls-60" d="M963.56,402.17a.24.24,0,0,1-.33.14l-2.19-1a.26.26,0,0,1-.13-.35h0a.24.24,0,0,1,.33-.15l2.19,1a.28.28,0,0,1,.13.36Z"/><path class="cls-60" d="M966.9,405.23a.25.25,0,0,1-.34.14l-2.24-1a.29.29,0,0,1-.14-.36h0a.26.26,0,0,1,.34-.15l2.24,1a.29.29,0,0,1,.14.37Z"/><path class="cls-60" d="M970.51,406.84a.27.27,0,0,1-.35.15l-2.29-1a.28.28,0,0,1-.14-.36h0a.25.25,0,0,1,.34-.15l2.29,1a.3.3,0,0,1,.15.37Z"/><path class="cls-60" d="M971.64,405.75a.26.26,0,0,1-.35.15l-6.18-2.75a.28.28,0,0,1-.14-.36h0a.26.26,0,0,1,.34-.15l6.19,2.74a.29.29,0,0,1,.14.37Z"/><path class="cls-62" d="M963.59,403.74a.26.26,0,0,1-.34.15l-5.9-2.65a.27.27,0,0,1-.13-.35h0a.25.25,0,0,1,.33-.15l5.9,2.64a.28.28,0,0,1,.14.36Z"/><path class="cls-63" d="M974.54,408.65a.28.28,0,0,1-.36.15l-6.3-2.83a.29.29,0,0,1-.14-.37h0a.26.26,0,0,1,.34-.15l6.31,2.82a.3.3,0,0,1,.15.38Z"/><path class="cls-62" d="M970.71,400.4a.25.25,0,0,1-.34.15l-10.91-4.68a.27.27,0,0,1-.13-.34h0a.24.24,0,0,1,.32-.15L970.58,400a.28.28,0,0,1,.14.35Z"/><path class="cls-53" d="M961.46,397.94a.26.26,0,0,1-.34.15l-2.15-.93a.28.28,0,0,1-.13-.35h0a.26.26,0,0,1,.33-.15l2.15.93a.28.28,0,0,1,.14.35Z"/><path class="cls-60" d="M979.18,405.62a.27.27,0,0,1-.36.15l-2.39-1a.29.29,0,0,1-.16-.37h0a.28.28,0,0,1,.36-.15l2.4,1a.3.3,0,0,1,.15.38Z"/><path class="cls-63" d="M968.64,401.06a.25.25,0,0,1-.34.15l-6-2.63a.26.26,0,0,1-.13-.35h0a.24.24,0,0,1,.33-.15l6,2.62a.27.27,0,0,1,.14.36Z"/><path class="cls-61" d="M975.82,404.16a.26.26,0,0,1-.35.16l-6.32-2.74a.29.29,0,0,1-.14-.37h0a.26.26,0,0,1,.34-.15l6.32,2.73a.29.29,0,0,1,.15.37Z"/><path class="cls-64" d="M985.6,398.59l-5.5,14a1.36,1.36,0,0,1-1.88.61l-6.2-2.83s5.28-2.55,5.19-7.45,6.3-5.2,6.3-5.2Z"/><polygon class="cls-65" points="984.56 336.43 982.43 337.18 980.99 336.09 984.74 336.24 984.56 336.43"/><polyline class="cls-65" points="984.59 336.48 981.2 336.19 981.63 334.11 984.71 336.39"/><path class="cls-65" d="M984.43,336.43s-2.66-1.87-2.66-1.91-.36-.92-.36-.92l1.45-.37,1.88,3.2Z"/><polygon class="cls-65" points="984.17 336.39 982.59 332.84 984.27 332.85 984.56 336.43 984.17 336.39"/><polygon class="cls-65" points="984.86 336.21 985.37 332.89 984.07 332.36 984.49 336.3 984.86 336.21"/><polygon class="cls-65" points="984.56 336.18 984.86 336.33 986.42 333.33 985.34 332.5 984.56 336.18"/><polygon class="cls-65" points="984.74 336.48 987.19 334.37 986.31 333.39 984.67 336.13 984.74 336.48"/><polygon class="cls-65" points="984.74 336.48 987.05 335.67 987.47 334.76 986.94 334.23 984.74 336.1 984.74 336.48"/><polygon class="cls-51" points="985.65 334.52 985.4 333.98 985.11 334.05 984.92 335.56 984.56 336.23 984.19 336.63 984.25 336.64 984.31 337.23 984.13 337.32 984.13 337.37 984.43 337.31 984.77 337.52 985.02 337.42 984.9 337.25 984.48 337.18 984.37 336.67 984.38 336.67 984.49 336.47 984.59 336.5 984.84 337.06 984.67 337.18 984.88 337.13 985.22 337.35 985.45 337.31 985.45 337.09 984.94 337.06 984.78 336.54 985.4 336.04 985.45 335.11 985.19 334.42 985.65 334.61 985.65 334.52"/></g><g id="Contents"><path class="cls-66" d="M163.65,257.75q-22.08,0-39.21-8t-27-22A56.46,56.46,0,0,1,87.1,195.69h47.29a23.38,23.38,0,0,0,9.06,17.87,31.37,31.37,0,0,0,20.2,6.75,32.2,32.2,0,0,0,16.25-4A28.68,28.68,0,0,0,191,204.89,33.66,33.66,0,0,0,195,188a33.46,33.46,0,0,0-4-17,29.45,29.45,0,0,0-11.23-11.38,32.38,32.38,0,0,0-16.4-4.09,35.67,35.67,0,0,0-16.6,3.84,28.06,28.06,0,0,0-11.87,10.74l-43-8.08L100.6,53.24H230v39.3H140.69l-4.63,47.58h1.18q5-8.37,16.21-13.84a57.28,57.28,0,0,1,25.46-5.47q18.14,0,32.37,8.43a60.63,60.63,0,0,1,22.46,23.3Q242,167.4,242,186.62q0,20.79-9.8,36.85a68,68,0,0,1-27.39,25.17Q187.19,257.75,163.65,257.75Z"/><path class="cls-67" d="M352,259.91q-26.4,0-45.51-12.56T277,211.2q-10.33-23.59-10.24-56.79T277.18,98q10.29-23.2,29.36-35.37T352,50.48q26.4,0,45.56,12.16t29.51,35.42q10.33,23.25,10.24,56.35,0,33.3-10.34,56.94t-29.41,36.1Q378.51,259.91,352,259.91ZM352,220q15.76,0,25.52-16.11t9.65-49.5q0-21.87-4.43-36.11T370.42,97.07a26.87,26.87,0,0,0-18.42-7q-15.66,0-25.32,15.81t-9.75,48.52q-.1,22.17,4.29,36.74t12.36,21.73A26.8,26.8,0,0,0,352,220Z"/><path class="cls-67" d="M548.63,259.91q-26.4,0-45.51-12.56T473.66,211.2q-10.34-23.59-10.24-56.79T473.81,98q10.29-23.2,29.36-35.37t45.46-12.16q26.4,0,45.56,12.16T623.7,98.06q10.34,23.25,10.24,56.35,0,33.3-10.34,56.94t-29.41,36.1Q575.14,259.91,548.63,259.91Zm0-39.89q15.76,0,25.52-16.11t9.65-49.5q0-21.87-4.43-36.11T567.05,97.07a26.87,26.87,0,0,0-18.42-7q-15.66,0-25.32,15.81t-9.75,48.52q-.1,22.17,4.29,36.74t12.36,21.73A26.8,26.8,0,0,0,548.63,220Z"/><path d="M129.49,342a9.05,9.05,0,0,0-1.21-2.69,7.72,7.72,0,0,0-2-2,8.4,8.4,0,0,0-2.65-1.24,11.8,11.8,0,0,0-3.29-.43,10.93,10.93,0,0,0-6.21,1.74,11.16,11.16,0,0,0-4,5.06,20.38,20.38,0,0,0-1.42,8,21.35,21.35,0,0,0,1.37,8.12,10.42,10.42,0,0,0,10.31,6.88,13,13,0,0,0,5.57-1.08,7.66,7.66,0,0,0,3.46-3.05,8.9,8.9,0,0,0,1.19-4.66l2.22.26h-12v-8.71h21.33v6.54a21.86,21.86,0,0,1-2.82,11.38,18.89,18.89,0,0,1-7.72,7.26A24.29,24.29,0,0,1,120.29,376a24.55,24.55,0,0,1-12.44-3.07,21.18,21.18,0,0,1-8.35-8.75,28.6,28.6,0,0,1-3-13.51,30,30,0,0,1,1.81-10.81,22.93,22.93,0,0,1,5.06-8,21.76,21.76,0,0,1,7.54-5,26.34,26.34,0,0,1,17.24-.46,21.34,21.34,0,0,1,6.56,3.48,18.52,18.52,0,0,1,4.65,5.34,17.5,17.5,0,0,1,2.22,6.78Z"/><path d="M195.84,350.61a28.22,28.22,0,0,1-3.13,13.83,21.42,21.42,0,0,1-8.49,8.62,25.78,25.78,0,0,1-24,0,21.59,21.59,0,0,1-8.47-8.63,32.17,32.17,0,0,1,0-27.64,21.38,21.38,0,0,1,8.47-8.62,25.86,25.86,0,0,1,24,0,21.49,21.49,0,0,1,8.49,8.62A28.26,28.26,0,0,1,195.84,350.61Zm-12.22,0a21.65,21.65,0,0,0-1.36-8.17,10.77,10.77,0,0,0-3.91-5,10.73,10.73,0,0,0-16.16,5,25.19,25.19,0,0,0,0,16.33,10.71,10.71,0,0,0,20.07,0A21.56,21.56,0,0,0,183.62,350.61Z"/><path d="M202.8,375.33V325.88h11.95v39.75h20.57v9.7Z"/><path d="M259.79,375.33H241.51V325.88h18.25a26.94,26.94,0,0,1,13,3,20.35,20.35,0,0,1,8.44,8.5,31.13,31.13,0,0,1,0,26.52,20.28,20.28,0,0,1-8.44,8.52A27,27,0,0,1,259.79,375.33Zm-6.33-10.19h5.87a16,16,0,0,0,7-1.41,9.28,9.28,0,0,0,4.37-4.61,25.21,25.21,0,0,0,0-17.05,9.31,9.31,0,0,0-4.41-4.59,16.35,16.35,0,0,0-7.16-1.41h-5.7Z"/><path d="M291.15,375.33V325.88h34.49v9.71H303.11v10.14h20.76v9.73H303.11v10.17h22.53v9.7Z"/><path d="M375.21,325.88v49.45H365.07l-19.68-28.54h-.31v28.54h-12V325.88h10.29l19.46,28.49h.41V325.88Z"/><path d="M408.56,325.88l11.06,36.22H420l11.06-36.22h13.38l-16.69,49.45H411.87l-16.69-49.45Z"/><path d="M461.76,325.88v49.45h-12V325.88Z"/><path d="M496,340.71a5.64,5.64,0,0,0-2.14-4.15,8.56,8.56,0,0,0-5.39-1.48,10.77,10.77,0,0,0-3.87.6,5,5,0,0,0-2.31,1.66,4.07,4.07,0,0,0-.8,2.4,3.54,3.54,0,0,0,.45,2,4.7,4.7,0,0,0,1.44,1.48,10.35,10.35,0,0,0,2.31,1.12,24.35,24.35,0,0,0,3,.85l4.25,1a30.5,30.5,0,0,1,6.49,2.13,17.76,17.76,0,0,1,4.73,3.16,12.43,12.43,0,0,1,2.91,4.23,14.06,14.06,0,0,1,1,5.36,13.8,13.8,0,0,1-2.36,8,14.69,14.69,0,0,1-6.73,5.14A27.77,27.77,0,0,1,488.44,376a28.8,28.8,0,0,1-10.82-1.86,15.22,15.22,0,0,1-7.17-5.65,17.08,17.08,0,0,1-2.63-9.59h11.44a7.5,7.5,0,0,0,1.28,4,7,7,0,0,0,3.13,2.41,12,12,0,0,0,4.62.82,11.42,11.42,0,0,0,4.12-.65,6,6,0,0,0,2.62-1.81A4.25,4.25,0,0,0,496,361a3.65,3.65,0,0,0-.87-2.4,6.85,6.85,0,0,0-2.59-1.74,28.7,28.7,0,0,0-4.46-1.36l-5.17-1.21a22.39,22.39,0,0,1-10.11-4.77,11.24,11.24,0,0,1-3.67-8.92,13.22,13.22,0,0,1,2.46-8,16.41,16.41,0,0,1,6.88-5.39,24.8,24.8,0,0,1,10-1.93,23.74,23.74,0,0,1,10,1.95,15.43,15.43,0,0,1,6.58,5.44,14.55,14.55,0,0,1,2.39,8.12Z"/><path d="M523.31,375.33H510.46l16.69-49.45h15.91l16.69,49.45H546.9l-11.61-37h-.39Zm-1.72-19.46h26.86V365H521.59Z"/><path d="M590.27,340.71a5.64,5.64,0,0,0-2.14-4.15,8.57,8.57,0,0,0-5.4-1.48,10.75,10.75,0,0,0-3.86.6,5.1,5.1,0,0,0-2.32,1.66,4.06,4.06,0,0,0-.79,2.4,3.45,3.45,0,0,0,.44,2,4.74,4.74,0,0,0,1.45,1.48A10.35,10.35,0,0,0,580,344.3a23.87,23.87,0,0,0,3,.85l4.25,1a30.22,30.22,0,0,1,6.48,2.13,17.66,17.66,0,0,1,4.74,3.16,12.43,12.43,0,0,1,2.91,4.23,14.06,14.06,0,0,1,1,5.36,13.73,13.73,0,0,1-2.37,8,14.66,14.66,0,0,1-6.72,5.14A27.79,27.79,0,0,1,582.73,376a28.78,28.78,0,0,1-10.81-1.86,15.29,15.29,0,0,1-7.18-5.65,17.24,17.24,0,0,1-2.63-9.59h11.45a7.5,7.5,0,0,0,1.28,4,6.93,6.93,0,0,0,3.13,2.41,12,12,0,0,0,4.62.82,11.46,11.46,0,0,0,4.12-.65,6,6,0,0,0,2.62-1.81,4.31,4.31,0,0,0,.94-2.66,3.75,3.75,0,0,0-.87-2.4,6.81,6.81,0,0,0-2.6-1.74,28.21,28.21,0,0,0-4.45-1.36l-5.17-1.21a22.48,22.48,0,0,1-10.12-4.77,11.3,11.3,0,0,1-3.67-8.92,13.3,13.3,0,0,1,2.47-8,16.35,16.35,0,0,1,6.88-5.39,24.8,24.8,0,0,1,10-1.93,23.66,23.66,0,0,1,10,1.95,15.37,15.37,0,0,1,6.58,5.44,14.47,14.47,0,0,1,2.39,8.12Z"/><path d="M97,446.33V396.88h33.76v9.71H109v10.14h19.65v9.73H109v19.87Z"/><path d="M183.46,421.61a28.22,28.22,0,0,1-3.14,13.83,21.42,21.42,0,0,1-8.49,8.62,25.78,25.78,0,0,1-24,0,21.5,21.5,0,0,1-8.46-8.63,32.07,32.07,0,0,1,0-27.64,21.29,21.29,0,0,1,8.46-8.62,25.86,25.86,0,0,1,24,0,21.49,21.49,0,0,1,8.49,8.62A28.26,28.26,0,0,1,183.46,421.61Zm-12.22,0a21.64,21.64,0,0,0-1.37-8.17,10.77,10.77,0,0,0-3.91-5,10.72,10.72,0,0,0-16.15,5,25,25,0,0,0,0,16.33,10.71,10.71,0,0,0,20.06,0A21.55,21.55,0,0,0,171.24,421.61Z"/><path d="M190.41,446.33V396.88h20.43a21.51,21.51,0,0,1,9.6,2,14.61,14.61,0,0,1,6.24,5.7,17,17,0,0,1,2.2,8.78,16.1,16.1,0,0,1-2.25,8.73,14.2,14.2,0,0,1-6.37,5.45,23.54,23.54,0,0,1-9.78,1.88H197.56V420h10.7a12.57,12.57,0,0,0,4.52-.71,5.6,5.6,0,0,0,2.77-2.18,6.77,6.77,0,0,0,.94-3.75,7.08,7.08,0,0,0-.94-3.81,5.84,5.84,0,0,0-2.78-2.27,11.94,11.94,0,0,0-4.51-.76h-5.9v39.82Zm27.84-22.6,12.32,22.6h-13l-12.08-22.6Z"/><path d="M248.44,406.59v-9.71h41.8v9.71h-15v39.74H263.46V406.59Z"/><path d="M296.1,446.33V396.88h12v19.85h19.48V396.88h11.93v49.45H327.54V426.46H308.06v19.87Z"/><path d="M347,446.33V396.88h34.48v9.71H358.91v10.14h20.77v9.73H358.91v10.17h22.53v9.7Z"/><path d="M403.56,446.33V396.88h20.62a24.11,24.11,0,0,1,9.31,1.57,12.29,12.29,0,0,1,5.65,4.39,11.46,11.46,0,0,1,1.9,6.55,10.47,10.47,0,0,1-1.19,5,10.31,10.31,0,0,1-3.26,3.66,13,13,0,0,1-4.8,2v.48a12.13,12.13,0,0,1,5.54,1.62,11.22,11.22,0,0,1,4.09,4.09,12,12,0,0,1,1.55,6.2,12.82,12.82,0,0,1-2,7.11,13.73,13.73,0,0,1-5.87,4.92,21.82,21.82,0,0,1-9.32,1.8Zm11.95-29.12h6.62a8.89,8.89,0,0,0,3.48-.65,5.53,5.53,0,0,0,2.38-1.88,5.11,5.11,0,0,0,.85-3,4.75,4.75,0,0,0-1.76-3.92,7.34,7.34,0,0,0-4.76-1.42h-6.81Zm0,19.49h7.39c2.59,0,4.51-.49,5.74-1.48a4.94,4.94,0,0,0,1.85-4.1,6,6,0,0,0-.9-3.3,5.89,5.89,0,0,0-2.53-2.15,9.45,9.45,0,0,0-3.94-.76h-7.61Z"/><path d="M448.72,446.33V396.88H483.2v9.71H460.67v10.14h20.77v9.73H460.67v10.17H483.2v9.7Z"/><path d="M517.42,411.71a5.67,5.67,0,0,0-2.14-4.15,8.57,8.57,0,0,0-5.4-1.48,10.75,10.75,0,0,0-3.86.6,5.1,5.1,0,0,0-2.32,1.66,4.14,4.14,0,0,0-.8,2.4,3.54,3.54,0,0,0,.45,2,4.63,4.63,0,0,0,1.45,1.48,10.14,10.14,0,0,0,2.31,1.12,23.87,23.87,0,0,0,3,.85l4.25,1a30.22,30.22,0,0,1,6.48,2.13,17.66,17.66,0,0,1,4.74,3.16,12.4,12.4,0,0,1,2.9,4.23,14.26,14.26,0,0,1,1,5.36,13.88,13.88,0,0,1-2.37,8,14.66,14.66,0,0,1-6.72,5.14A27.82,27.82,0,0,1,509.88,447a28.87,28.87,0,0,1-10.82-1.86,15.32,15.32,0,0,1-7.17-5.65,17.24,17.24,0,0,1-2.63-9.59h11.45a7.42,7.42,0,0,0,1.28,4,7,7,0,0,0,3.12,2.41,12,12,0,0,0,4.63.82,11.46,11.46,0,0,0,4.12-.65,6,6,0,0,0,2.62-1.81,4.31,4.31,0,0,0,.94-2.66,3.75,3.75,0,0,0-.87-2.4,6.89,6.89,0,0,0-2.6-1.74,28.54,28.54,0,0,0-4.45-1.36l-5.17-1.21a22.43,22.43,0,0,1-10.12-4.77,11.27,11.27,0,0,1-3.67-8.92,13.29,13.29,0,0,1,2.46-8,16.44,16.44,0,0,1,6.89-5.39,24.8,24.8,0,0,1,10-1.93,23.66,23.66,0,0,1,10,1.95,15.37,15.37,0,0,1,6.58,5.44,14.55,14.55,0,0,1,2.39,8.12Z"/><path d="M534,406.59v-9.71h41.8v9.71h-15v39.74H549V406.59Z"/><path d="M141.92,485.8H129.85a10.45,10.45,0,0,0-1-3.36,8.19,8.19,0,0,0-2-2.56,8.61,8.61,0,0,0-2.91-1.63,11.5,11.5,0,0,0-3.71-.57,10.71,10.71,0,0,0-6.19,1.77,11.14,11.14,0,0,0-4,5.09,24.53,24.53,0,0,0,0,16.31,10.79,10.79,0,0,0,4,5,10.92,10.92,0,0,0,6.1,1.68,12.07,12.07,0,0,0,3.61-.51,8.88,8.88,0,0,0,2.87-1.48,8.32,8.32,0,0,0,2.06-2.39,9.87,9.87,0,0,0,1.12-3.2l12.07.07a18.48,18.48,0,0,1-1.89,6.47,20.72,20.72,0,0,1-4.34,5.81,20.4,20.4,0,0,1-6.7,4.16,24.64,24.64,0,0,1-9,1.55,24.21,24.21,0,0,1-12-3,21,21,0,0,1-8.37-8.63,32.43,32.43,0,0,1,.05-27.65,21.26,21.26,0,0,1,8.42-8.62A24.07,24.07,0,0,1,120,467.2a26.71,26.71,0,0,1,8.31,1.25,20.39,20.39,0,0,1,6.71,3.62,18.68,18.68,0,0,1,4.71,5.83A21.41,21.41,0,0,1,141.92,485.8Z"/><path d="M195.41,492.61a28.22,28.22,0,0,1-3.14,13.83,21.3,21.3,0,0,1-8.49,8.62,25.78,25.78,0,0,1-24,0,21.5,21.5,0,0,1-8.46-8.63,32.07,32.07,0,0,1,0-27.64,21.29,21.29,0,0,1,8.46-8.62,25.86,25.86,0,0,1,24,0,21.36,21.36,0,0,1,8.49,8.62A28.26,28.26,0,0,1,195.41,492.61Zm-12.22,0a21.65,21.65,0,0,0-1.36-8.17,10.78,10.78,0,0,0-3.92-5,11.73,11.73,0,0,0-12.23,0,10.78,10.78,0,0,0-3.92,5,25.19,25.19,0,0,0,0,16.33,10.19,10.19,0,0,0,10,6.76,10.62,10.62,0,0,0,6.12-1.72,10.78,10.78,0,0,0,3.92-5A21.56,21.56,0,0,0,183.19,492.61Z"/><path d="M220.64,517.33H202.36V467.88h18.26a26.94,26.94,0,0,1,13,3,20.4,20.4,0,0,1,8.44,8.5,31.13,31.13,0,0,1,0,26.52,20.34,20.34,0,0,1-8.44,8.52A27.06,27.06,0,0,1,220.64,517.33Zm-6.32-10.19h5.86a15.92,15.92,0,0,0,7-1.41,9.24,9.24,0,0,0,4.37-4.61,20.51,20.51,0,0,0,1.49-8.54,20.16,20.16,0,0,0-1.5-8.51,9.31,9.31,0,0,0-4.41-4.59,16.3,16.3,0,0,0-7.15-1.41h-5.7Z"/><path d="M252,517.33V467.88h34.48v9.71H264v10.14h20.77v9.73H264v10.17h22.53v9.7Z"/><path d="M294,517.33V467.88h20.43a21.51,21.51,0,0,1,9.6,2,14.61,14.61,0,0,1,6.24,5.7,17,17,0,0,1,2.2,8.78,16.1,16.1,0,0,1-2.25,8.73,14.2,14.2,0,0,1-6.37,5.45,23.54,23.54,0,0,1-9.78,1.88H301.13V491h10.69a12.59,12.59,0,0,0,4.53-.71,5.6,5.6,0,0,0,2.77-2.18,6.86,6.86,0,0,0,.94-3.75,7.17,7.17,0,0,0-.94-3.81,5.84,5.84,0,0,0-2.78-2.27,12,12,0,0,0-4.52-.76h-5.89v39.82Zm27.84-22.6,12.32,22.6h-13L309,494.73Z"/><path d="M365.72,482.71a5.64,5.64,0,0,0-2.14-4.15,8.56,8.56,0,0,0-5.39-1.48,10.77,10.77,0,0,0-3.87.6,5,5,0,0,0-2.31,1.66,4,4,0,0,0-.8,2.4,3.54,3.54,0,0,0,.45,2,4.59,4.59,0,0,0,1.44,1.48,10.35,10.35,0,0,0,2.31,1.12,24.35,24.35,0,0,0,3,.85l4.25,1a30.5,30.5,0,0,1,6.49,2.13,17.76,17.76,0,0,1,4.73,3.16,12.43,12.43,0,0,1,2.91,4.23,14.06,14.06,0,0,1,1,5.36,13.8,13.8,0,0,1-2.36,8,14.69,14.69,0,0,1-6.73,5.14A27.77,27.77,0,0,1,358.19,518a28.8,28.8,0,0,1-10.82-1.86,15.22,15.22,0,0,1-7.17-5.65,17.16,17.16,0,0,1-2.64-9.59H349a7.5,7.5,0,0,0,1.28,4,7,7,0,0,0,3.13,2.41,12,12,0,0,0,4.62.82,11.46,11.46,0,0,0,4.12-.65,6,6,0,0,0,2.62-1.81,4.25,4.25,0,0,0,.94-2.66,3.65,3.65,0,0,0-.87-2.4,6.85,6.85,0,0,0-2.59-1.74,28.7,28.7,0,0,0-4.46-1.36l-5.17-1.21a22.39,22.39,0,0,1-10.11-4.77,11.28,11.28,0,0,1-3.68-8.92,13.3,13.3,0,0,1,2.47-8,16.41,16.41,0,0,1,6.88-5.39,24.8,24.8,0,0,1,10-1.93,23.74,23.74,0,0,1,10,1.95,15.49,15.49,0,0,1,6.58,5.44,14.63,14.63,0,0,1,2.39,8.12Z"/><path d="M410.49,467.88v49.45H398.54V467.88Z"/><path d="M460.07,467.88v49.45H449.92l-19.68-28.54h-.31v28.54H418V467.88h10.28l19.47,28.49h.41V467.88Z"/><path d="M95.41,548.59v-9.71h41.8v9.71h-15v39.74H110.43V548.59Z"/><path d="M143.08,588.33V538.88h12v19.85h19.48V538.88h11.93v49.45H174.52V568.46H155v19.87Z"/><path d="M193.94,588.33V538.88h34.48v9.71H205.89v10.14h20.77v9.73H205.89v10.17h22.53v9.7Z"/><path d="M262.4,588.33,248,538.88h13.21l7.46,32.41h.41l8.53-32.41h10.77l8.52,32.48h.41l7.49-32.48H318l-14.36,49.45H292.1l-8.91-30h-.39l-8.91,30Z"/><path d="M366.67,563.61a28.22,28.22,0,0,1-3.14,13.83,21.42,21.42,0,0,1-8.49,8.62,25.78,25.78,0,0,1-24,0,21.59,21.59,0,0,1-8.47-8.63,32.17,32.17,0,0,1,0-27.64,21.38,21.38,0,0,1,8.47-8.62,25.86,25.86,0,0,1,24,0,21.49,21.49,0,0,1,8.49,8.62A28.26,28.26,0,0,1,366.67,563.61Zm-12.22,0a21.64,21.64,0,0,0-1.37-8.17,10.77,10.77,0,0,0-3.91-5,10.73,10.73,0,0,0-16.16,5,25.19,25.19,0,0,0,0,16.33,10.71,10.71,0,0,0,20.07,0A21.55,21.55,0,0,0,354.45,563.61Z"/><path d="M373.62,588.33V538.88h20.43a21.51,21.51,0,0,1,9.6,2,14.61,14.61,0,0,1,6.24,5.7,17,17,0,0,1,2.2,8.78,16.1,16.1,0,0,1-2.25,8.73,14.2,14.2,0,0,1-6.37,5.45,23.54,23.54,0,0,1-9.78,1.88H380.77V562h10.69a12.59,12.59,0,0,0,4.53-.71,5.6,5.6,0,0,0,2.77-2.18,6.86,6.86,0,0,0,.94-3.75,7.17,7.17,0,0,0-.94-3.81,5.84,5.84,0,0,0-2.78-2.27,12,12,0,0,0-4.52-.76h-5.89v39.82Zm27.84-22.6,12.32,22.6h-13l-12.08-22.6Z"/><path d="M418.63,588.33V538.88h11.95v39.75h20.58v9.7Z"/><path d="M475.62,588.33H457.34V538.88h18.25a26.91,26.91,0,0,1,13,3,20.35,20.35,0,0,1,8.44,8.5,31.13,31.13,0,0,1,0,26.52,20.28,20.28,0,0,1-8.44,8.52A27,27,0,0,1,475.62,588.33Zm-6.33-10.19h5.87a16,16,0,0,0,7-1.41,9.28,9.28,0,0,0,4.37-4.61,20.53,20.53,0,0,0,1.48-8.54,20.17,20.17,0,0,0-1.49-8.51,9.31,9.31,0,0,0-4.41-4.59,16.35,16.35,0,0,0-7.16-1.41h-5.7Z"/><path class="cls-68" d="M129.49,342a9.05,9.05,0,0,0-1.21-2.69,7.72,7.72,0,0,0-2-2,8.4,8.4,0,0,0-2.65-1.24,11.8,11.8,0,0,0-3.29-.43,10.93,10.93,0,0,0-6.21,1.74,11.16,11.16,0,0,0-4,5.06,20.38,20.38,0,0,0-1.42,8,21.35,21.35,0,0,0,1.37,8.12,10.42,10.42,0,0,0,10.31,6.88,13,13,0,0,0,5.57-1.08,7.66,7.66,0,0,0,3.46-3.05,8.9,8.9,0,0,0,1.19-4.66l2.22.26h-12v-8.71h21.33v6.54a21.86,21.86,0,0,1-2.82,11.38,18.89,18.89,0,0,1-7.72,7.26A24.29,24.29,0,0,1,120.29,376a24.55,24.55,0,0,1-12.44-3.07,21.18,21.18,0,0,1-8.35-8.75,28.6,28.6,0,0,1-3-13.51,30,30,0,0,1,1.81-10.81,22.93,22.93,0,0,1,5.06-8,21.76,21.76,0,0,1,7.54-5,26.34,26.34,0,0,1,17.24-.46,21.34,21.34,0,0,1,6.56,3.48,18.52,18.52,0,0,1,4.65,5.34,17.5,17.5,0,0,1,2.22,6.78Z"/><path class="cls-68" d="M195.84,350.61a28.22,28.22,0,0,1-3.13,13.83,21.42,21.42,0,0,1-8.49,8.62,25.78,25.78,0,0,1-24,0,21.59,21.59,0,0,1-8.47-8.63,32.17,32.17,0,0,1,0-27.64,21.38,21.38,0,0,1,8.47-8.62,25.86,25.86,0,0,1,24,0,21.49,21.49,0,0,1,8.49,8.62A28.26,28.26,0,0,1,195.84,350.61Zm-12.22,0a21.65,21.65,0,0,0-1.36-8.17,10.77,10.77,0,0,0-3.91-5,10.73,10.73,0,0,0-16.16,5,25.19,25.19,0,0,0,0,16.33,10.71,10.71,0,0,0,20.07,0A21.56,21.56,0,0,0,183.62,350.61Z"/><path class="cls-68" d="M202.8,375.33V325.88h11.95v39.75h20.57v9.7Z"/><path class="cls-68" d="M259.79,375.33H241.51V325.88h18.25a26.94,26.94,0,0,1,13,3,20.35,20.35,0,0,1,8.44,8.5,31.13,31.13,0,0,1,0,26.52,20.28,20.28,0,0,1-8.44,8.52A27,27,0,0,1,259.79,375.33Zm-6.33-10.19h5.87a16,16,0,0,0,7-1.41,9.28,9.28,0,0,0,4.37-4.61,25.21,25.21,0,0,0,0-17.05,9.31,9.31,0,0,0-4.41-4.59,16.35,16.35,0,0,0-7.16-1.41h-5.7Z"/><path class="cls-68" d="M291.15,375.33V325.88h34.49v9.71H303.11v10.14h20.76v9.73H303.11v10.17h22.53v9.7Z"/><path class="cls-68" d="M375.21,325.88v49.45H365.07l-19.68-28.54h-.31v28.54h-12V325.88h10.29l19.46,28.49h.41V325.88Z"/><path class="cls-68" d="M408.56,325.88l11.06,36.22H420l11.06-36.22h13.38l-16.69,49.45H411.87l-16.69-49.45Z"/><path class="cls-68" d="M461.76,325.88v49.45h-12V325.88Z"/><path class="cls-68" d="M496,340.71a5.64,5.64,0,0,0-2.14-4.15,8.56,8.56,0,0,0-5.39-1.48,10.77,10.77,0,0,0-3.87.6,5,5,0,0,0-2.31,1.66,4.07,4.07,0,0,0-.8,2.4,3.54,3.54,0,0,0,.45,2,4.7,4.7,0,0,0,1.44,1.48,10.35,10.35,0,0,0,2.31,1.12,24.35,24.35,0,0,0,3,.85l4.25,1a30.5,30.5,0,0,1,6.49,2.13,17.76,17.76,0,0,1,4.73,3.16,12.43,12.43,0,0,1,2.91,4.23,14.06,14.06,0,0,1,1,5.36,13.8,13.8,0,0,1-2.36,8,14.69,14.69,0,0,1-6.73,5.14A27.77,27.77,0,0,1,488.44,376a28.8,28.8,0,0,1-10.82-1.86,15.22,15.22,0,0,1-7.17-5.65,17.08,17.08,0,0,1-2.63-9.59h11.44a7.5,7.5,0,0,0,1.28,4,7,7,0,0,0,3.13,2.41,12,12,0,0,0,4.62.82,11.42,11.42,0,0,0,4.12-.65,6,6,0,0,0,2.62-1.81A4.25,4.25,0,0,0,496,361a3.65,3.65,0,0,0-.87-2.4,6.85,6.85,0,0,0-2.59-1.74,28.7,28.7,0,0,0-4.46-1.36l-5.17-1.21a22.39,22.39,0,0,1-10.11-4.77,11.24,11.24,0,0,1-3.67-8.92,13.22,13.22,0,0,1,2.46-8,16.41,16.41,0,0,1,6.88-5.39,24.8,24.8,0,0,1,10-1.93,23.74,23.74,0,0,1,10,1.95,15.43,15.43,0,0,1,6.58,5.44,14.55,14.55,0,0,1,2.39,8.12Z"/><path class="cls-68" d="M523.31,375.33H510.46l16.69-49.45h15.91l16.69,49.45H546.9l-11.61-37h-.39Zm-1.72-19.46h26.86V365H521.59Z"/><path class="cls-68" d="M590.27,340.71a5.64,5.64,0,0,0-2.14-4.15,8.57,8.57,0,0,0-5.4-1.48,10.75,10.75,0,0,0-3.86.6,5.1,5.1,0,0,0-2.32,1.66,4.06,4.06,0,0,0-.79,2.4,3.45,3.45,0,0,0,.44,2,4.74,4.74,0,0,0,1.45,1.48A10.35,10.35,0,0,0,580,344.3a23.87,23.87,0,0,0,3,.85l4.25,1a30.22,30.22,0,0,1,6.48,2.13,17.66,17.66,0,0,1,4.74,3.16,12.43,12.43,0,0,1,2.91,4.23,14.06,14.06,0,0,1,1,5.36,13.73,13.73,0,0,1-2.37,8,14.66,14.66,0,0,1-6.72,5.14A27.79,27.79,0,0,1,582.73,376a28.78,28.78,0,0,1-10.81-1.86,15.29,15.29,0,0,1-7.18-5.65,17.24,17.24,0,0,1-2.63-9.59h11.45a7.5,7.5,0,0,0,1.28,4,6.93,6.93,0,0,0,3.13,2.41,12,12,0,0,0,4.62.82,11.46,11.46,0,0,0,4.12-.65,6,6,0,0,0,2.62-1.81,4.31,4.31,0,0,0,.94-2.66,3.75,3.75,0,0,0-.87-2.4,6.81,6.81,0,0,0-2.6-1.74,28.21,28.21,0,0,0-4.45-1.36l-5.17-1.21a22.48,22.48,0,0,1-10.12-4.77,11.3,11.3,0,0,1-3.67-8.92,13.3,13.3,0,0,1,2.47-8,16.35,16.35,0,0,1,6.88-5.39,24.8,24.8,0,0,1,10-1.93,23.66,23.66,0,0,1,10,1.95,15.37,15.37,0,0,1,6.58,5.44,14.47,14.47,0,0,1,2.39,8.12Z"/><path class="cls-68" d="M97,446.33V396.88h33.76v9.71H109v10.14h19.65v9.73H109v19.87Z"/><path class="cls-68" d="M183.46,421.61a28.22,28.22,0,0,1-3.14,13.83,21.42,21.42,0,0,1-8.49,8.62,25.78,25.78,0,0,1-24,0,21.5,21.5,0,0,1-8.46-8.63,32.07,32.07,0,0,1,0-27.64,21.29,21.29,0,0,1,8.46-8.62,25.86,25.86,0,0,1,24,0,21.49,21.49,0,0,1,8.49,8.62A28.26,28.26,0,0,1,183.46,421.61Zm-12.22,0a21.64,21.64,0,0,0-1.37-8.17,10.77,10.77,0,0,0-3.91-5,10.72,10.72,0,0,0-16.15,5,25,25,0,0,0,0,16.33,10.71,10.71,0,0,0,20.06,0A21.55,21.55,0,0,0,171.24,421.61Z"/><path class="cls-68" d="M190.41,446.33V396.88h20.43a21.51,21.51,0,0,1,9.6,2,14.61,14.61,0,0,1,6.24,5.7,17,17,0,0,1,2.2,8.78,16.1,16.1,0,0,1-2.25,8.73,14.2,14.2,0,0,1-6.37,5.45,23.54,23.54,0,0,1-9.78,1.88H197.56V420h10.7a12.57,12.57,0,0,0,4.52-.71,5.6,5.6,0,0,0,2.77-2.18,6.77,6.77,0,0,0,.94-3.75,7.08,7.08,0,0,0-.94-3.81,5.84,5.84,0,0,0-2.78-2.27,11.94,11.94,0,0,0-4.51-.76h-5.9v39.82Zm27.84-22.6,12.32,22.6h-13l-12.08-22.6Z"/><path class="cls-68" d="M248.44,406.59v-9.71h41.8v9.71h-15v39.74H263.46V406.59Z"/><path class="cls-68" d="M296.1,446.33V396.88h12v19.85h19.48V396.88h11.93v49.45H327.54V426.46H308.06v19.87Z"/><path class="cls-68" d="M347,446.33V396.88h34.48v9.71H358.91v10.14h20.77v9.73H358.91v10.17h22.53v9.7Z"/><path class="cls-68" d="M403.56,446.33V396.88h20.62a24.11,24.11,0,0,1,9.31,1.57,12.29,12.29,0,0,1,5.65,4.39,11.46,11.46,0,0,1,1.9,6.55,10.47,10.47,0,0,1-1.19,5,10.31,10.31,0,0,1-3.26,3.66,13,13,0,0,1-4.8,2v.48a12.13,12.13,0,0,1,5.54,1.62,11.22,11.22,0,0,1,4.09,4.09,12,12,0,0,1,1.55,6.2,12.82,12.82,0,0,1-2,7.11,13.73,13.73,0,0,1-5.87,4.92,21.82,21.82,0,0,1-9.32,1.8Zm11.95-29.12h6.62a8.89,8.89,0,0,0,3.48-.65,5.53,5.53,0,0,0,2.38-1.88,5.11,5.11,0,0,0,.85-3,4.75,4.75,0,0,0-1.76-3.92,7.34,7.34,0,0,0-4.76-1.42h-6.81Zm0,19.49h7.39c2.59,0,4.51-.49,5.74-1.48a4.94,4.94,0,0,0,1.85-4.1,6,6,0,0,0-.9-3.3,5.89,5.89,0,0,0-2.53-2.15,9.45,9.45,0,0,0-3.94-.76h-7.61Z"/><path class="cls-68" d="M448.72,446.33V396.88H483.2v9.71H460.67v10.14h20.77v9.73H460.67v10.17H483.2v9.7Z"/><path class="cls-68" d="M517.42,411.71a5.67,5.67,0,0,0-2.14-4.15,8.57,8.57,0,0,0-5.4-1.48,10.75,10.75,0,0,0-3.86.6,5.1,5.1,0,0,0-2.32,1.66,4.14,4.14,0,0,0-.8,2.4,3.54,3.54,0,0,0,.45,2,4.63,4.63,0,0,0,1.45,1.48,10.14,10.14,0,0,0,2.31,1.12,23.87,23.87,0,0,0,3,.85l4.25,1a30.22,30.22,0,0,1,6.48,2.13,17.66,17.66,0,0,1,4.74,3.16,12.4,12.4,0,0,1,2.9,4.23,14.26,14.26,0,0,1,1,5.36,13.88,13.88,0,0,1-2.37,8,14.66,14.66,0,0,1-6.72,5.14A27.82,27.82,0,0,1,509.88,447a28.87,28.87,0,0,1-10.82-1.86,15.32,15.32,0,0,1-7.17-5.65,17.24,17.24,0,0,1-2.63-9.59h11.45a7.42,7.42,0,0,0,1.28,4,7,7,0,0,0,3.12,2.41,12,12,0,0,0,4.63.82,11.46,11.46,0,0,0,4.12-.65,6,6,0,0,0,2.62-1.81,4.31,4.31,0,0,0,.94-2.66,3.75,3.75,0,0,0-.87-2.4,6.89,6.89,0,0,0-2.6-1.74,28.54,28.54,0,0,0-4.45-1.36l-5.17-1.21a22.43,22.43,0,0,1-10.12-4.77,11.27,11.27,0,0,1-3.67-8.92,13.29,13.29,0,0,1,2.46-8,16.44,16.44,0,0,1,6.89-5.39,24.8,24.8,0,0,1,10-1.93,23.66,23.66,0,0,1,10,1.95,15.37,15.37,0,0,1,6.58,5.44,14.55,14.55,0,0,1,2.39,8.12Z"/><path class="cls-68" d="M534,406.59v-9.71h41.8v9.71h-15v39.74H549V406.59Z"/><path class="cls-68" d="M141.92,485.8H129.85a10.45,10.45,0,0,0-1-3.36,8.19,8.19,0,0,0-2-2.56,8.61,8.61,0,0,0-2.91-1.63,11.5,11.5,0,0,0-3.71-.57,10.71,10.71,0,0,0-6.19,1.77,11.14,11.14,0,0,0-4,5.09,24.53,24.53,0,0,0,0,16.31,10.79,10.79,0,0,0,4,5,10.92,10.92,0,0,0,6.1,1.68,12.07,12.07,0,0,0,3.61-.51,8.88,8.88,0,0,0,2.87-1.48,8.32,8.32,0,0,0,2.06-2.39,9.87,9.87,0,0,0,1.12-3.2l12.07.07a18.48,18.48,0,0,1-1.89,6.47,20.72,20.72,0,0,1-4.34,5.81,20.4,20.4,0,0,1-6.7,4.16,24.64,24.64,0,0,1-9,1.55,24.21,24.21,0,0,1-12-3,21,21,0,0,1-8.37-8.63,32.43,32.43,0,0,1,.05-27.65,21.26,21.26,0,0,1,8.42-8.62A24.07,24.07,0,0,1,120,467.2a26.71,26.71,0,0,1,8.31,1.25,20.39,20.39,0,0,1,6.71,3.62,18.68,18.68,0,0,1,4.71,5.83A21.41,21.41,0,0,1,141.92,485.8Z"/><path class="cls-68" d="M195.41,492.61a28.22,28.22,0,0,1-3.14,13.83,21.3,21.3,0,0,1-8.49,8.62,25.78,25.78,0,0,1-24,0,21.5,21.5,0,0,1-8.46-8.63,32.07,32.07,0,0,1,0-27.64,21.29,21.29,0,0,1,8.46-8.62,25.86,25.86,0,0,1,24,0,21.36,21.36,0,0,1,8.49,8.62A28.26,28.26,0,0,1,195.41,492.61Zm-12.22,0a21.65,21.65,0,0,0-1.36-8.17,10.78,10.78,0,0,0-3.92-5,11.73,11.73,0,0,0-12.23,0,10.78,10.78,0,0,0-3.92,5,25.19,25.19,0,0,0,0,16.33,10.19,10.19,0,0,0,10,6.76,10.62,10.62,0,0,0,6.12-1.72,10.78,10.78,0,0,0,3.92-5A21.56,21.56,0,0,0,183.19,492.61Z"/><path class="cls-68" d="M220.64,517.33H202.36V467.88h18.26a26.94,26.94,0,0,1,13,3,20.4,20.4,0,0,1,8.44,8.5,31.13,31.13,0,0,1,0,26.52,20.34,20.34,0,0,1-8.44,8.52A27.06,27.06,0,0,1,220.64,517.33Zm-6.32-10.19h5.86a15.92,15.92,0,0,0,7-1.41,9.24,9.24,0,0,0,4.37-4.61,20.51,20.51,0,0,0,1.49-8.54,20.16,20.16,0,0,0-1.5-8.51,9.31,9.31,0,0,0-4.41-4.59,16.3,16.3,0,0,0-7.15-1.41h-5.7Z"/><path class="cls-68" d="M252,517.33V467.88h34.48v9.71H264v10.14h20.77v9.73H264v10.17h22.53v9.7Z"/><path class="cls-68" d="M294,517.33V467.88h20.43a21.51,21.51,0,0,1,9.6,2,14.61,14.61,0,0,1,6.24,5.7,17,17,0,0,1,2.2,8.78,16.1,16.1,0,0,1-2.25,8.73,14.2,14.2,0,0,1-6.37,5.45,23.54,23.54,0,0,1-9.78,1.88H301.13V491h10.69a12.59,12.59,0,0,0,4.53-.71,5.6,5.6,0,0,0,2.77-2.18,6.86,6.86,0,0,0,.94-3.75,7.17,7.17,0,0,0-.94-3.81,5.84,5.84,0,0,0-2.78-2.27,12,12,0,0,0-4.52-.76h-5.89v39.82Zm27.84-22.6,12.32,22.6h-13L309,494.73Z"/><path class="cls-68" d="M365.72,482.71a5.64,5.64,0,0,0-2.14-4.15,8.56,8.56,0,0,0-5.39-1.48,10.77,10.77,0,0,0-3.87.6,5,5,0,0,0-2.31,1.66,4,4,0,0,0-.8,2.4,3.54,3.54,0,0,0,.45,2,4.59,4.59,0,0,0,1.44,1.48,10.35,10.35,0,0,0,2.31,1.12,24.35,24.35,0,0,0,3,.85l4.25,1a30.5,30.5,0,0,1,6.49,2.13,17.76,17.76,0,0,1,4.73,3.16,12.43,12.43,0,0,1,2.91,4.23,14.06,14.06,0,0,1,1,5.36,13.8,13.8,0,0,1-2.36,8,14.69,14.69,0,0,1-6.73,5.14A27.77,27.77,0,0,1,358.19,518a28.8,28.8,0,0,1-10.82-1.86,15.22,15.22,0,0,1-7.17-5.65,17.16,17.16,0,0,1-2.64-9.59H349a7.5,7.5,0,0,0,1.28,4,7,7,0,0,0,3.13,2.41,12,12,0,0,0,4.62.82,11.46,11.46,0,0,0,4.12-.65,6,6,0,0,0,2.62-1.81,4.25,4.25,0,0,0,.94-2.66,3.65,3.65,0,0,0-.87-2.4,6.85,6.85,0,0,0-2.59-1.74,28.7,28.7,0,0,0-4.46-1.36l-5.17-1.21a22.39,22.39,0,0,1-10.11-4.77,11.28,11.28,0,0,1-3.68-8.92,13.3,13.3,0,0,1,2.47-8,16.41,16.41,0,0,1,6.88-5.39,24.8,24.8,0,0,1,10-1.93,23.74,23.74,0,0,1,10,1.95,15.49,15.49,0,0,1,6.58,5.44,14.63,14.63,0,0,1,2.39,8.12Z"/><path class="cls-68" d="M410.49,467.88v49.45H398.54V467.88Z"/><path class="cls-68" d="M460.07,467.88v49.45H449.92l-19.68-28.54h-.31v28.54H418V467.88h10.28l19.47,28.49h.41V467.88Z"/><path class="cls-68" d="M95.41,548.59v-9.71h41.8v9.71h-15v39.74H110.43V548.59Z"/><path class="cls-68" d="M143.08,588.33V538.88h12v19.85h19.48V538.88h11.93v49.45H174.52V568.46H155v19.87Z"/><path class="cls-68" d="M193.94,588.33V538.88h34.48v9.71H205.89v10.14h20.77v9.73H205.89v10.17h22.53v9.7Z"/><path class="cls-68" d="M262.4,588.33,248,538.88h13.21l7.46,32.41h.41l8.53-32.41h10.77l8.52,32.48h.41l7.49-32.48H318l-14.36,49.45H292.1l-8.91-30h-.39l-8.91,30Z"/><path class="cls-68" d="M366.67,563.61a28.22,28.22,0,0,1-3.14,13.83,21.42,21.42,0,0,1-8.49,8.62,25.78,25.78,0,0,1-24,0,21.59,21.59,0,0,1-8.47-8.63,32.17,32.17,0,0,1,0-27.64,21.38,21.38,0,0,1,8.47-8.62,25.86,25.86,0,0,1,24,0,21.49,21.49,0,0,1,8.49,8.62A28.26,28.26,0,0,1,366.67,563.61Zm-12.22,0a21.64,21.64,0,0,0-1.37-8.17,10.77,10.77,0,0,0-3.91-5,10.73,10.73,0,0,0-16.16,5,25.19,25.19,0,0,0,0,16.33,10.71,10.71,0,0,0,20.07,0A21.55,21.55,0,0,0,354.45,563.61Z"/><path class="cls-68" d="M373.62,588.33V538.88h20.43a21.51,21.51,0,0,1,9.6,2,14.61,14.61,0,0,1,6.24,5.7,17,17,0,0,1,2.2,8.78,16.1,16.1,0,0,1-2.25,8.73,14.2,14.2,0,0,1-6.37,5.45,23.54,23.54,0,0,1-9.78,1.88H380.77V562h10.69a12.59,12.59,0,0,0,4.53-.71,5.6,5.6,0,0,0,2.77-2.18,6.86,6.86,0,0,0,.94-3.75,7.17,7.17,0,0,0-.94-3.81,5.84,5.84,0,0,0-2.78-2.27,12,12,0,0,0-4.52-.76h-5.89v39.82Zm27.84-22.6,12.32,22.6h-13l-12.08-22.6Z"/><path class="cls-68" d="M418.63,588.33V538.88h11.95v39.75h20.58v9.7Z"/><path class="cls-68" d="M475.62,588.33H457.34V538.88h18.25a26.91,26.91,0,0,1,13,3,20.35,20.35,0,0,1,8.44,8.5,31.13,31.13,0,0,1,0,26.52,20.28,20.28,0,0,1-8.44,8.52A27,27,0,0,1,475.62,588.33Zm-6.33-10.19h5.87a16,16,0,0,0,7-1.41,9.28,9.28,0,0,0,4.37-4.61,20.53,20.53,0,0,0,1.48-8.54,20.17,20.17,0,0,0-1.49-8.51,9.31,9.31,0,0,0-4.41-4.59,16.35,16.35,0,0,0-7.16-1.41h-5.7Z"/><text class="cls-69" transform="translate(95.41 648.74)">LEARN HOW TO QUALIFY</text><circle class="cls-70" cx="415.2" cy="639.22" r="10.51"/><path class="cls-7" d="M412.34,635.8a1.54,1.54,0,1,1,1.54-1.54,1.54,1.54,0,0,1-1.54,1.54"/><path class="cls-7" d="M412.34,645.71a1.54,1.54,0,1,1,1.54-1.53,1.54,1.54,0,0,1-1.54,1.53"/><path class="cls-7" d="M421.12,640.65a1.54,1.54,0,1,1,1.53-1.54,1.53,1.53,0,0,1-1.53,1.54"/><path class="cls-7" d="M416.73,638.22a1.54,1.54,0,1,1,1.54-1.53,1.53,1.53,0,0,1-1.54,1.53"/><path class="cls-7" d="M416.73,643.18a1.54,1.54,0,1,1,1.54-1.54,1.53,1.53,0,0,1-1.54,1.54"/></g></g></svg>